<?xml version="1.0" encoding="UTF-8"?>
<svg id="Layer_2" data-name="Layer 2" xmlns="http://www.w3.org/2000/svg" viewBox="0 0 30.26 10.58">
  <defs>
    <style>
      .cls-1 {
        fill: #84c3eb;
      }

      .cls-2 {
        fill: #f4f2bb;
      }

      .cls-3 {
        fill: none;
        stroke: #84c3eb;
        stroke-width: 3px;
      }
    </style>
  </defs>
  <g id="Layer_1-2" data-name="Layer 1">
    <g>
      <g>
        <g>
          <path class="cls-1" d="M5.18,5.07c-.4.41-.67.96-.72,1.54-.04.29.22.32.28.07.31-1.43,1.04-1.98,2.15-1.89,1,.07,1.33,1.1,1.32,1.77,0,.64-.14,1.75-1.31,1.93-.38.06-.83-.11-1.2-.41-.18-.16-.28,0-.28.2-.02.86-.07,1.74-.16,2.59-.1.9-.59,1.61-1.58,1.61s-1.52-.71-1.6-1.61c-.13-1.75-.07-3.49-.05-5.24.01-.4.22-.72.53-.77.25-.05.6-.07.97-.07.7,0,1.43.11,1.64.28Z"/>
          <path class="cls-1" d="M10.97,12.58c-1.37,0-2.45-.72-2.45-2.04,0-1.2.92-1.96,2.15-2.19,1.12-.23,1.9-.73,2.29-1.33.16-.24-.19-.48-.35-.25-.47.68-1.4,1.19-2.43,1.19-.94,0-1.43-.49-1.43-1.16,0-1.21,1.57-1.99,3.43-1.99s3,.67,3.49,2.06c.42,1.18.41,3.07.07,4.53-.16.71-.56,1.08-1.25,1.08s-1.08-.34-1.22-.98c-.54.82-1.37,1.09-2.3,1.09ZM12.8,9.81c.24-.19-.06-.48-.22-.36-.46.38-.89.64-1.52.79-.19.05-.1.43.18.4.58-.07,1.12-.46,1.56-.83Z"/>
          <path class="cls-1" d="M23.93,10.25c-.01.22-.02.43-.05.63-.1.9-.66,1.49-1.7,1.49s-1.6-.59-1.7-1.49c-.02-.2-.05-.42-.06-.63,0-.3-.29-.34-.37-.1-.02.25-.04.49-.06.73-.1.9-.59,1.49-1.58,1.49s-1.55-.59-1.64-1.49c-.08-.79-.12-1.71-.14-2.51v-2.15c0-.86.58-1.44,1.44-1.44.68,0,1.38.19,1.63.73-.62.76-.94,1.63-.84,2.57.04.29.36.26.35.02-.1-1.22.58-2.52,1.36-2.97.34-.22.73-.35,1.13-.35.66,0,1.4.2,1.86.71-.53.67-.76,1.5-.71,2.35.06.29.34.2.34-.01-.07-1.2.65-2.3,1.22-2.7.3-.2.77-.34,1.26-.34.77,0,1.39.28,1.85.92.36.53.43,1.02.42,2.81-.01.95-.06,1.45-.18,2.35-.12.9-.64,1.49-1.68,1.49s-1.57-.59-1.68-1.49c-.02-.2-.05-.41-.06-.62,0-.35-.37-.36-.37-.01h-.01Z"/>
          <path class="cls-1" d="M28.9,11.37c-.23-1.42-.23-2.99,0-4.4.08-.55.59-1.01,1.61-1.01s1.48.46,1.57,1.01c.24,1.42.24,2.99,0,4.4-.1.56-.59,1.01-1.57,1.01s-1.52-.44-1.61-1.01ZM30.51,5.33c-.82,0-1.57-.6-1.57-1.67,0-1,.77-1.67,1.57-1.67.88,0,1.57.84,1.57,1.7s-.66,1.63-1.57,1.63Z"/>
        </g>
        <g>
          <path class="cls-3" d="M5.18,5.07c-.4.41-.67.96-.72,1.54-.04.29.22.32.28.07.31-1.43,1.04-1.98,2.15-1.89,1,.07,1.33,1.1,1.32,1.77,0,.64-.14,1.75-1.31,1.93-.38.06-.83-.11-1.2-.41-.18-.16-.28,0-.28.2-.02.86-.07,1.74-.16,2.59-.1.9-.59,1.61-1.58,1.61s-1.52-.71-1.6-1.61c-.13-1.75-.07-3.49-.05-5.24.01-.4.22-.72.53-.77.25-.05.6-.07.97-.07.7,0,1.43.11,1.64.28Z"/>
          <path class="cls-3" d="M10.97,12.58c-1.37,0-2.45-.72-2.45-2.04,0-1.2.92-1.96,2.15-2.19,1.12-.23,1.9-.73,2.29-1.33.16-.24-.19-.48-.35-.25-.47.68-1.4,1.19-2.43,1.19-.94,0-1.43-.49-1.43-1.16,0-1.21,1.57-1.99,3.43-1.99s3,.67,3.49,2.06c.42,1.18.41,3.07.07,4.53-.16.71-.56,1.08-1.25,1.08s-1.08-.34-1.22-.98c-.54.82-1.37,1.09-2.3,1.09ZM12.8,9.81c.24-.19-.06-.48-.22-.36-.46.38-.89.64-1.52.79-.19.05-.1.43.18.4.58-.07,1.12-.46,1.56-.83Z"/>
          <path class="cls-3" d="M23.93,10.25c-.01.22-.02.43-.05.63-.1.9-.66,1.49-1.7,1.49s-1.6-.59-1.7-1.49c-.02-.2-.05-.42-.06-.63,0-.3-.29-.34-.37-.1-.02.25-.04.49-.06.73-.1.9-.59,1.49-1.58,1.49s-1.55-.59-1.64-1.49c-.08-.79-.12-1.71-.14-2.51v-2.15c0-.86.58-1.44,1.44-1.44.68,0,1.38.19,1.63.73-.62.76-.94,1.63-.84,2.57.04.29.36.26.35.02-.1-1.22.58-2.52,1.36-2.97.34-.22.73-.35,1.13-.35.66,0,1.4.2,1.86.71-.53.67-.76,1.5-.71,2.35.06.29.34.2.34-.01-.07-1.2.65-2.3,1.22-2.7.3-.2.77-.34,1.26-.34.77,0,1.39.28,1.85.92.36.53.43,1.02.42,2.81-.01.95-.06,1.45-.18,2.35-.12.9-.64,1.49-1.68,1.49s-1.57-.59-1.68-1.49c-.02-.2-.05-.41-.06-.62,0-.35-.37-.36-.37-.01h-.01Z"/>
          <path class="cls-3" d="M28.9,11.37c-.23-1.42-.23-2.99,0-4.4.08-.55.59-1.01,1.61-1.01s1.48.46,1.57,1.01c.24,1.42.24,2.99,0,4.4-.1.56-.59,1.01-1.57,1.01s-1.52-.44-1.61-1.01ZM30.51,5.33c-.82,0-1.57-.6-1.57-1.67,0-1,.77-1.67,1.57-1.67.88,0,1.57.84,1.57,1.7s-.66,1.63-1.57,1.63Z"/>
        </g>
        <g>
          <path class="cls-2" d="M5.18,5.07c-.4.41-.67.96-.72,1.54-.04.29.22.32.28.07.31-1.43,1.04-1.98,2.15-1.89,1,.07,1.33,1.1,1.32,1.77,0,.64-.14,1.75-1.31,1.93-.38.06-.83-.11-1.2-.41-.18-.16-.28,0-.28.2-.02.86-.07,1.74-.16,2.59-.1.9-.59,1.61-1.58,1.61s-1.52-.71-1.6-1.61c-.13-1.75-.07-3.49-.05-5.24.01-.4.22-.72.53-.77.25-.05.6-.07.97-.07.7,0,1.43.11,1.64.28Z"/>
          <path class="cls-2" d="M10.97,12.58c-1.37,0-2.45-.72-2.45-2.04,0-1.2.92-1.96,2.15-2.19,1.12-.23,1.9-.73,2.29-1.33.16-.24-.19-.48-.35-.25-.47.68-1.4,1.19-2.43,1.19-.94,0-1.43-.49-1.43-1.16,0-1.21,1.57-1.99,3.43-1.99s3,.67,3.49,2.06c.42,1.18.41,3.07.07,4.53-.16.71-.56,1.08-1.25,1.08s-1.08-.34-1.22-.98c-.54.82-1.37,1.09-2.3,1.09ZM12.8,9.81c.24-.19-.06-.48-.22-.36-.46.38-.89.64-1.52.79-.19.05-.1.43.18.4.58-.07,1.12-.46,1.56-.83Z"/>
          <path class="cls-2" d="M23.93,10.25c-.01.22-.02.43-.05.63-.1.9-.66,1.49-1.7,1.49s-1.6-.59-1.7-1.49c-.02-.2-.05-.42-.06-.63,0-.3-.29-.34-.37-.1-.02.25-.04.49-.06.73-.1.9-.59,1.49-1.58,1.49s-1.55-.59-1.64-1.49c-.08-.79-.12-1.71-.14-2.51v-2.15c0-.86.58-1.44,1.44-1.44.68,0,1.38.19,1.63.73-.62.76-.94,1.63-.84,2.57.04.29.36.26.35.02-.1-1.22.58-2.52,1.36-2.97.34-.22.73-.35,1.13-.35.66,0,1.4.2,1.86.71-.53.67-.76,1.5-.71,2.35.06.29.34.2.34-.01-.07-1.2.65-2.3,1.22-2.7.3-.2.77-.34,1.26-.34.77,0,1.39.28,1.85.92.36.53.43,1.02.42,2.81-.01.95-.06,1.45-.18,2.35-.12.9-.64,1.49-1.68,1.49s-1.57-.59-1.68-1.49c-.02-.2-.05-.41-.06-.62,0-.35-.37-.36-.37-.01h-.01Z"/>
          <path class="cls-2" d="M28.9,11.37c-.23-1.42-.23-2.99,0-4.4.08-.55.59-1.01,1.61-1.01s1.48.46,1.57,1.01c.24,1.42.24,2.99,0,4.4-.1.56-.59,1.01-1.57,1.01s-1.52-.44-1.61-1.01ZM30.51,5.33c-.82,0-1.57-.6-1.57-1.67,0-1,.77-1.67,1.57-1.67.88,0,1.57.84,1.57,1.7s-.66,1.63-1.57,1.63Z"/>
        </g>
      </g>
      <g>
        <g>
          <path class="cls-1" d="M4.18,4.07c-.4.41-.67.96-.72,1.54-.04.29.22.32.28.07.31-1.43,1.04-1.98,2.15-1.89,1,.07,1.33,1.1,1.32,1.77,0,.64-.14,1.75-1.31,1.93-.38.06-.83-.11-1.2-.41-.18-.16-.28,0-.28.2-.02.86-.07,1.74-.16,2.59-.1.9-.59,1.61-1.58,1.61s-1.52-.71-1.6-1.61c-.13-1.75-.07-3.49-.05-5.24.01-.4.22-.72.53-.77.25-.05.6-.07.97-.07.7,0,1.43.11,1.64.28Z"/>
          <path class="cls-1" d="M9.97,11.58c-1.37,0-2.45-.72-2.45-2.04,0-1.2.92-1.96,2.15-2.19,1.12-.23,1.9-.73,2.29-1.33.16-.24-.19-.48-.35-.25-.47.68-1.4,1.19-2.43,1.19-.94,0-1.43-.49-1.43-1.16,0-1.21,1.57-1.99,3.43-1.99s3,.67,3.49,2.06c.42,1.18.41,3.07.07,4.53-.16.71-.56,1.08-1.25,1.08s-1.08-.34-1.22-.98c-.54.82-1.37,1.09-2.3,1.09ZM11.8,8.81c.24-.19-.06-.48-.22-.36-.46.38-.89.64-1.52.79-.19.05-.1.43.18.4.58-.07,1.12-.46,1.56-.83Z"/>
          <path class="cls-1" d="M22.93,9.25c-.01.22-.02.43-.05.63-.1.9-.66,1.49-1.7,1.49s-1.6-.59-1.7-1.49c-.02-.2-.05-.42-.06-.63,0-.3-.29-.34-.37-.1-.02.25-.04.49-.06.73-.1.9-.59,1.49-1.58,1.49s-1.55-.59-1.64-1.49c-.08-.79-.12-1.71-.14-2.51v-2.15c0-.86.58-1.44,1.44-1.44.68,0,1.38.19,1.63.73-.62.76-.94,1.63-.84,2.57.04.29.36.26.35.02-.1-1.22.58-2.52,1.36-2.97.34-.22.73-.35,1.13-.35.66,0,1.4.2,1.86.71-.53.67-.76,1.5-.71,2.35.06.29.34.2.34-.01-.07-1.2.65-2.3,1.22-2.7.3-.2.77-.34,1.26-.34.77,0,1.39.28,1.85.92.36.53.43,1.02.42,2.81-.01.95-.06,1.45-.18,2.35-.12.9-.64,1.49-1.68,1.49s-1.57-.59-1.68-1.49c-.02-.2-.05-.41-.06-.62,0-.35-.37-.36-.37-.01h-.01Z"/>
          <path class="cls-1" d="M27.9,10.37c-.23-1.42-.23-2.99,0-4.4.08-.55.59-1.01,1.61-1.01s1.48.46,1.57,1.01c.24,1.42.24,2.99,0,4.4-.1.56-.59,1.01-1.57,1.01s-1.52-.44-1.61-1.01ZM29.51,4.33c-.82,0-1.57-.6-1.57-1.67,0-1,.77-1.67,1.57-1.67.88,0,1.57.84,1.57,1.7s-.66,1.63-1.57,1.63Z"/>
        </g>
        <g>
          <path class="cls-3" d="M4.18,4.07c-.4.41-.67.96-.72,1.54-.04.29.22.32.28.07.31-1.43,1.04-1.98,2.15-1.89,1,.07,1.33,1.1,1.32,1.77,0,.64-.14,1.75-1.31,1.93-.38.06-.83-.11-1.2-.41-.18-.16-.28,0-.28.2-.02.86-.07,1.74-.16,2.59-.1.9-.59,1.61-1.58,1.61s-1.52-.71-1.6-1.61c-.13-1.75-.07-3.49-.05-5.24.01-.4.22-.72.53-.77.25-.05.6-.07.97-.07.7,0,1.43.11,1.64.28Z"/>
          <path class="cls-3" d="M9.97,11.58c-1.37,0-2.45-.72-2.45-2.04,0-1.2.92-1.96,2.15-2.19,1.12-.23,1.9-.73,2.29-1.33.16-.24-.19-.48-.35-.25-.47.68-1.4,1.19-2.43,1.19-.94,0-1.43-.49-1.43-1.16,0-1.21,1.57-1.99,3.43-1.99s3,.67,3.49,2.06c.42,1.18.41,3.07.07,4.53-.16.71-.56,1.08-1.25,1.08s-1.08-.34-1.22-.98c-.54.82-1.37,1.09-2.3,1.09ZM11.8,8.81c.24-.19-.06-.48-.22-.36-.46.38-.89.64-1.52.79-.19.05-.1.43.18.4.58-.07,1.12-.46,1.56-.83Z"/>
          <path class="cls-3" d="M22.93,9.25c-.01.22-.02.43-.05.63-.1.9-.66,1.49-1.7,1.49s-1.6-.59-1.7-1.49c-.02-.2-.05-.42-.06-.63,0-.3-.29-.34-.37-.1-.02.25-.04.49-.06.73-.1.9-.59,1.49-1.58,1.49s-1.55-.59-1.64-1.49c-.08-.79-.12-1.71-.14-2.51v-2.15c0-.86.58-1.44,1.44-1.44.68,0,1.38.19,1.63.73-.62.76-.94,1.63-.84,2.57.04.29.36.26.35.02-.1-1.22.58-2.52,1.36-2.97.34-.22.73-.35,1.13-.35.66,0,1.4.2,1.86.71-.53.67-.76,1.5-.71,2.35.06.29.34.2.34-.01-.07-1.2.65-2.3,1.22-2.7.3-.2.77-.34,1.26-.34.77,0,1.39.28,1.85.92.36.53.43,1.02.42,2.81-.01.95-.06,1.45-.18,2.35-.12.9-.64,1.49-1.68,1.49s-1.57-.59-1.68-1.49c-.02-.2-.05-.41-.06-.62,0-.35-.37-.36-.37-.01h-.01Z"/>
          <path class="cls-3" d="M27.9,10.37c-.23-1.42-.23-2.99,0-4.4.08-.55.59-1.01,1.61-1.01s1.48.46,1.57,1.01c.24,1.42.24,2.99,0,4.4-.1.56-.59,1.01-1.57,1.01s-1.52-.44-1.61-1.01ZM29.51,4.33c-.82,0-1.57-.6-1.57-1.67,0-1,.77-1.67,1.57-1.67.88,0,1.57.84,1.57,1.7s-.66,1.63-1.57,1.63Z"/>
        </g>
        <g>
          <path class="cls-2" d="M4.18,4.07c-.4.41-.67.96-.72,1.54-.04.29.22.32.28.07.31-1.43,1.04-1.98,2.15-1.89,1,.07,1.33,1.1,1.32,1.77,0,.64-.14,1.75-1.31,1.93-.38.06-.83-.11-1.2-.41-.18-.16-.28,0-.28.2-.02.86-.07,1.74-.16,2.59-.1.9-.59,1.61-1.58,1.61s-1.52-.71-1.6-1.61c-.13-1.75-.07-3.49-.05-5.24.01-.4.22-.72.53-.77.25-.05.6-.07.97-.07.7,0,1.43.11,1.64.28Z"/>
          <path class="cls-2" d="M9.97,11.58c-1.37,0-2.45-.72-2.45-2.04,0-1.2.92-1.96,2.15-2.19,1.12-.23,1.9-.73,2.29-1.33.16-.24-.19-.48-.35-.25-.47.68-1.4,1.19-2.43,1.19-.94,0-1.43-.49-1.43-1.16,0-1.21,1.57-1.99,3.43-1.99s3,.67,3.49,2.06c.42,1.18.41,3.07.07,4.53-.16.71-.56,1.08-1.25,1.08s-1.08-.34-1.22-.98c-.54.82-1.37,1.09-2.3,1.09ZM11.8,8.81c.24-.19-.06-.48-.22-.36-.46.38-.89.64-1.52.79-.19.05-.1.43.18.4.58-.07,1.12-.46,1.56-.83Z"/>
          <path class="cls-2" d="M22.93,9.25c-.01.22-.02.43-.05.63-.1.9-.66,1.49-1.7,1.49s-1.6-.59-1.7-1.49c-.02-.2-.05-.42-.06-.63,0-.3-.29-.34-.37-.1-.02.25-.04.49-.06.73-.1.9-.59,1.49-1.58,1.49s-1.55-.59-1.64-1.49c-.08-.79-.12-1.71-.14-2.51v-2.15c0-.86.58-1.44,1.44-1.44.68,0,1.38.19,1.63.73-.62.76-.94,1.63-.84,2.57.04.29.36.26.35.02-.1-1.22.58-2.52,1.36-2.97.34-.22.73-.35,1.13-.35.66,0,1.4.2,1.86.71-.53.67-.76,1.5-.71,2.35.06.29.34.2.34-.01-.07-1.2.65-2.3,1.22-2.7.3-.2.77-.34,1.26-.34.77,0,1.39.28,1.85.92.36.53.43,1.02.42,2.81-.01.95-.06,1.45-.18,2.35-.12.9-.64,1.49-1.68,1.49s-1.57-.59-1.68-1.49c-.02-.2-.05-.41-.06-.62,0-.35-.37-.36-.37-.01h-.01Z"/>
          <path class="cls-2" d="M27.9,10.37c-.23-1.42-.23-2.99,0-4.4.08-.55.59-1.01,1.61-1.01s1.48.46,1.57,1.01c.24,1.42.24,2.99,0,4.4-.1.56-.59,1.01-1.57,1.01s-1.52-.44-1.61-1.01ZM29.51,4.33c-.82,0-1.57-.6-1.57-1.67,0-1,.77-1.67,1.57-1.67.88,0,1.57.84,1.57,1.7s-.66,1.63-1.57,1.63Z"/>
        </g>
      </g>
      <g>
        <g>
          <path class="cls-1" d="M3.18,3.07c-.4.41-.67.96-.72,1.54-.04.29.22.32.28.07.31-1.43,1.04-1.98,2.15-1.89,1,.07,1.33,1.1,1.32,1.77,0,.64-.14,1.75-1.31,1.93-.38.06-.83-.11-1.2-.41-.18-.16-.28,0-.28.2-.02.86-.07,1.74-.16,2.59-.1.9-.59,1.61-1.58,1.61s-1.52-.71-1.6-1.61C-.05,7.12.01,5.39.03,3.63c.01-.4.22-.72.53-.77.25-.05.6-.07.97-.07.7,0,1.43.11,1.64.28Z"/>
          <path class="cls-1" d="M8.97,10.58c-1.37,0-2.45-.72-2.45-2.04,0-1.2.92-1.96,2.15-2.19,1.12-.23,1.9-.73,2.29-1.33.16-.24-.19-.48-.35-.25-.47.68-1.4,1.19-2.43,1.19-.94,0-1.43-.49-1.43-1.16,0-1.21,1.57-1.99,3.43-1.99s3,.67,3.49,2.06c.42,1.18.41,3.07.07,4.53-.16.71-.56,1.08-1.25,1.08s-1.08-.34-1.22-.98c-.54.82-1.37,1.09-2.3,1.09ZM10.8,7.81c.24-.19-.06-.48-.22-.36-.46.38-.89.64-1.52.79-.19.05-.1.43.18.4.58-.07,1.12-.46,1.56-.83Z"/>
          <path class="cls-1" d="M21.93,8.25c-.01.22-.02.43-.05.63-.1.9-.66,1.49-1.7,1.49s-1.6-.59-1.7-1.49c-.02-.2-.05-.42-.06-.63,0-.3-.29-.34-.37-.1-.02.25-.04.49-.06.73-.1.9-.59,1.49-1.58,1.49s-1.55-.59-1.64-1.49c-.08-.79-.12-1.71-.14-2.51v-2.15c0-.86.58-1.44,1.44-1.44.68,0,1.38.19,1.63.73-.62.76-.94,1.63-.84,2.57.04.29.36.26.35.02-.1-1.22.58-2.52,1.36-2.97.34-.22.73-.35,1.13-.35.66,0,1.4.2,1.86.71-.53.67-.76,1.5-.71,2.35.06.29.34.2.34-.01-.07-1.2.65-2.3,1.22-2.7.3-.2.77-.34,1.26-.34.77,0,1.39.28,1.85.92.36.53.43,1.02.42,2.81-.01.95-.06,1.45-.18,2.35-.12.9-.64,1.49-1.68,1.49s-1.57-.59-1.68-1.49c-.02-.2-.05-.41-.06-.62,0-.35-.37-.36-.37-.01h-.01Z"/>
          <path class="cls-1" d="M26.9,9.37c-.23-1.42-.23-2.99,0-4.4.08-.55.59-1.01,1.61-1.01s1.48.46,1.57,1.01c.24,1.42.24,2.99,0,4.4-.1.56-.59,1.01-1.57,1.01s-1.52-.44-1.61-1.01ZM28.51,3.33c-.82,0-1.57-.6-1.57-1.67,0-1,.77-1.67,1.57-1.67.88,0,1.57.84,1.57,1.7s-.66,1.63-1.57,1.63Z"/>
        </g>
        <g>
          <path class="cls-3" d="M3.18,3.07c-.4.41-.67.96-.72,1.54-.04.29.22.32.28.07.31-1.43,1.04-1.98,2.15-1.89,1,.07,1.33,1.1,1.32,1.77,0,.64-.14,1.75-1.31,1.93-.38.06-.83-.11-1.2-.41-.18-.16-.28,0-.28.2-.02.86-.07,1.74-.16,2.59-.1.9-.59,1.61-1.58,1.61s-1.52-.71-1.6-1.61C-.05,7.12.01,5.39.03,3.63c.01-.4.22-.72.53-.77.25-.05.6-.07.97-.07.7,0,1.43.11,1.64.28Z"/>
          <path class="cls-3" d="M8.97,10.58c-1.37,0-2.45-.72-2.45-2.04,0-1.2.92-1.96,2.15-2.19,1.12-.23,1.9-.73,2.29-1.33.16-.24-.19-.48-.35-.25-.47.68-1.4,1.19-2.43,1.19-.94,0-1.43-.49-1.43-1.16,0-1.21,1.57-1.99,3.43-1.99s3,.67,3.49,2.06c.42,1.18.41,3.07.07,4.53-.16.71-.56,1.08-1.25,1.08s-1.08-.34-1.22-.98c-.54.82-1.37,1.09-2.3,1.09ZM10.8,7.81c.24-.19-.06-.48-.22-.36-.46.38-.89.64-1.52.79-.19.05-.1.43.18.4.58-.07,1.12-.46,1.56-.83Z"/>
          <path class="cls-3" d="M21.93,8.25c-.01.22-.02.43-.05.63-.1.9-.66,1.49-1.7,1.49s-1.6-.59-1.7-1.49c-.02-.2-.05-.42-.06-.63,0-.3-.29-.34-.37-.1-.02.25-.04.49-.06.73-.1.9-.59,1.49-1.58,1.49s-1.55-.59-1.64-1.49c-.08-.79-.12-1.71-.14-2.51v-2.15c0-.86.58-1.44,1.44-1.44.68,0,1.38.19,1.63.73-.62.76-.94,1.63-.84,2.57.04.29.36.26.35.02-.1-1.22.58-2.52,1.36-2.97.34-.22.73-.35,1.13-.35.66,0,1.4.2,1.86.71-.53.67-.76,1.5-.71,2.35.06.29.34.2.34-.01-.07-1.2.65-2.3,1.22-2.7.3-.2.77-.34,1.26-.34.77,0,1.39.28,1.85.92.36.53.43,1.02.42,2.81-.01.95-.06,1.45-.18,2.35-.12.9-.64,1.49-1.68,1.49s-1.57-.59-1.68-1.49c-.02-.2-.05-.41-.06-.62,0-.35-.37-.36-.37-.01h-.01Z"/>
          <path class="cls-3" d="M26.9,9.37c-.23-1.42-.23-2.99,0-4.4.08-.55.59-1.01,1.61-1.01s1.48.46,1.57,1.01c.24,1.42.24,2.99,0,4.4-.1.56-.59,1.01-1.57,1.01s-1.52-.44-1.61-1.01ZM28.51,3.33c-.82,0-1.57-.6-1.57-1.67,0-1,.77-1.67,1.57-1.67.88,0,1.57.84,1.57,1.7s-.66,1.63-1.57,1.63Z"/>
        </g>
        <g>
          <path class="cls-2" d="M3.18,3.07c-.4.41-.67.96-.72,1.54-.04.29.22.32.28.07.31-1.43,1.04-1.98,2.15-1.89,1,.07,1.33,1.1,1.32,1.77,0,.64-.14,1.75-1.31,1.93-.38.06-.83-.11-1.2-.41-.18-.16-.28,0-.28.2-.02.86-.07,1.74-.16,2.59-.1.9-.59,1.61-1.58,1.61s-1.52-.71-1.6-1.61C-.05,7.12.01,5.39.03,3.63c.01-.4.22-.72.53-.77.25-.05.6-.07.97-.07.7,0,1.43.11,1.64.28Z"/>
          <path class="cls-2" d="M8.97,10.58c-1.37,0-2.45-.72-2.45-2.04,0-1.2.92-1.96,2.15-2.19,1.12-.23,1.9-.73,2.29-1.33.16-.24-.19-.48-.35-.25-.47.68-1.4,1.19-2.43,1.19-.94,0-1.43-.49-1.43-1.16,0-1.21,1.57-1.99,3.43-1.99s3,.67,3.49,2.06c.42,1.18.41,3.07.07,4.53-.16.71-.56,1.08-1.25,1.08s-1.08-.34-1.22-.98c-.54.82-1.37,1.09-2.3,1.09ZM10.8,7.81c.24-.19-.06-.48-.22-.36-.46.38-.89.64-1.52.79-.19.05-.1.43.18.4.58-.07,1.12-.46,1.56-.83Z"/>
          <path class="cls-2" d="M21.93,8.25c-.01.22-.02.43-.05.63-.1.9-.66,1.49-1.7,1.49s-1.6-.59-1.7-1.49c-.02-.2-.05-.42-.06-.63,0-.3-.29-.34-.37-.1-.02.25-.04.49-.06.73-.1.9-.59,1.49-1.58,1.49s-1.55-.59-1.64-1.49c-.08-.79-.12-1.71-.14-2.51v-2.15c0-.86.58-1.44,1.44-1.44.68,0,1.38.19,1.63.73-.62.76-.94,1.63-.84,2.57.04.29.36.26.35.02-.1-1.22.58-2.52,1.36-2.97.34-.22.73-.35,1.13-.35.66,0,1.4.2,1.86.71-.53.67-.76,1.5-.71,2.35.06.29.34.2.34-.01-.07-1.2.65-2.3,1.22-2.7.3-.2.77-.34,1.26-.34.77,0,1.39.28,1.85.92.36.53.43,1.02.42,2.81-.01.95-.06,1.45-.18,2.35-.12.9-.64,1.49-1.68,1.49s-1.57-.59-1.68-1.49c-.02-.2-.05-.41-.06-.62,0-.35-.37-.36-.37-.01h-.01Z"/>
          <path class="cls-2" d="M26.9,9.37c-.23-1.42-.23-2.99,0-4.4.08-.55.59-1.01,1.61-1.01s1.48.46,1.57,1.01c.24,1.42.24,2.99,0,4.4-.1.56-.59,1.01-1.57,1.01s-1.52-.44-1.61-1.01ZM28.51,3.33c-.82,0-1.57-.6-1.57-1.67,0-1,.77-1.67,1.57-1.67.88,0,1.57.84,1.57,1.7s-.66,1.63-1.57,1.63Z"/>
        </g>
      </g>
    </g>
  </g>
</svg>