<svg width="51" height="50" viewBox="0 0 51 50" fill="none" xmlns="http://www.w3.org/2000/svg">
<path d="M50.3682 25.065C45.4621 26.0234 39.6846 26.8867 35.3252 29.4339C28.0517 33.6825 26.9818 42.4766 25.4353 50C23.6767 42.5814 22.7897 33.6651 15.5123 29.4669C11.0906 26.9158 5.34424 25.9943 0.368164 25.065C0.414851 24.8089 0.648287 24.8419 0.831145 24.7914C5.79555 23.414 10.4643 23.2278 15.1933 20.6146C22.9745 16.3175 23.2838 8.10538 25.233 0.469484C25.2797 0.283242 25.233 0.0523804 25.5014 0C26.9157 7.32744 28.1062 16.2127 35.1384 20.3488C40.0192 23.22 44.7599 23.3209 49.9032 24.7914C50.0861 24.8438 50.3195 24.807 50.3662 25.065H50.3682Z" fill="#FF99C2"/>
</svg>
