<svg width="52" height="50" viewBox="0 0 52 50" fill="none" xmlns="http://www.w3.org/2000/svg">
<g clip-path="url(#clip0_566_2553)">
<path d="M38.482 18.6608C34.8247 19.3743 30.5178 20.017 27.268 21.9135C21.8459 25.0765 21.0484 31.6237 19.8955 37.2249C18.5846 31.7017 17.9233 25.0635 12.4983 21.938C9.20216 20.0387 4.91844 19.3526 1.20898 18.6608C1.24379 18.4702 1.4178 18.4947 1.55412 18.4572C5.25488 17.4317 8.73521 17.293 12.2605 15.3475C18.0611 12.1483 18.2916 6.03443 19.7447 0.349529C19.7795 0.210873 19.7447 0.0389971 19.9448 0C20.9991 5.45525 21.8865 12.0703 27.1288 15.1496C30.7672 17.2872 34.3012 17.3624 38.1354 18.4572C38.2717 18.4962 38.4457 18.4687 38.4805 18.6608H38.482Z" fill="#FF99C2"/>
<path d="M52.208 38.1238L48.1795 39.0496C44.006 40.2137 42.3455 41.9122 41.1956 46.0647C40.8374 47.3588 40.6474 48.6963 40.3357 49.9991C39.7266 47.6145 39.4569 45.0118 38.1981 42.8453C36.2115 39.4265 31.9886 38.9384 28.4604 38.1714C31.1983 37.4406 34.3669 37.2052 36.6305 35.329C39.2596 33.1495 39.5265 29.4231 40.3357 26.3438C41.1057 29.8578 41.5944 34.0637 45.0283 36.0425C47.1296 37.2528 49.8616 37.6312 52.2094 38.1223L52.208 38.1238Z" fill="#FF99C2"/>
</g>
<defs>
<clipPath id="clip0_566_2553">
<rect width="51" height="50" fill="white" transform="translate(0.936035)"/>
</clipPath>
</defs>
</svg>
