<?xml version="1.0" encoding="utf-8"?>
<!-- Generator: Adobe Illustrator 27.0.0, SVG Export Plug-In . SVG Version: 6.00 Build 0)  -->
<svg version="1.1" id="Layer_1" xmlns="http://www.w3.org/2000/svg" xmlns:xlink="http://www.w3.org/1999/xlink" x="0px" y="0px"
	 viewBox="0 0 66.8 66.8" style="enable-background:new 0 0 66.8 66.8;" xml:space="preserve">
<style type="text/css">
	.st0{fill:#84C3EB;}
	.st1{fill:#FF002B;}
</style>
<g>
	<path class="st0" d="M151.6-72.9l3.9,5.4l0.5,0.7l0.7-0.3l6-2.7l0.7,6.6l0.1,0.8l0.8,0.1l6.6,0.7l-2.7,6l-0.3,0.7l0.7,0.5l5.4,3.9
		l-5.4,3.9l-0.7,0.5l0.3,0.7l2.7,6l-6.6,0.7l-0.8,0.1l-0.1,0.8l-0.7,6.6l-6-2.7l-0.7-0.3l-0.5,0.7l-3.9,5.4l-3.9-5.4l-0.5-0.7
		l-0.7,0.3l-6,2.7l-0.7-6.6l-0.1-0.8l-0.8-0.1l-6.6-0.7l2.7-6l0.3-0.7l-0.7-0.5l-5.4-3.9l5.4-3.9l0.7-0.5l-0.3-0.7l-2.7-6l6.6-0.7
		l0.8-0.1l0.1-0.8l0.7-6.6l6,2.7l0.7,0.3l0.5-0.7L151.6-72.9 M151.6-74.6l-4.7,6.5l-7.3-3.3l-0.8,8l-8,0.8l3.3,7.3l-6.5,4.7l6.5,4.7
		l-3.3,7.3l8,0.8l0.8,8l7.3-3.3l4.7,6.5l4.7-6.5l7.3,3.3l0.8-8l8-0.8l-3.3-7.3l6.5-4.7l-6.5-4.7l3.3-7.3l-8-0.8l-0.8-8l-7.3,3.3
		L151.6-74.6L151.6-74.6z"/>
</g>
<path class="st1" d="M1984.9-2646.1c-172.8,0-177.2,208.6-347.9,235.5c-279.9,44.1-149.9-213.8-343.8-209.4
	c-172.8,3.9-172.4,109.9-345.3,109.9c-172.8,0-170.5-259.8-340.2-273c-259.3-20.2-178.3,273-351.1,273c-172.8,0-172.8-136-345.7-136
	v-541.1h2074V-2646.1z"/>
<g>
	<path class="st0" d="M33.4,18.1l0.5,9.7l0.2,3l1.7-2.6l5.2-8l-4.3,8.5l-1.4,2.7l2.7-1.4l8.5-4.3l-8,5.2L36,32.7l3,0.2l9.7,0.5
		L39,33.9l-3,0.2l2.6,1.7l8,5.2L38,36.7l-2.7-1.4l1.4,2.7l4.3,8.5l-5.2-8L34.1,36l-0.2,3l-0.5,9.7L32.9,39l-0.2-3L31,38.5l-5.2,8
		l4.3-8.5l1.4-2.7l-2.7,1.4L20.3,41l8-5.2l2.6-1.7l-3-0.2l-9.7-0.5l9.7-0.5l3-0.2L28.2,31l-8-5.2l8.5,4.3l2.7,1.4l-1.4-2.7l-4.3-8.5
		l5.2,8l1.7,2.6l0.2-3L33.4,18.1 M33.4,0l-1.5,27.7L16.7,4.5l12.5,24.7L4.5,16.7l23.2,15.2L0,33.4l27.7,1.5L4.5,50.1l24.7-12.5
		L16.7,62.3l15.2-23.2l1.5,27.7l1.5-27.7l15.2,23.2L37.6,37.6l24.7,12.5L39.1,34.9l27.7-1.5l-27.7-1.5l23.2-15.2L37.6,29.2L50.1,4.5
		L34.9,27.7L33.4,0L33.4,0z"/>
</g>
</svg>
