<?xml version="1.0" encoding="utf-8"?>
<!-- Generator: Adobe Illustrator 27.0.0, SVG Export Plug-In . SVG Version: 6.00 Build 0)  -->
<svg version="1.1" id="Layer_1" xmlns="http://www.w3.org/2000/svg" xmlns:xlink="http://www.w3.org/1999/xlink" x="0px" y="0px"
	 viewBox="0 0 51.3 51.3" style="enable-background:new 0 0 51.3 51.3;" xml:space="preserve">
<style type="text/css">
	.st0{fill:#84C3EB;}
	.st1{fill:#FF002B;}
</style>
<g>
	<path class="st0" d="M25.7,3.4l3.9,5.4L30,9.4l0.7-0.3l6-2.7l0.7,6.6l0.1,0.8l0.8,0.1l6.6,0.7l-2.7,6l-0.3,0.7l0.7,0.5l5.4,3.9
		l-5.4,3.9L41.9,30l0.3,0.7l2.7,6l-6.6,0.7l-0.8,0.1l-0.1,0.8l-0.7,6.6l-6-2.7L30,41.9l-0.5,0.7l-3.9,5.4l-3.9-5.4l-0.5-0.7
		l-0.7,0.3l-6,2.7l-0.7-6.6l-0.1-0.8L13,37.4l-6.6-0.7l2.7-6L9.4,30l-0.7-0.5l-5.4-3.9l5.4-3.9l0.7-0.5l-0.3-0.7l-2.7-6l6.6-0.7
		l0.8-0.1l0.1-0.8l0.7-6.6l6,2.7l0.7,0.3l0.5-0.7L25.7,3.4 M25.7,1.7L21,8.2l-7.3-3.3l-0.8,8l-8,0.8L8.2,21l-6.5,4.7l6.5,4.7
		l-3.3,7.3l8,0.8l0.8,8l7.3-3.3l4.7,6.5l4.7-6.5l7.3,3.3l0.8-8l8-0.8l-3.3-7.3l6.5-4.7L43.1,21l3.3-7.3l-8-0.8l-0.8-8l-7.3,3.3
		L25.7,1.7L25.7,1.7z"/>
</g>
<path class="st1" d="M1859-2569.9c-172.8,0-177.2,208.6-347.9,235.5c-279.9,44.1-149.9-213.8-343.8-209.4
	c-172.8,3.9-172.4,109.9-345.3,109.9c-172.8,0-170.5-259.8-340.2-273c-259.3-20.2-178.3,273-351.1,273c-172.8,0-172.8-136-345.7-136
	V-3111h2074V-2569.9z"/>
</svg>
