<?xml version="1.0" encoding="UTF-8"?>
<svg id="Layer_2" data-name="Layer 2" xmlns="http://www.w3.org/2000/svg" viewBox="0 0 38.75 15.93" width="100" height="41">
  <defs>
    <style>
      .cls-1 {
        fill: #f4f2bb;
      }

      .cls-2 {
        fill: #84c3eb;
      }
    </style>
  </defs>
  <g id="Layer_1-2" data-name="Layer 1">
    <g>
      <path class="cls-2" d="M38.34,5.27c.24-.39,.38-.85,.4-1.38,.03-.54-.06-1.01-.26-1.41-.21-.42-.52-.75-.91-.97-.04-.03-.1-.04-.14-.06-.17-.2-.36-.38-.59-.51-.05-.03-.1-.04-.15-.06-.17-.2-.36-.38-.59-.51-.35-.21-.76-.32-1.21-.35-.38-.03-.78,0-1.19,.1-.3,.06-.6,.16-.9,.29-.3,.13-.59,.28-.88,.47-.32,.22-.61,.49-.85,.79-.01,.02-.02,.03-.03,.05-.28-.26-.6-.45-.96-.54-.39-.1-.81-.1-1.26,0-.27,.06-.52,.15-.76,.26-.23,.11-.43,.25-.6,.39-.14-.04-.3-.08-.45-.09-.36-.04-.73-.02-1.09,.06-.24,.05-.48,.14-.71,.26-.19,.1-.37,.22-.51,.34-.11-.03-.22-.06-.34-.08-.35-.05-.72-.03-1.09,.05-.54,.12-1.01,.4-1.36,.81-.16-.09-.33-.16-.51-.2-.3-.07-.61-.07-.95,0-.31,.07-.59,.18-.84,.35-.15,.1-.29,.21-.42,.34-.17-.07-.36-.12-.55-.14-.3-.04-.62-.02-1,.07-.36,.08-.67,.19-.94,.34-.29,.16-.54,.36-.74,.6-.03,.03-.05,.07-.07,.1-.16-.07-.32-.13-.51-.17-.34-.07-.7-.09-1.08-.07-.34,.02-.66,.07-.96,.13-.4,.09-.79,.21-1.14,.37-.37,.16-.69,.36-.97,.58-.16,.12-.3,.26-.42,.4,0,0,0,0-.02-.01-.35-.2-.76-.32-1.21-.35-.38-.03-.78,0-1.19,.1-.3,.06-.6,.16-.91,.29-.3,.13-.59,.28-.87,.47-.22,.15-.41,.32-.59,.51-.12-.11-.26-.2-.41-.28-.33-.17-.71-.22-1.11-.16-.43,.06-.82,.21-1.16,.43-.17-.02-.33-.01-.47,0-.28,.02-.58,.06-.89,.13-.16,.03-.31,.07-.46,.11-.16,.05-.31,.1-.4,.13-.36,.13-.66,.39-.85,.73-.15,.27-.24,.57-.25,.92-.01,.65-.02,1.29-.03,1.93,0,.66,.02,1.33,.06,2,.02,.27,.08,.53,.17,.76,.12,.29,.29,.54,.52,.74,.14,.12,.31,.22,.48,.29,.08,.1,.16,.2,.25,.28,.14,.13,.31,.22,.48,.29,.08,.1,.16,.2,.25,.28,.24,.21,.52,.35,.84,.42,.14,.03,.29,.05,.44,.05,.17,0,.35-.02,.53-.06,.32-.07,.61-.19,.85-.35,.24-.16,.45-.36,.62-.58,.16-.21,.28-.45,.38-.71,.08-.24,.14-.48,.17-.76,.02-.19,.03-.38,.04-.57,.1,.07,.2,.13,.3,.19,.05,.05,.09,.11,.14,.16,.17,.17,.38,.3,.59,.42,.05,.05,.09,.11,.14,.16,.25,.24,.53,.42,.86,.56,.36,.15,.75,.23,1.16,.23,.35,0,.7-.04,1.06-.12,.26-.06,.48-.12,.67-.18,.22-.07,.46-.17,.73-.31,.48-.25,.84-.52,1.11-.82,.09,.05,.18,.1,.28,.14,.33,.12,.7,.19,1.11,.2,.03,0,.06,0,.08,0,.34,0,.71-.04,1.09-.12,.39-.08,.77-.21,1.13-.37,.37-.17,.7-.37,.99-.59,.15-.12,.28-.24,.41-.38,.25,.15,.52,.27,.83,.32,.15,.03,.31,.04,.48,.04,.25,0,.53-.03,.83-.1,.27-.06,.55-.14,.82-.24,.15-.06,.3-.12,.44-.18,.31,.09,.66,.09,1.08,0,.25-.05,.55-.15,.91-.31,.29-.13,.53-.32,.71-.55,.22,.11,.5,.19,.85,.19,.18,0,.37-.02,.59-.07,.54-.12,.98-.35,1.32-.7,.41,.19,.89,.22,1.45,.1,.57-.12,1.03-.37,1.38-.73,.33,.16,.81,.25,1.45,.11,.64-.14,1.14-.43,1.49-.86,.13-.15,.23-.32,.32-.5,.17,.13,.36,.24,.56,.32,.36,.15,.75,.23,1.16,.23h0c.34,0,.7-.04,1.05-.12,.26-.06,.48-.12,.67-.18,.22-.07,.46-.17,.72-.31,.61-.32,1.04-.67,1.3-1.08,.35-.53,.41-1.15,.19-1.74-.06-.16-.13-.29-.2-.42Z"/>
      <g>
        <g>
          <path class="cls-1" d="M2.03,13.19s-.06,0-.09,0c-.06-.01-.1-.03-.14-.06-.04-.03-.07-.08-.09-.13-.03-.08-.05-.18-.06-.29-.05-.62-.07-1.24-.06-1.86,0-.63,.01-1.27,.03-1.92,0-.06,.02-.11,.04-.16,.11-.06,.2-.09,.3-.12,.11-.03,.23-.06,.35-.09,.08-.02,.16-.03,.23-.05-.09,.23-.14,.46-.16,.69-.02,.2,.03,.38,.15,.51,.09,.11,.28,.19,.42,.19,.09,0,.19-.02,.29-.07,0,0,0,.01-.01,.02-.09,.12-.14,.29-.14,.47-.01,.3-.03,.61-.04,.93-.02,.31-.04,.63-.07,.94-.01,.12-.04,.24-.08,.36-.04,.11-.09,.2-.15,.29-.06,.08-.13,.15-.22,.21-.08,.06-.19,.1-.31,.12-.07,.02-.13,.02-.19,.02Zm2.34-3.41c-.15-.02-.23-.05-.31-.09-.08-.05-.25-.1-.34-.1s-.18,.02-.26,.06c.06-.08,.1-.17,.13-.3,.1-.46,.25-.79,.44-1,.19-.19,.42-.31,.71-.35h.16c.06,.04,.09,.07,.1,.09,.04,.07,.07,.14,.09,.22,.02,.1,.04,.2,.04,.28,0,.1,0,.21-.03,.34-.02,.11-.05,.22-.09,.34-.04,.1-.1,.19-.19,.28-.08,.08-.19,.15-.33,.2-.04,.02-.09,.03-.13,.03Z"/>
          <path class="cls-1" d="M4.83,8.5h0m-.2,.05s0,.04,0,.06c0,.08,0,.17-.02,.27,0,.07-.03,.14-.06,.21-.02,.04-.04,.08-.09,.12,0,0-.04,.03-.11,.07,0,0-.02,0-.02-.01-.06-.04-.12-.07-.18-.09,.09-.28,.18-.41,.24-.47,.07-.07,.15-.12,.25-.16m-2.52,1.41s.04,.06,.07,.08c.12,.13,.26,.23,.42,.28-.01,.3-.02,.59-.04,.89-.02,.31-.04,.62-.07,.91,0,.09-.03,.17-.06,.25-.02,.06-.05,.11-.08,.16-.02,.03-.06,.06-.1,.09-.02,.02-.05,.03-.09,.04,0,0,0,0,0,0-.04-.61-.06-1.22-.06-1.82,0-.29,0-.59,0-.88m2.72-2.46s-.1,0-.16,.01c-.4,.06-.74,.22-1,.49-.26,.27-.45,.68-.57,1.23-.02,.1-.07,.15-.13,.15,0,0,0,0,0,0-.06,0-.08-.05-.07-.16,.02-.21,.07-.43,.17-.64,.09-.21,.21-.41,.36-.6-.06-.04-.17-.05-.32-.05-.05,0-.1,0-.15,0-.23,.02-.48,.05-.73,.11-.13,.03-.26,.06-.39,.1-.12,.04-.23,.07-.32,.11-.12,.04-.21,.12-.28,.24-.07,.12-.1,.25-.11,.4-.01,.65-.02,1.29-.03,1.92,0,.64,.01,1.27,.06,1.9,.01,.16,.04,.31,.1,.44,.05,.13,.13,.24,.22,.32,.1,.08,.21,.14,.36,.17,.06,.01,.13,.02,.2,.02,.09,0,.19-.01,.29-.03,.18-.04,.34-.1,.48-.2,.14-.09,.25-.2,.35-.32,.09-.13,.17-.27,.22-.42,.06-.16,.09-.32,.11-.48,.03-.32,.05-.64,.07-.96,.02-.32,.03-.64,.04-.96,0-.08,.02-.14,.05-.19,.02-.03,.04-.04,.07-.04,.02,0,.05,.01,.08,.03,.13,.08,.28,.13,.43,.16,.05,0,.09,0,.13,0,.11,0,.21-.02,.31-.06,.21-.08,.38-.19,.51-.32,.13-.13,.23-.28,.29-.43,.06-.15,.11-.31,.13-.46,.02-.15,.03-.29,.03-.41s-.02-.25-.05-.39c-.03-.14-.08-.27-.16-.38-.07-.11-.17-.2-.3-.26-.09-.04-.19-.07-.3-.07h0Z"/>
        </g>
        <g>
          <path class="cls-1" d="M7.82,11.86c-.2,0-.39-.04-.55-.11-.15-.06-.26-.13-.37-.23-.11-.1-.2-.22-.28-.36-.08-.14-.14-.29-.18-.46-.04-.18-.06-.37-.07-.56,0-.23,.02-.46,.07-.7,.05-.24,.13-.48,.23-.7,.1-.22,.22-.42,.36-.61,.14-.18,.3-.33,.48-.45,.19-.13,.4-.24,.6-.33,.21-.09,.41-.15,.62-.2,.21-.05,.41-.07,.6-.07h.15c.2,.02,.37,.06,.51,.14,.12,.07,.21,.17,.28,.31,.08,.15,.11,.36,.09,.61-.02,.31-.1,.55-.25,.73-.17,.2-.44,.39-.81,.56-.09,.04-.19,.08-.3,.11-.1,.03-.2,.04-.3,.05h-.01c-.09,0-.14,0-.19-.02-.09-.13-.31-.23-.47-.23-.08,0-.15,.01-.24,.04-.3,.1-.46,.38-.42,.7,0,.1,.06,.29,.24,.46,.11,.1,.24,.19,.39,.25,.15,.06,.31,.1,.5,.11,.01,0,.12,0,.13,0,.14,0,.29-.02,.44-.05,.08-.02,.18-.05,.28-.09l.2-.09c.2-.1,.36-.17,.49-.22,.07-.03,.12-.04,.15-.04,0,.02,.03,.07,.07,.18,.04,.11,.03,.19-.04,.29-.07,.11-.25,.3-.7,.53-.18,.09-.34,.17-.48,.21-.15,.05-.32,.09-.52,.14-.24,.05-.49,.08-.72,.08Zm1.63-4.29c-.22,0-.44,.02-.68,.05-.29,.04-.57,.15-.83,.31-.13,.08-.24,.2-.3,.36-.04,.12-.05,.24-.04,.36,.02,.15,.09,.29,.2,.39,.09,.08,.25,.15,.38,.15,.08,0,.21-.03,.28-.07,.17-.08,.34-.15,.49-.18,.16-.03,.33-.05,.5-.05,.23-.01,.39-.1,.51-.25,.08-.1,.12-.21,.14-.34,.02-.15,0-.3-.08-.43-.1-.19-.3-.3-.54-.3h-.04Z"/>
          <path class="cls-1" d="M7.15,8.89c.03,.09,.06,.17,.1,.24-.18,.16-.3,.37-.35,.6,0-.06,.02-.13,.03-.19,.04-.21,.11-.41,.19-.6,0-.02,.02-.04,.02-.05m-.28,1.16s0,.06,0,.08c.03,.29,.17,.56,.39,.77,.15,.15,.33,.27,.55,.36,.08,.03,.16,.06,.25,.08-.09,0-.17,.01-.25,.01-.14,0-.25-.02-.37-.07-.08-.03-.14-.07-.2-.12-.07-.07-.13-.15-.19-.24-.06-.1-.1-.21-.13-.33-.03-.14-.05-.3-.06-.45,0-.03,0-.06,0-.09m3.39,.88h0m-.93-4.34c-.23,0-.46,.03-.7,.08-.23,.05-.47,.13-.71,.23-.24,.1-.47,.23-.69,.37-.23,.15-.43,.34-.6,.56-.17,.22-.31,.45-.43,.71-.11,.26-.2,.52-.26,.8-.06,.28-.08,.55-.08,.82,0,.23,.03,.45,.08,.66,.05,.21,.12,.41,.22,.59,.1,.18,.22,.34,.37,.48,.15,.14,.32,.25,.52,.33,.23,.1,.48,.15,.75,.15,0,0,0,0,0,0,.27,0,.54-.03,.82-.09,.22-.05,.41-.1,.57-.15,.16-.05,.35-.13,.56-.24,.44-.23,.74-.46,.89-.7,.15-.24,.18-.49,.08-.75-.06-.17-.13-.29-.21-.37s-.17-.12-.28-.13c-.01,0-.02,0-.03,0-.1,0-.22,.02-.35,.07-.14,.05-.31,.13-.51,.23-.05,.02-.12,.05-.19,.08-.07,.03-.14,.05-.2,.06-.12,.03-.23,.04-.34,.04-.03,0-.06,0-.09,0-.13,0-.24-.03-.34-.08-.1-.04-.17-.09-.23-.15-.06-.06-.09-.12-.1-.18-.01-.08,.02-.13,.08-.15,.03-.01,.05-.02,.08-.02,.03,0,.05,0,.06,.03,.06,.09,.15,.15,.27,.19,.1,.03,.2,.04,.31,.04,.02,0,.04,0,.05,0,.13,0,.27-.03,.4-.06,.14-.04,.26-.08,.38-.13,.44-.2,.77-.43,.99-.7,.22-.26,.34-.6,.36-1.02,.02-.35-.03-.64-.14-.86-.11-.23-.27-.4-.48-.52-.2-.12-.45-.19-.73-.21-.06,0-.12,0-.18,0h0Zm-1.14,2.1s-.03,0-.04-.02c-.02-.02-.04-.05-.04-.09,0-.04,0-.08,.01-.12,.01-.04,.05-.08,.09-.1,.2-.13,.41-.2,.64-.24,.21-.03,.41-.05,.6-.05,.01,0,.03,0,.04,0,.05,0,.09,.02,.11,.05,.02,.03,.02,.07,.02,.11,0,.04-.02,.08-.05,.11-.03,.04-.06,.05-.09,.06,0,0-.01,0-.02,0-.2,0-.4,.02-.59,.06-.2,.04-.41,.12-.63,.23-.02,0-.03,.01-.05,.01h0Z"/>
        </g>
        <g>
          <path class="cls-1" d="M12.81,10.77c-.23,0-.43-.04-.59-.1-.15-.05-.26-.13-.35-.23-.08-.08-.13-.19-.15-.34-.02-.11-.02-.23,0-.34,.01-.1,.05-.19,.1-.28,.05-.08,.12-.16,.22-.23,.1-.07,.23-.12,.4-.16,.1-.02,.18-.03,.26-.03,.05,0,.09,0,.14,.01,.11,.02,.22,.06,.31,.12,.1,.06,.18,.13,.26,.22,.1,.11,.19,.22,.27,.34,.09,.12,.3,.25,.45,.26h.01c.15,0,.26-.03,.35-.08,.1-.06,.23-.22,.27-.33,.06-.17,.05-.36-.04-.51-.09-.15-.19-.29-.31-.43-.13-.15-.28-.28-.46-.4-.18-.12-.38-.21-.6-.28-.18-.06-.39-.09-.62-.09h-.23c-.27,0-.48-.04-.62-.11-.07-.04-.1-.15-.1-.33,0-.11,.03-.22,.1-.34,.08-.14,.21-.28,.37-.4,.09-.07,.19-.14,.29-.2-.05,.09-.1,.2-.11,.29-.03,.23,.09,.44,.3,.56,.02,.03,.14,.11,.27,.2,.14,.09,.3,.19,.48,.28,.18,.09,.39,.18,.63,.26,.24,.08,.51,.14,.82,.19,.12,.02,.24,.05,.35,.09,.09,.03,.16,.08,.22,.14,.06,.06,.1,.13,.14,.22,.03,.09,.04,.22,.03,.38-.01,.16-.06,.3-.15,.45-.11,.17-.25,.32-.42,.46-.19,.15-.41,.28-.66,.39-.25,.11-.52,.2-.8,.26-.27,.06-.52,.09-.75,.09h-.05Zm1.82-3.76s-.08,0-.12-.02c-.12-.04-.24-.09-.34-.15-.15-.08-.28-.16-.39-.23-.11-.07-.23-.16-.37-.26-.07-.05-.19-.1-.29-.11,.18-.06,.37-.12,.57-.16,.22-.05,.46-.08,.72-.1,.07,0,.13,0,.19,0,.17,0,.32,.02,.47,.04,.15,.03,.27,.09,.36,.16,.01,.01,.05,.04,.04,.17,0,.09-.03,.17-.06,.23-.04,.07-.08,.12-.13,.17-.06,.05-.13,.1-.22,.14-.09,.04-.19,.07-.28,.09-.06,.01-.11,.02-.15,.02Z"/>
          <path class="cls-1" d="M14.6,6.48s.09,0,.14,0c-.03,0-.06,.02-.09,.03-.03,0-.06-.02-.09-.03,.02,0,.03,0,.04,0m-1.91,3.09s.02,0,.04,0c.06,.01,.11,.03,.14,.05,.06,.04,.11,.08,.15,.12,.08,.09,.15,.18,.22,.28,.04,.07,.1,.13,.15,.19-.19,.04-.38,.05-.57,.05,0,0,0,0,0,0-.17,0-.32-.03-.43-.07-.1-.04-.14-.08-.15-.09,0,0-.02-.04-.03-.09-.01-.06-.01-.12,0-.18,0-.04,.02-.07,.03-.1,.02-.03,.05-.05,.08-.07,.01,0,.07-.05,.22-.08,.06-.01,.11-.02,.16-.02m1.91-4.09c-.07,0-.15,0-.23,0-.29,.02-.55,.05-.8,.11-.33,.07-.64,.17-.93,.3-.28,.13-.53,.27-.74,.44-.21,.16-.37,.34-.49,.54-.12,.19-.18,.39-.18,.59,0,.37,.12,.63,.36,.76,.22,.12,.51,.18,.87,.18,.04,0,.08,0,.12,0,.04,0,.08,0,.12,0,.17,0,.33,.02,.47,.07,.18,.05,.33,.12,.47,.21,.14,.09,.26,.19,.36,.31,.1,.12,.18,.23,.25,.35,.02,.03,.02,.06,0,.09-.01,.03-.03,.05-.05,.07-.02,.01-.04,.02-.07,.02,0,0,0,0-.01,0-.03,0-.05-.02-.07-.05-.09-.13-.19-.26-.3-.38-.11-.12-.23-.23-.37-.31-.14-.09-.3-.15-.47-.18-.07-.01-.15-.02-.23-.02-.12,0-.24,.01-.37,.04-.24,.05-.44,.13-.59,.24-.15,.11-.27,.24-.36,.38-.08,.14-.14,.3-.16,.46-.02,.17-.02,.33,0,.49,.04,.24,.13,.43,.28,.59,.14,.16,.32,.28,.54,.36,.22,.08,.47,.12,.75,.13,.02,0,.04,0,.06,0,.27,0,.55-.03,.85-.1,.32-.07,.62-.17,.9-.3,.29-.13,.54-.28,.76-.45,.22-.17,.4-.37,.54-.58,.14-.21,.21-.44,.23-.68,.02-.23,0-.42-.06-.58-.06-.16-.14-.3-.25-.41-.11-.11-.24-.19-.39-.25-.15-.06-.3-.1-.46-.12-.28-.04-.52-.09-.73-.17-.21-.07-.4-.15-.56-.23-.16-.08-.3-.16-.42-.25-.12-.08-.22-.16-.31-.23-.03-.02-.04-.04-.04-.07,0-.03,.01-.05,.03-.07,.02-.02,.05-.04,.07-.04,0,0,.02,0,.02,0,.02,0,.04,0,.06,.02,.15,.11,.29,.21,.4,.28,.12,.07,.25,.15,.4,.24,.14,.08,.29,.15,.45,.19,.08,.03,.17,.04,.27,.04,.08,0,.17,0,.26-.03,.13-.03,.26-.07,.38-.13,.13-.06,.24-.13,.34-.21,.1-.09,.18-.19,.25-.32,.06-.12,.1-.27,.11-.43,.02-.25-.05-.44-.2-.58-.15-.14-.35-.23-.59-.28-.18-.04-.37-.05-.57-.05h0Z"/>
        </g>
        <g>
          <path class="cls-1" d="M17.78,9.67c-.07,0-.12,0-.18-.01-.18-.03-.3-.08-.37-.14s-.12-.17-.16-.32c-.07-.27-.1-.63-.1-1.09l.03-1.91c0-.14,.02-.26,.05-.38,.03-.1,.08-.19,.15-.27,.07-.08,.17-.16,.29-.23,.13-.07,.3-.13,.51-.18,.15-.03,.27-.05,.38-.05,.17,.01,.23,.03,.27,.06,.02,.01,.05,.04,.07,.1,.03,.09,.04,.2,.04,.33v1.83c.02,.25,.11,.43,.26,.54,.09,.06,.26,.12,.37,.12,.07,0,.14-.01,.21-.04,.14-.05,.25-.14,.34-.26,.1-.12,.15-.29,.15-.47v-1.86c0-.11,.02-.22,.05-.32,.03-.1,.08-.19,.14-.27,.06-.08,.13-.15,.22-.21,.09-.06,.19-.1,.31-.12,.06-.01,.12-.02,.17-.02,.14,.02,.19,.04,.22,.07,.03,.03,.06,.07,.08,.12,.03,.07,.04,.16,.04,.26v2.83c.01,.19,.03,.35,.05,.51,.01,.12,.02,.25,0,.36,0,.08-.03,.15-.06,.22-.02,.03-.06,.06-.1,.07-.24,.1-.44,.17-.6,.21-.12,.03-.2,.03-.24,.03l-.12-.03-.1-.35c-.04-.16-.2-.34-.36-.4-.06-.02-.14-.04-.2-.04-.09,0-.17,.02-.25,.06-.09,.04-.21,.16-.26,.24-.09,.14-.11,.31-.07,.46,0,0,0,.07,.03,.15,0,.02,0,.04,.02,.06-.06,.02-.11,.05-.17,.07-.21,.08-.41,.14-.61,.18-.19,.04-.36,.06-.5,.06Z"/>
          <path class="cls-1" d="M20.82,5.06v2.75s0,.05,0,.08c.01,.15,.03,.32,.05,.48,0,.07,.01,.13,0,.2-.1,.04-.19,.07-.25,.09-.01-.04-.03-.08-.05-.12-.07-.15-.17-.28-.29-.39,.01-.01,.02-.03,.03-.04,.17-.22,.27-.49,.27-.79v-1.86c0-.06,0-.11,.02-.16,.02-.05,.04-.09,.07-.13,.02-.03,.05-.06,.1-.09,.01,0,.03-.02,.04-.02m-2.57,.55v1.82s0,.06,0,.08c.03,.34,.18,.64,.45,.85-.02,.02-.03,.05-.05,.07-.11,.19-.17,.39-.16,.6-.11,.03-.22,.06-.32,.09-.19,.04-.32,.05-.39,.05-.03,0-.06,0-.12-.01-.04,0-.07-.01-.09-.02,0-.02-.02-.04-.02-.08-.04-.15-.09-.43-.08-.94,0-.51,.01-1.14,.03-1.93,0-.08,.01-.16,.03-.22,.01-.03,.03-.06,.05-.09,.02-.03,.06-.06,.15-.11,.06-.03,.18-.08,.38-.13,.06-.01,.11-.02,.15-.03m2.73-1.59c-.08,0-.17,.01-.27,.03-.18,.04-.33,.1-.47,.19-.14,.09-.26,.2-.35,.33-.09,.13-.17,.26-.21,.41-.05,.15-.07,.31-.07,.47v1.86c0,.07-.02,.13-.05,.17-.03,.05-.07,.08-.11,.09-.02,0-.03,0-.04,0-.02,0-.05,0-.07-.02-.03-.03-.06-.07-.06-.14v-1.83c0-.18-.02-.34-.07-.48-.05-.14-.12-.26-.23-.34-.11-.08-.25-.14-.42-.16-.05,0-.1,0-.15,0-.14,0-.3,.02-.48,.06-.26,.06-.47,.13-.65,.23-.18,.1-.32,.21-.43,.34-.11,.13-.19,.28-.24,.44-.05,.16-.07,.33-.07,.52-.01,.77-.02,1.41-.03,1.91,0,.51,.03,.91,.11,1.22,.06,.25,.17,.44,.31,.57,.14,.13,.35,.22,.61,.26,.08,.02,.17,.02,.28,.02,.17,0,.38-.02,.6-.07,.22-.05,.45-.11,.68-.2,.23-.08,.43-.18,.61-.28-.02-.02-.03-.05-.05-.1-.01-.05-.03-.1-.05-.16-.02-.06-.03-.12-.05-.17-.01-.06-.02-.11-.03-.16,0-.02,0-.05,.01-.07,.01-.02,.03-.04,.05-.05,.01,0,.02,0,.04,0,0,0,.02,0,.02,0,.02,0,.04,.02,.05,.05,.02,.07,.04,.16,.06,.26,.02,.1,.07,.2,.14,.28,.07,.08,.17,.15,.3,.19,.06,.02,.13,.03,.21,.03,.1,0,.22-.01,.35-.04,.19-.04,.42-.12,.69-.24,.16-.07,.27-.17,.34-.29,.07-.13,.11-.26,.12-.41,.01-.15,0-.3,0-.46-.02-.16-.03-.31-.04-.46v-2.83c0-.16-.02-.31-.07-.44-.05-.13-.12-.24-.22-.32-.1-.08-.21-.14-.35-.17-.06-.01-.13-.02-.2-.02h0Z"/>
        </g>
        <g>
          <path class="cls-1" d="M23.42,8.47c-.06,0-.14,0-.19-.04-.08-.07-.14-.19-.16-.38-.03-.27-.05-.56-.06-.87l-.04-.91v-1.55c0-.2,.06-.36,.17-.51,.12-.15,.28-.24,.48-.28,.13-.03,.25-.04,.36-.04,.01,0,.02,0,.03,0-.12,.22-.22,.45-.29,.68-.13,.4-.17,.81-.13,1.21,.02,.2,.12,.37,.27,.47,.08,.05,.24,.11,.34,.11,.04,0,.09,0,.13-.01,.14-.03,.27-.11,.36-.23,.1-.12,.15-.26,.15-.43-.02-.21,0-.39,.03-.58,.04-.2,.1-.39,.18-.57,.08-.18,.18-.35,.28-.51,.1-.14,.2-.26,.31-.34,.11-.1,.21-.17,.32-.22,.1-.05,.2-.09,.3-.11,.13-.03,.26-.04,.39-.04,.05,0,.11,0,.16,0-.08,.18-.15,.35-.2,.54-.1,.36-.14,.73-.12,1.09,.1,.46,.38,.59,.59,.59,.07,0,.18-.02,.24-.05,.26-.11,.41-.34,.41-.63-.01-.19,0-.36,.05-.53,.04-.19,.1-.36,.18-.52,.08-.16,.16-.31,.25-.45,.09-.13,.17-.22,.25-.29,.08-.07,.18-.14,.3-.19,.12-.06,.26-.11,.4-.14,.11-.02,.21-.04,.31-.04,.08,0,.16,0,.22,.03,.12,.03,.23,.1,.33,.23,.03,.04,.06,.09,.08,.14,.02,.04,.04,.11,.06,.24,.02,.13,.03,.29,.04,.48,0,.21,0,.48,0,.81,0,.17,0,.32,0,.45,0,.13-.01,.26-.02,.39l-.04,.4c-.01,.13-.03,.28-.06,.45-.04,.25-.12,.46-.25,.62-.12,.15-.32,.25-.59,.31-.1,.02-.19,.03-.27,.03-.09,0-.16-.01-.19-.04-.09-.07-.15-.2-.17-.39-.01-.08-.02-.14-.02-.2l-.02-.22c0-.23-.11-.38-.21-.47-.09-.08-.28-.16-.41-.16-.03,0-.09,0-.12,.01-.1,.02-.25,.08-.38,.24-.06,.07-.12,.18-.15,.33-.01,.04-.02,.07-.02,.11v.25c-.02,.06-.02,.12-.03,.18-.03,.26-.11,.46-.25,.62-.13,.15-.34,.26-.61,.32-.1,.02-.19,.03-.27,.03-.07,0-.15,0-.21-.05-.03-.02-.13-.1-.17-.38-.01-.07-.02-.14-.02-.2l-.02-.22c0-.19-.08-.33-.15-.41-.1-.11-.31-.21-.46-.21-.12,0-.28,.03-.43,.18-.08,.07-.15,.17-.2,.29-.01,.04-.03,.08-.03,.12-.01,.11-.02,.22-.03,.32,0,.07,0,.15-.02,.22-.03,.26-.1,.46-.23,.62-.11,.14-.29,.24-.54,.29-.09,.02-.18,.03-.25,.03Z"/>
          <path class="cls-1" d="M29.49,3.19s.07,0,.1,.01c0,0,.03,.02,.05,.04,.01,.02,.02,.03,.02,.04,0,0,.01,.04,.03,.12,.01,.07,.03,.2,.03,.41,0,.21,0,.48,0,.79,0,.16,0,.3,0,.43,0,.12-.01,.25-.02,.36-.01,.13-.02,.26-.04,.39-.01,.13-.03,.27-.05,.43-.02,.16-.07,.28-.15,.38-.04,.05-.16,.1-.3,.13,0,0-.02,0-.03,0,0,0,0,0,0,0,0-.05-.01-.1-.02-.14v-.2c-.03-.33-.16-.62-.41-.85-.15-.13-.34-.22-.53-.25,.05-.14,.08-.29,.08-.44,0-.02,0-.04,0-.06,0-.12,0-.23,.04-.36,.04-.16,.09-.3,.15-.43,.06-.14,.13-.26,.21-.37,.09-.13,.15-.18,.17-.21,.03-.03,.08-.07,.18-.11,.09-.04,.18-.08,.29-.1,.08-.02,.14-.02,.2-.02m-3.4,.79c-.07,.33-.09,.66-.07,.99,0,.06,.01,.12,.02,.17,.12,.52,.5,.8,.88,.87-.03,.07-.05,.14-.07,.23-.02,.06-.03,.12-.03,.18,0,.09-.01,.18-.01,.27,0,.04,0,.08-.01,.12,0,.02,0,.03,0,.05-.02,.18-.08,.27-.13,.33-.07,.08-.22,.13-.34,.16-.02,0-.03,0-.05,0,0,0,0,0,0,0,0-.05-.01-.1-.02-.15l-.02-.2c-.01-.35-.16-.59-.28-.73-.17-.19-.39-.32-.63-.36,.01-.07,.02-.15,.02-.23,0-.03,0-.05,0-.08-.01-.13,0-.26,.03-.41,.03-.16,.08-.32,.15-.47,.07-.15,.15-.29,.24-.42,.09-.13,.16-.2,.25-.27,.03-.02,.05-.04,.08-.06m-2.61,2.59s.07,.05,.1,.08c.13,.09,.27,.15,.42,.18,0,.03-.01,.06-.02,.09-.01,.13-.02,.25-.03,.36,0,.06,0,.12-.02,.2-.02,.15-.06,.27-.12,.35-.03,.04-.13,.08-.25,.11,0,0,0,0,0,0-.03-.25-.04-.52-.06-.8,0-.2-.02-.4-.03-.58m6.01-4.38c-.13,0-.27,.02-.41,.05-.18,.04-.35,.1-.51,.18-.16,.08-.3,.17-.41,.27-.1,.09-.21,.22-.32,.38-.11,.16-.21,.33-.3,.53s-.16,.4-.21,.62c-.05,.22-.07,.44-.06,.65,0,.08-.03,.14-.1,.17-.02,0-.03,.01-.04,.01-.05,0-.08-.04-.1-.12-.02-.31,.02-.62,.1-.93,.08-.31,.22-.61,.42-.9-.17-.15-.38-.24-.62-.26-.08,0-.16-.01-.24-.01-.17,0-.33,.02-.5,.05-.15,.03-.29,.08-.43,.16-.14,.07-.27,.17-.39,.27-.14,.11-.27,.26-.4,.44-.13,.18-.24,.38-.33,.59-.09,.21-.16,.44-.21,.67-.05,.24-.06,.46-.04,.68,0,.05-.01,.08-.03,.11-.02,.03-.05,.05-.08,.05,0,0-.01,0-.02,0-.02,0-.04,0-.07-.02-.03-.02-.05-.06-.05-.11-.03-.34,0-.67,.11-1.01,.11-.34,.28-.67,.5-1-.09-.18-.25-.28-.48-.31-.08-.01-.16-.02-.25-.02-.15,0-.31,.02-.47,.05-.32,.07-.57,.22-.76,.45-.19,.23-.29,.51-.29,.83v1.57c.01,.29,.02,.59,.04,.91,.01,.32,.04,.62,.07,.9,.03,.33,.15,.57,.35,.72,.13,.1,.29,.15,.5,.15,.11,0,.23-.01,.36-.04,.37-.08,.64-.24,.83-.47,.18-.24,.29-.52,.33-.87,.01-.09,.02-.18,.02-.27,0-.09,.01-.18,.02-.28,.02-.05,.04-.08,.07-.11,.03-.03,.06-.04,.09-.04,0,0,0,0,0,0,.03,0,.05,.01,.08,.04,.02,.03,.03,.07,.03,.12,0,.08,.01,.16,.02,.23,0,.07,.01,.15,.03,.22,.04,.32,.16,.56,.36,.72,.13,.1,.3,.15,.51,.15,.11,0,.24-.01,.38-.04,.39-.08,.68-.25,.89-.49,.2-.24,.32-.53,.36-.87,.01-.08,.02-.16,.02-.23,0-.08,0-.16,.01-.24h0c0-.07,.01-.12,.04-.15,.03-.04,.06-.06,.09-.06,0,0,.01,0,.02,0,.02,0,.05,.01,.07,.03,.03,.03,.04,.07,.04,.14,0,.08,.01,.16,.02,.23,0,.07,.01,.14,.03,.22,.04,.32,.16,.56,.36,.72,.13,.1,.29,.15,.5,.15,.11,0,.24-.01,.37-.04,.39-.08,.68-.24,.87-.48,.19-.24,.31-.53,.36-.87,.02-.17,.04-.32,.06-.46,.01-.14,.03-.27,.04-.41,.01-.13,.02-.27,.03-.41,0-.14,0-.3,0-.47,0-.33,0-.6,0-.82,0-.22-.02-.4-.04-.54-.02-.14-.06-.26-.1-.36-.04-.09-.09-.18-.16-.27-.17-.2-.37-.33-.59-.39-.11-.03-.22-.04-.35-.04h0Z"/>
        </g>
        <g>
          <path class="cls-1" d="M33.14,6.37c-.21,0-.38-.03-.55-.11-.15-.06-.27-.13-.37-.23-.11-.11-.2-.23-.28-.36-.08-.14-.13-.29-.17-.46-.04-.18-.06-.36-.07-.56,0-.22,.02-.46,.07-.71,.05-.24,.13-.48,.23-.7,.1-.22,.22-.42,.36-.61,.14-.18,.3-.33,.48-.45,.19-.13,.4-.24,.6-.33,.21-.09,.41-.15,.62-.2,.21-.04,.41-.07,.6-.07h.15c.2,.02,.37,.06,.51,.14,.12,.07,.21,.17,.28,.31,.07,.15,.1,.35,.09,.61-.02,.31-.1,.55-.25,.73-.17,.2-.44,.39-.81,.56-.09,.04-.19,.08-.3,.11-.11,.03-.2,.04-.3,.05h-.01c-.09,0-.15,0-.2-.02-.09-.13-.31-.23-.47-.23-.08,0-.16,.01-.24,.04-.3,.1-.46,.38-.42,.7,0,.1,.06,.29,.24,.46,.1,.1,.23,.19,.39,.25,.14,.06,.31,.1,.49,.11,.01,0,.12,0,.13,0,.14,0,.29-.02,.44-.05,.08-.02,.18-.05,.28-.09l.2-.09c.2-.1,.36-.17,.49-.22,.07-.03,.12-.04,.15-.04,0,.02,.03,.07,.07,.18,.04,.11,.03,.19-.03,.3-.07,.11-.26,.3-.7,.53-.18,.09-.34,.17-.48,.21-.14,.05-.32,.09-.52,.14-.24,.05-.49,.08-.72,.08Zm1.63-4.29c-.22,0-.44,.02-.68,.05-.29,.04-.57,.15-.83,.31-.14,.08-.24,.21-.3,.36-.04,.12-.05,.24-.04,.36,.03,.2,.13,.32,.2,.39,.09,.08,.25,.14,.38,.14,.08,0,.21-.03,.28-.07,.17-.08,.34-.15,.49-.18,.16-.03,.32-.05,.5-.05,.23-.01,.39-.1,.51-.25,.08-.1,.13-.22,.14-.35,.02-.13,0-.27-.07-.4-.11-.2-.31-.31-.54-.31h-.04Z"/>
          <path class="cls-1" d="M32.47,3.4c.03,.09,.06,.17,.1,.24-.18,.16-.3,.37-.36,.61,0-.07,.02-.13,.03-.2,.04-.21,.11-.41,.19-.6,0-.02,.02-.04,.02-.05m-.28,1.16s0,.05,0,.08c.03,.29,.17,.56,.39,.77,.15,.15,.33,.27,.55,.36,.08,.03,.16,.06,.25,.08-.09,0-.17,.01-.25,.01-.14,0-.25-.02-.37-.07-.08-.03-.14-.07-.2-.12-.07-.07-.13-.15-.19-.24-.06-.1-.1-.21-.12-.33-.03-.15-.05-.3-.06-.45,0-.03,0-.06,0-.08m3.39,.88h0m-.93-4.34c-.23,0-.46,.03-.7,.08-.23,.05-.47,.13-.71,.23-.24,.1-.47,.23-.69,.37-.23,.15-.43,.34-.6,.56-.17,.22-.31,.45-.43,.71-.11,.26-.2,.52-.26,.8-.06,.28-.08,.55-.08,.82,0,.23,.03,.45,.08,.66,.05,.21,.12,.41,.22,.59,.1,.18,.22,.34,.37,.48,.15,.14,.32,.25,.52,.33,.23,.1,.48,.15,.75,.15,0,0,0,0,0,0,.27,0,.54-.03,.82-.09,.22-.05,.41-.1,.57-.15,.16-.05,.35-.13,.56-.24,.44-.23,.74-.46,.89-.7,.15-.24,.18-.49,.08-.75-.06-.17-.13-.29-.21-.37-.08-.08-.17-.12-.28-.13-.01,0-.02,0-.03,0-.1,0-.22,.02-.34,.07-.14,.05-.31,.13-.51,.23-.05,.02-.12,.05-.19,.08-.07,.03-.14,.05-.2,.06-.12,.03-.23,.04-.34,.04-.03,0-.06,0-.09,0-.13-.01-.24-.03-.34-.08-.1-.04-.17-.09-.23-.15-.06-.06-.09-.12-.1-.18-.01-.08,.02-.13,.08-.15,.03-.01,.05-.02,.08-.02,.03,0,.05,0,.06,.03,.06,.09,.15,.15,.27,.19,.1,.03,.2,.04,.31,.04,.02,0,.04,0,.05,0,.13,0,.27-.03,.4-.06,.14-.04,.26-.08,.38-.13,.44-.2,.78-.43,.99-.7,.22-.26,.34-.6,.36-1.02,.02-.35-.03-.64-.14-.86-.11-.23-.27-.4-.48-.52-.2-.12-.45-.19-.73-.21-.06,0-.12,0-.18,0h0Zm-1.14,2.1s-.03,0-.04-.02c-.02-.02-.04-.05-.04-.09,0-.04,0-.08,.01-.12,.01-.04,.05-.08,.09-.1,.2-.13,.41-.2,.64-.24,.21-.03,.41-.05,.6-.05,.01,0,.03,0,.04,0,.05,0,.09,.02,.11,.05,.02,.03,.02,.07,.02,.11,0,.04-.02,.08-.05,.11-.03,.04-.06,.05-.09,.06,0,0-.01,0-.02,0-.2,0-.4,.02-.59,.06-.2,.04-.41,.12-.63,.23-.02,0-.03,.01-.05,.01h0Z"/>
        </g>
      </g>
    </g>
  </g>
</svg>