<svg width="444" height="62" viewBox="0 0 444 62" fill="none" xmlns="http://www.w3.org/2000/svg">
<g clip-path="url(#clip0_698_5449)">
<mask id="mask0_698_5449" style="mask-type:luminance" maskUnits="userSpaceOnUse" x="0" y="1" width="62" height="62">
<path d="M31.0029 62.0054C47.8369 62.0054 61.4836 48.384 61.4836 31.5811C61.4836 14.7782 47.8369 1.15674 31.0029 1.15674C14.1689 1.15674 0.522217 14.7782 0.522217 31.5811C0.522217 48.384 14.1689 62.0054 31.0029 62.0054Z" fill="white"/>
</mask>
<g mask="url(#mask0_698_5449)">
<path d="M7.5577 37.6919C8.43455 37.6919 9.14437 38.4004 9.14437 39.2756V55.139C9.14437 55.7329 8.65898 56.2174 8.06398 56.2174H7.04621C6.45121 56.2174 5.96582 55.7329 5.96582 55.139V39.2756C5.96582 38.4004 6.67564 37.6919 7.55249 37.6919H7.5577Z" fill="white"/>
<path d="M54.4427 37.6919C55.3196 37.6919 56.0294 38.4004 56.0294 39.2756V55.139C56.0294 55.7329 55.544 56.2174 54.949 56.2174H53.9312C53.3362 56.2174 52.8508 55.7329 52.8508 55.139V39.2756C52.8508 38.4004 53.5607 37.6919 54.4375 37.6919H54.4427Z" fill="white"/>
<path d="M13.5914 42.3232H48.4145C50.8676 42.3232 52.8613 44.3133 52.8613 46.7619V51.586H9.14453V46.7619C9.14453 44.3133 11.1383 42.3232 13.5914 42.3232Z" fill="white"/>
<path d="M52.8609 53.3364H8.83618V54.8785H52.8609V53.3364Z" fill="white"/>
<path d="M31.6502 29.3984H30.0479V42.3236H31.6502V29.3984Z" fill="white"/>
<path d="M30.8463 17.0254L26.3003 24.8867H35.3975L30.8463 17.0254Z" fill="white"/>
<path d="M30.8464 20.3804L25.6323 29.3983H36.0605L30.8464 20.3804Z" fill="white"/>
<path d="M30.8464 23.0894L24.2805 34.4412H37.4123L30.8464 23.0894Z" fill="white"/>
<path d="M20.1519 32.5972H18.9202V42.5268H20.1519V32.5972Z" fill="white"/>
<path d="M19.536 23.0894L16.0391 29.1325H23.0277L19.536 23.0894Z" fill="white"/>
<path d="M19.5358 25.668L15.5273 32.5968H23.539L19.5358 25.668Z" fill="white"/>
<path d="M19.5358 27.752L14.4888 36.4677H24.5777L19.5358 27.752Z" fill="white"/>
<path d="M41.5405 42.5264H42.7722V32.5968H41.5405V42.5264Z" fill="white"/>
<path d="M42.1565 23.0894L45.6534 29.1325H38.6648L42.1565 23.0894Z" fill="white"/>
<path d="M42.1563 25.668L46.1647 32.5968H38.1531L42.1563 25.668Z" fill="white"/>
<path d="M42.1563 27.752L47.2034 36.4677H37.1145L42.1563 27.752Z" fill="white"/>
</g>
<path d="M31.0026 61.8854C13.9094 61.8854 0 48.0069 0 30.9453C0 13.8837 13.9094 0 31.0026 0C48.0958 0 62.0052 13.8837 62.0052 30.9453C62.0052 48.0069 48.0958 61.8906 31.0026 61.8906V61.8854ZM31.0026 1.04193C14.4835 1.04193 1.04386 14.4568 1.04386 30.9453C1.04386 47.4338 14.4835 60.8487 31.0026 60.8487C47.5217 60.8487 60.9614 47.4338 60.9614 30.9453C60.9614 14.4568 47.5217 1.04193 31.0026 1.04193Z" fill="white"/>
<path d="M17.4587 14.2901C17.4587 14.2589 17.4744 14.238 17.5109 14.2224C17.5422 14.2068 17.5997 14.1911 17.6675 14.1755C17.8293 14.1442 17.9389 14.0974 18.0015 14.0244C18.0642 13.9515 18.0955 13.8421 18.0955 13.691V11.008C18.0955 10.8049 18.0694 10.6538 18.0172 10.5548C17.965 10.4558 17.8606 10.3933 17.7093 10.3725C17.5683 10.3464 17.5005 10.3047 17.5005 10.2474C17.5005 10.2005 17.5631 10.1797 17.6832 10.1797C17.8397 10.1797 18.0276 10.1797 18.2469 10.1901H18.774L19.5778 10.1953C19.6978 10.1953 19.8335 10.1849 19.9849 10.1589C20.0945 10.1432 20.1676 10.1328 20.2093 10.1328C20.2824 10.1328 20.3189 10.1537 20.3241 10.1901C20.3346 10.2526 20.3398 10.3568 20.345 10.5027C20.3502 10.6486 20.3554 10.758 20.3554 10.8309C20.3554 10.9195 20.3346 10.9664 20.298 10.9664C20.2772 10.9664 20.2563 10.9611 20.2406 10.9455C20.225 10.9299 20.2093 10.9143 20.2041 10.8934C20.1676 10.7476 20.1154 10.6434 20.0579 10.5808C19.9536 10.4662 19.8126 10.4089 19.63 10.4089H18.821C18.7322 10.4089 18.6748 10.435 18.6487 10.4871C18.6226 10.5392 18.607 10.6173 18.607 10.7267C18.607 10.8361 18.6018 11.0445 18.6018 11.3623C18.6018 11.6644 18.6018 11.8624 18.607 11.9666C18.607 12.0604 18.6279 12.1073 18.6696 12.1073C18.7844 12.1073 18.941 12.1073 19.1341 12.0968H19.4055C19.4943 12.0916 19.5726 12.0656 19.6404 12.0187C19.7083 11.9718 19.7604 11.9093 19.7918 11.8312C19.8022 11.8155 19.8179 11.7895 19.844 11.7634C19.8701 11.7374 19.8909 11.7218 19.9066 11.7218C19.9222 11.7218 19.9431 11.7322 19.964 11.753C19.9849 11.7739 19.9953 11.7999 19.9901 11.8207C19.9797 11.9666 19.9692 12.0812 19.9692 12.1698C19.9692 12.274 19.9744 12.4146 19.9901 12.6022C19.9901 12.6751 19.9692 12.7116 19.9327 12.7116C19.8961 12.7116 19.8648 12.696 19.8387 12.6647C19.8126 12.6334 19.797 12.6022 19.7865 12.5657C19.7552 12.4772 19.7135 12.4146 19.6613 12.373C19.6039 12.3313 19.5517 12.3104 19.489 12.3104H19.1707C18.9828 12.3052 18.8471 12.3104 18.7583 12.3157C18.654 12.3261 18.607 12.3782 18.607 12.4719C18.607 13.0033 18.6122 13.4045 18.6279 13.6858C18.6383 13.8317 18.6696 13.9411 18.7322 14.0192C18.7897 14.0974 18.8993 14.1494 19.0506 14.1755C19.1237 14.1859 19.1759 14.2015 19.2124 14.2224C19.2437 14.238 19.2646 14.2641 19.2646 14.2901C19.2646 14.337 19.202 14.3578 19.0819 14.3578C18.9462 14.3578 18.821 14.3474 18.7114 14.3318C18.6331 14.3214 18.5496 14.3109 18.4556 14.3109C18.3826 14.3109 18.3095 14.3109 18.2364 14.3214C18.1633 14.3266 18.1059 14.3318 18.0746 14.3318C17.9128 14.3474 17.7719 14.3578 17.6571 14.3578C17.5422 14.3578 17.4744 14.337 17.4744 14.2901H17.4587Z" fill="white"/>
<path d="M21.1852 14.2484C20.992 14.139 20.8407 13.9879 20.7259 13.7899C20.611 13.5972 20.5588 13.3784 20.5588 13.1335C20.5588 12.8886 20.6215 12.6698 20.7467 12.4458C20.872 12.2218 21.039 12.0395 21.2582 11.8988C21.4722 11.7582 21.7071 11.6904 21.9524 11.6904C22.1977 11.6904 22.4169 11.7477 22.6152 11.8676C22.8136 11.9874 22.9702 12.1385 23.0902 12.3364C23.2102 12.5344 23.2677 12.7428 23.2677 12.9668C23.2677 13.2221 23.2102 13.4565 23.1006 13.6805C22.991 13.9045 22.8292 14.0764 22.61 14.2119C22.3908 14.3473 22.1298 14.4099 21.8271 14.4099C21.5923 14.4099 21.3783 14.3526 21.1852 14.2432V14.2484ZM22.6152 13.8785C22.6988 13.7118 22.7405 13.4617 22.7405 13.1283C22.7405 12.9251 22.704 12.7271 22.6257 12.5396C22.5474 12.3468 22.443 12.1958 22.3073 12.0759C22.1716 11.9561 22.015 11.8988 21.8428 11.8988C21.7175 11.8988 21.6131 11.9197 21.5244 11.9561C21.4357 11.9926 21.3522 12.0603 21.2843 12.1541C21.206 12.2531 21.1538 12.3729 21.1277 12.5136C21.1016 12.6542 21.0808 12.8157 21.0808 12.9981C21.0808 13.2116 21.1173 13.4096 21.1956 13.5972C21.2739 13.7847 21.3783 13.9358 21.5087 14.0556C21.6392 14.1754 21.7906 14.2275 21.9576 14.2275C22.276 14.2275 22.4952 14.1129 22.6152 13.8785Z" fill="white"/>
<path d="M23.6698 14.2744C23.6698 14.2432 23.6802 14.2223 23.7011 14.2119C23.722 14.2015 23.7585 14.1859 23.8159 14.1702C23.9777 14.1338 24.056 14.0504 24.056 13.9306V12.5657C24.056 12.4406 24.0351 12.3364 23.9986 12.2583C23.9621 12.1802 23.8942 12.1281 23.795 12.1072C23.7794 12.1072 23.7637 12.0916 23.7481 12.076C23.7376 12.0603 23.7272 12.0447 23.7272 12.0239C23.7272 12.003 23.7324 11.9926 23.7481 11.977C23.7637 11.9614 23.7742 11.9509 23.7846 11.9509C23.9568 11.8936 24.1656 11.7946 24.4161 11.6384C24.4631 11.6071 24.4944 11.5967 24.5101 11.5967C24.531 11.5967 24.5414 11.6123 24.5414 11.6384C24.5414 11.753 24.5362 11.9093 24.5205 12.1124C24.5205 12.1229 24.5205 12.1229 24.531 12.1229C24.6353 11.9978 24.7554 11.8936 24.8859 11.8103C25.0163 11.7269 25.1416 11.6905 25.2617 11.6905C25.3504 11.6905 25.4235 11.7113 25.4809 11.7478C25.5383 11.7842 25.5644 11.8363 25.5644 11.8936C25.5644 11.9614 25.5383 12.0343 25.4861 12.1072C25.4339 12.1854 25.3765 12.2218 25.3191 12.2218C25.2773 12.2218 25.2199 12.201 25.1416 12.1645C25.1312 12.1645 25.0999 12.1489 25.0529 12.1333C25.0111 12.1176 24.9694 12.1072 24.9328 12.1072C24.8076 12.1072 24.7084 12.1489 24.6197 12.227C24.5362 12.3052 24.4944 12.4459 24.4944 12.6386V13.9202C24.4944 13.9775 24.5205 14.0192 24.5779 14.0556C24.6353 14.0921 24.7188 14.1286 24.8337 14.1598C24.8859 14.1755 24.9224 14.1911 24.9433 14.2067C24.9642 14.2223 24.9798 14.238 24.9798 14.264C24.9798 14.3109 24.9381 14.3317 24.8545 14.3317C24.7397 14.3317 24.6406 14.3265 24.557 14.3109C24.4527 14.3005 24.3692 14.3005 24.3013 14.3005C24.2335 14.3005 24.1499 14.3005 24.0612 14.3109C23.9934 14.3213 23.9046 14.3317 23.7898 14.3317C23.7063 14.3317 23.6646 14.3109 23.6646 14.264L23.6698 14.2744Z" fill="white"/>
<path d="M26.3575 14.2484C26.1801 14.1338 26.0444 13.9723 25.9452 13.7639C25.846 13.5555 25.7991 13.3106 25.7991 13.0345C25.7991 12.7949 25.8565 12.5761 25.9661 12.3677C26.0809 12.1593 26.2271 11.9978 26.4149 11.8728C26.6028 11.7477 26.8064 11.6904 27.0256 11.6904C27.2814 11.6904 27.4901 11.7634 27.6519 11.9144C27.8137 12.0655 27.8972 12.2583 27.8972 12.4875C27.8972 12.6177 27.8346 12.6855 27.7041 12.6855H26.3628C26.3053 12.6855 26.2636 12.7011 26.2375 12.7324C26.2114 12.7636 26.201 12.8261 26.201 12.9199C26.201 13.1179 26.2427 13.3054 26.3314 13.4721C26.4202 13.644 26.535 13.7743 26.6864 13.8733C26.8377 13.9723 26.9995 14.0244 27.1822 14.0244C27.4327 14.0244 27.6415 13.9306 27.8033 13.7378C27.8294 13.7014 27.8503 13.6857 27.8711 13.6857C27.9024 13.6857 27.9233 13.7066 27.9233 13.7482C27.9233 13.8264 27.8868 13.9202 27.8085 14.0139C27.7146 14.139 27.5893 14.2327 27.4379 14.3005C27.2866 14.3682 27.1248 14.4047 26.9525 14.4047C26.7229 14.4047 26.5193 14.3473 26.3471 14.2327L26.3575 14.2484ZM26.963 12.4979C27.1613 12.4979 27.3179 12.4875 27.4327 12.4667C27.4692 12.4667 27.4849 12.4146 27.4849 12.326C27.4849 12.201 27.4327 12.0968 27.3231 12.0134C27.2135 11.9249 27.0882 11.8832 26.9369 11.8832C26.8429 11.8832 26.749 11.9144 26.6498 11.9718C26.5507 12.0291 26.4671 12.102 26.4045 12.1853C26.3419 12.2687 26.3106 12.3573 26.3106 12.4406C26.3106 12.4823 26.3367 12.5031 26.3889 12.5031H26.9682L26.963 12.4979Z" fill="white"/>
<path d="M28.6382 14.3579C28.5234 14.3163 28.4242 14.2642 28.3459 14.1912C28.3094 14.1235 28.2885 13.9516 28.2781 13.6859C28.2781 13.6494 28.3042 13.6286 28.3616 13.6286C28.4086 13.6286 28.4347 13.6442 28.4399 13.6755C28.4921 13.8682 28.5756 14.0141 28.6904 14.1079C28.8052 14.2016 28.9305 14.2485 29.0714 14.2485C29.1967 14.2485 29.3011 14.2069 29.3846 14.1235C29.4733 14.0401 29.515 13.9359 29.515 13.8161C29.515 13.7067 29.4785 13.6077 29.4054 13.5296C29.3324 13.4462 29.1967 13.342 29.0036 13.2222C28.7843 13.0868 28.6278 12.9617 28.5338 12.8419C28.4451 12.7273 28.3981 12.5867 28.3981 12.4304C28.3981 12.2168 28.4712 12.0448 28.6225 11.9042C28.7739 11.7687 28.9827 11.6958 29.2593 11.6958C29.3793 11.6958 29.4785 11.7062 29.5672 11.7323C29.656 11.7531 29.7186 11.7844 29.7656 11.8208C29.7969 11.8677 29.8282 11.9407 29.8491 12.0396C29.87 12.1386 29.8856 12.2324 29.8856 12.321C29.8856 12.3522 29.8647 12.3626 29.823 12.3626C29.7969 12.3626 29.7708 12.3626 29.7447 12.347C29.7186 12.3314 29.7029 12.321 29.7029 12.3053C29.6455 12.1595 29.5725 12.0553 29.489 11.9823C29.4054 11.9094 29.3063 11.8729 29.1862 11.8729C29.0766 11.8729 28.9827 11.9094 28.8992 11.9771C28.8157 12.0448 28.7791 12.1334 28.7791 12.248C28.7791 12.347 28.8104 12.4356 28.8731 12.5137C28.9357 12.5867 29.0505 12.6752 29.2175 12.769C29.4837 12.9201 29.6716 13.0555 29.7812 13.1805C29.8908 13.3004 29.9483 13.4567 29.9483 13.639C29.9483 13.8682 29.8595 14.0558 29.6873 14.1964C29.515 14.3371 29.2906 14.4152 29.014 14.4152C28.8835 14.4152 28.7583 14.3944 28.6434 14.3527L28.6382 14.3579Z" fill="white"/>
<path d="M30.8619 14.2223C30.747 14.092 30.6896 13.9045 30.6896 13.6596V12.1853C30.6896 12.1488 30.674 12.1228 30.6479 12.1071C30.6218 12.0915 30.5644 12.0863 30.4861 12.0863H30.4495C30.4495 12.0863 30.4078 12.0759 30.3973 12.0498C30.3817 12.0238 30.3765 11.9925 30.3765 11.9613C30.3765 11.9508 30.3817 11.9404 30.3921 11.9248C30.4026 11.9092 30.413 11.8987 30.4234 11.8883C30.6531 11.7268 30.841 11.5601 30.9871 11.383C31.0028 11.3622 31.0184 11.3413 31.0393 11.3309C31.055 11.3153 31.0759 11.3101 31.0967 11.3101C31.1541 11.3101 31.1855 11.3309 31.1802 11.3778L31.1489 11.6643V11.6904C31.1489 11.7268 31.1594 11.7529 31.1855 11.7685C31.2116 11.7841 31.2481 11.7893 31.3003 11.7893H32.0258C32.0258 11.7893 32.0571 11.805 32.0675 11.831C32.078 11.8571 32.0884 11.8935 32.0884 11.93C32.0884 11.9665 32.0832 12.0029 32.0675 12.0394C32.0571 12.0759 32.0414 12.0915 32.0258 12.0915H31.3942C31.2794 12.0915 31.2063 12.1019 31.1802 12.1176C31.1541 12.1332 31.1385 12.1853 31.1385 12.2686V13.5189C31.1385 13.6909 31.175 13.8263 31.2481 13.9201C31.3212 14.0139 31.4255 14.0608 31.5612 14.0608C31.6813 14.0608 31.7752 14.0503 31.8431 14.0347C31.9109 14.0191 31.9736 13.9878 32.031 13.9461L32.0571 13.9357C32.0884 13.9357 32.1041 13.967 32.1041 14.0243C32.1041 14.0503 32.0675 14.0972 31.9892 14.1597C31.9109 14.2223 31.817 14.2848 31.7074 14.3317C31.5978 14.3838 31.4777 14.4098 31.3629 14.4098C31.1489 14.4098 30.9871 14.3473 30.8723 14.217L30.8619 14.2223Z" fill="white"/>
<path d="M33.3256 14.29C33.3256 14.2587 33.3412 14.2379 33.3778 14.2223C33.4091 14.2066 33.4665 14.191 33.5344 14.1754C33.7014 14.1441 33.8214 14.092 33.9049 14.0191C33.9884 13.941 34.0302 13.8316 34.0302 13.6805V11.2163C34.0302 10.935 34.0198 10.7422 34.0041 10.6432C33.9832 10.5443 33.9519 10.4922 33.8997 10.4817C33.8423 10.4713 33.7797 10.4609 33.7066 10.4609C33.6335 10.4609 33.5448 10.4609 33.4509 10.4609H33.1534C33.0437 10.4609 32.9394 10.4817 32.8402 10.5234C32.741 10.5651 32.6732 10.6276 32.6314 10.7058C32.6053 10.7579 32.5688 10.81 32.5114 10.8621C32.4592 10.9194 32.4122 10.9454 32.3705 10.9454C32.3391 10.9454 32.3235 10.9194 32.3235 10.8621C32.3235 10.8204 32.3339 10.7787 32.3548 10.737C32.4122 10.6224 32.4592 10.5182 32.4801 10.4244C32.5062 10.3307 32.527 10.2108 32.5479 10.0702C32.5584 9.9712 32.5949 9.92432 32.6575 9.92432C32.668 9.92432 32.6941 9.94516 32.7306 9.99204C32.7671 10.0389 32.7932 10.0806 32.8141 10.1275C32.8402 10.1692 32.8976 10.2004 32.9811 10.2213C33.0698 10.2421 33.1586 10.2525 33.2577 10.2525H35.4968C35.7578 10.2525 35.9613 10.2213 36.1023 10.1588C36.1284 10.1483 36.1649 10.1223 36.2119 10.0858C36.2588 10.0493 36.3058 10.0337 36.3476 10.0337C36.358 10.0337 36.3684 10.0493 36.3789 10.0806C36.3893 10.1119 36.3893 10.1431 36.3893 10.1796C36.3893 10.1952 36.3789 10.2577 36.3632 10.3567L36.3267 10.5495C36.311 10.6016 36.3006 10.6641 36.3006 10.7318V10.81C36.3006 10.8516 36.2901 10.8985 36.2745 10.9454C36.2536 10.9923 36.2327 11.0131 36.2014 11.0131C36.1701 11.0131 36.1492 10.9923 36.1336 10.9506C36.1179 10.9089 36.097 10.8412 36.0814 10.7527C36.0657 10.6641 36.0135 10.5859 35.9248 10.5338C35.8361 10.4817 35.6952 10.4557 35.4968 10.4557H34.8548C34.7505 10.4557 34.6774 10.4661 34.6356 10.4922C34.5939 10.5182 34.5678 10.5807 34.5573 10.6745C34.5469 10.7683 34.5365 10.9402 34.5365 11.1851V13.6805C34.5365 13.8263 34.5782 13.941 34.6617 14.0191C34.7452 14.0972 34.8705 14.1493 35.0375 14.1754C35.1106 14.1858 35.1628 14.2014 35.1941 14.2223C35.2254 14.2379 35.2463 14.264 35.2463 14.29C35.2463 14.3369 35.1837 14.3577 35.0636 14.3577C34.907 14.3577 34.7713 14.3525 34.6565 14.3369C34.5208 14.3265 34.406 14.3265 34.3173 14.3265C34.2129 14.3265 34.0824 14.3265 33.931 14.3369C33.8058 14.3473 33.6596 14.3577 33.503 14.3577C33.3778 14.3577 33.3204 14.3369 33.3204 14.29H33.3256Z" fill="white"/>
<path d="M36.5926 14.2484C36.3995 14.139 36.2482 13.9879 36.1333 13.7899C36.0185 13.5972 35.9663 13.3784 35.9663 13.1335C35.9663 12.8886 36.0289 12.6698 36.1542 12.4458C36.2795 12.2218 36.4465 12.0395 36.6605 11.8988C36.8745 11.7582 37.1093 11.6904 37.3546 11.6904C37.5999 11.6904 37.8192 11.7477 38.0175 11.8676C38.2158 11.9822 38.3724 12.1385 38.4924 12.3364C38.6125 12.5344 38.6647 12.7428 38.6647 12.9668C38.6647 13.2221 38.6073 13.4565 38.4977 13.6805C38.3881 13.8993 38.2263 14.0764 38.0071 14.2119C37.7931 14.3473 37.5321 14.4099 37.2242 14.4099C36.9893 14.4099 36.7753 14.3526 36.5822 14.2432L36.5926 14.2484ZM38.0227 13.8785C38.1062 13.7118 38.148 13.4617 38.148 13.1283C38.148 12.9251 38.1114 12.7271 38.0331 12.5396C37.9549 12.3468 37.8505 12.1958 37.7148 12.0759C37.5791 11.9561 37.4225 11.8988 37.2503 11.8988C37.125 11.8988 37.0206 11.9197 36.9319 11.9561C36.8431 11.9926 36.7596 12.0603 36.6918 12.1541C36.6135 12.2531 36.5613 12.3729 36.5352 12.5136C36.5091 12.6542 36.4935 12.8157 36.4935 12.9981C36.4935 13.2116 36.53 13.4096 36.6083 13.5972C36.6866 13.7847 36.791 13.9358 36.9214 14.0556C37.0571 14.1702 37.2033 14.2275 37.3703 14.2275C37.6887 14.2275 37.9079 14.1129 38.0279 13.8785H38.0227Z" fill="white"/>
<path d="M39.0457 14.2743C39.0457 14.243 39.0561 14.2222 39.077 14.2118C39.0978 14.2013 39.1344 14.1857 39.1918 14.1701C39.2805 14.1492 39.3484 14.1232 39.3954 14.0919C39.4423 14.0607 39.4632 14.0086 39.4632 13.9304V12.5655C39.4632 12.4301 39.4475 12.3259 39.4214 12.2529C39.3901 12.18 39.3275 12.1331 39.2283 12.1071C39.1866 12.0966 39.1657 12.0654 39.1657 12.0237C39.1657 11.9768 39.1866 11.9508 39.2231 11.9456C39.3536 11.9091 39.4632 11.8674 39.5571 11.8205C39.6511 11.7736 39.7503 11.7059 39.8599 11.6226C39.8912 11.6017 39.9121 11.5913 39.9277 11.5913C39.9486 11.5913 39.959 11.6069 39.959 11.633L39.9486 11.7684C39.9486 11.8049 39.9382 11.8414 39.9382 11.8935C39.9382 11.9404 39.9329 11.9925 39.9329 12.0445C39.9329 12.0862 39.9329 12.1123 39.9434 12.1227C40.0947 11.9768 40.2565 11.8726 40.4183 11.7997C40.5853 11.732 40.768 11.6955 40.9664 11.6955C41.1647 11.6955 41.3421 11.7789 41.4778 11.9508C41.6135 12.1227 41.6866 12.3311 41.6866 12.5811V13.9356C41.6866 14.0138 41.7075 14.0659 41.7545 14.0919C41.7962 14.118 41.8693 14.1492 41.9632 14.1753C42.0154 14.1909 42.052 14.2066 42.0728 14.2222C42.0937 14.2378 42.1094 14.2586 42.1094 14.2899C42.1094 14.3264 42.0676 14.3472 41.9841 14.3472C41.8693 14.3472 41.7806 14.342 41.7127 14.3264C41.6292 14.316 41.5509 14.316 41.4778 14.316C41.41 14.316 41.3317 14.316 41.2378 14.3264C41.1699 14.3368 41.076 14.3472 40.9559 14.3472C40.8724 14.3472 40.8307 14.3264 40.8307 14.2899C40.8307 14.2586 40.8411 14.2378 40.8672 14.2222C40.8933 14.2066 40.9298 14.1909 40.9768 14.1753C41.0707 14.144 41.1386 14.118 41.1856 14.0919C41.2273 14.0659 41.2534 14.0138 41.2534 13.9356V12.602C41.2534 12.4196 41.2012 12.2738 41.0968 12.1696C40.9925 12.0654 40.8515 12.0081 40.6793 12.0029C40.4183 12.0029 40.1782 12.0862 39.9747 12.2581C39.9382 12.2946 39.9225 12.3415 39.9225 12.404V13.9356C39.9225 14.0138 39.9434 14.0659 39.9903 14.0971C40.0373 14.1284 40.1052 14.1545 40.1939 14.1753C40.2461 14.1857 40.2826 14.2013 40.3035 14.217C40.3244 14.2326 40.34 14.2534 40.34 14.2795C40.34 14.3264 40.2983 14.3472 40.2148 14.3472C40.1052 14.3472 40.0112 14.342 39.9434 14.3264C39.8494 14.316 39.7711 14.316 39.7033 14.316C39.6354 14.316 39.5571 14.316 39.4632 14.3264C39.3953 14.3368 39.3066 14.3472 39.1918 14.3472C39.1083 14.3472 39.0665 14.3264 39.0665 14.2795L39.0457 14.2743Z" fill="white"/>
<path d="M43.0018 14.2484C42.8244 14.1338 42.6887 13.9723 42.5895 13.7639C42.4903 13.5555 42.4434 13.3106 42.4434 13.0345C42.4434 12.7949 42.5008 12.5761 42.6104 12.3677C42.7252 12.1593 42.8713 11.9978 43.0592 11.8728C43.2471 11.7477 43.4507 11.6904 43.6699 11.6904C43.9256 11.6904 44.1344 11.7634 44.2962 11.9144C44.458 12.0655 44.5415 12.2583 44.5415 12.4875C44.5415 12.6177 44.4789 12.6855 44.3484 12.6855H43.007C42.9496 12.6855 42.9079 12.7011 42.8818 12.7324C42.8557 12.7636 42.8452 12.8261 42.8452 12.9199C42.8452 13.1179 42.887 13.3054 42.9757 13.4721C43.0645 13.644 43.1793 13.7743 43.3306 13.8733C43.482 13.9723 43.6438 14.0244 43.8265 14.0244C44.077 14.0244 44.2858 13.9306 44.4476 13.7378C44.4737 13.7014 44.4945 13.6857 44.5154 13.6857C44.5467 13.6857 44.5676 13.7066 44.5676 13.7482C44.5676 13.8264 44.5311 13.9202 44.4528 14.0139C44.3588 14.139 44.2336 14.2327 44.0822 14.3005C43.9309 14.3682 43.7691 14.4047 43.5968 14.4047C43.3672 14.4047 43.1636 14.3473 42.9914 14.2327L43.0018 14.2484ZM43.602 12.4979C43.8004 12.4979 43.957 12.4875 44.0718 12.4667C44.1083 12.4667 44.124 12.4146 44.124 12.326C44.124 12.201 44.0718 12.0968 43.9622 12.0134C43.8526 11.9249 43.7273 11.8832 43.5759 11.8832C43.482 11.8832 43.3881 11.9144 43.2889 11.9718C43.1897 12.0291 43.1062 12.102 43.0436 12.1853C42.9809 12.2687 42.9496 12.3573 42.9496 12.4406C42.9496 12.4823 42.9757 12.5031 43.0279 12.5031H43.6073L43.602 12.4979Z" fill="white"/>
</g>
<g clip-path="url(#clip1_698_5449)">
<path d="M72 59.938C72 59.5315 72.2323 59.212 72.6968 58.9797C73.1613 58.7474 73.8871 58.5441 74.8743 58.3699C77.0808 57.9633 78.605 57.2809 79.447 56.3226C80.2889 55.3643 80.7099 53.8397 80.7099 51.7488V14.9844C80.7099 12.1966 80.347 10.1347 79.6212 8.79892C78.8953 7.46308 77.4872 6.62093 75.3969 6.27245C73.4807 5.92398 72.5226 5.34318 72.5226 4.53006C72.5226 3.89119 73.3646 3.57175 75.0485 3.57175C77.1969 3.57175 79.7808 3.62983 82.8003 3.74599L90.0295 3.83311H101.004C102.63 3.83311 104.488 3.65887 106.578 3.31039C108.088 3.07807 109.104 2.96191 109.627 2.96191C110.614 2.96191 111.137 3.22327 111.195 3.74599C111.311 4.61718 111.412 6.04013 111.499 8.01484C111.587 9.98955 111.63 11.4996 111.63 12.5451C111.63 13.7647 111.369 14.3746 110.846 14.3746C110.556 14.3746 110.295 14.2729 110.062 14.0696C109.83 13.8664 109.656 13.6195 109.54 13.3291C109.017 11.3544 108.349 9.93147 107.536 9.06027C106.143 7.49212 104.198 6.70805 101.701 6.70805H90.6392C89.4198 6.70805 88.6359 7.07105 88.2875 7.79704C87.9391 8.52304 87.7359 9.61203 87.6778 11.064C87.6198 12.516 87.5907 15.42 87.5907 19.776C87.5907 23.8996 87.6198 26.6584 87.6778 28.0523C87.6778 29.3301 87.9682 29.9689 88.5488 29.9689C90.1166 29.9689 92.236 29.9109 94.907 29.7947L98.6523 29.7076C99.8717 29.7076 100.946 29.3736 101.875 28.7057C102.804 28.0378 103.501 27.1811 103.965 26.1357C104.081 25.9034 104.328 25.5984 104.706 25.2209C105.083 24.8434 105.359 24.6547 105.533 24.6547C105.765 24.6547 106.027 24.7999 106.317 25.0903C106.607 25.3806 106.723 25.7001 106.665 26.0486C106.491 28.0233 106.404 29.6205 106.404 30.8401C106.404 32.234 106.491 34.2087 106.665 36.7643C106.665 37.7516 106.404 38.2453 105.882 38.2453C105.359 38.2453 104.923 38.0275 104.575 37.5919C104.227 37.1563 103.994 36.7062 103.878 36.2415C103.472 35.0219 102.891 34.1362 102.136 33.5844C101.381 33.0326 100.598 32.7568 99.7846 32.7568L95.4296 32.6696C92.8747 32.6696 90.9876 32.7277 89.7682 32.8439C88.3746 32.96 87.6778 33.686 87.6778 35.0219C87.6778 42.2818 87.7649 47.8284 87.9391 51.6617C88.0553 53.6364 88.5198 55.161 89.3327 56.2354C90.1456 57.3099 91.5973 58.0214 93.6877 58.3699C94.6748 58.5441 95.4006 58.7474 95.8651 58.9797C96.3297 59.212 96.5619 59.5315 96.5619 59.938C96.5619 60.5769 95.72 60.8963 94.0361 60.8963C92.1779 60.8963 90.494 60.7802 88.9843 60.5479C87.9391 60.3736 86.7778 60.2865 85.5004 60.2865C84.5132 60.2865 83.5116 60.3301 82.4954 60.4172C81.4793 60.5043 80.7389 60.5479 80.2744 60.5479C78.0679 60.7802 76.1517 60.8963 74.5259 60.8963C72.9 60.8963 72 60.5769 72 59.938Z" fill="#F9F7F1"/>
<path d="M122.996 59.4156C120.354 57.9055 118.264 55.8146 116.725 53.143C115.187 50.4713 114.417 47.4802 114.417 44.1697C114.417 40.8591 115.274 37.839 116.987 34.7608C118.7 31.6825 121.022 29.1851 123.955 27.2685C126.887 25.3519 130.066 24.3936 133.492 24.3936C136.918 24.3936 139.821 25.1922 142.55 26.7893C145.279 28.3865 147.442 30.5355 149.039 33.2362C150.636 35.9369 151.434 38.8263 151.434 41.9046C151.434 45.3893 150.679 48.6418 149.17 51.6619C147.66 54.6821 145.424 57.1069 142.463 58.9364C139.502 60.7659 135.931 61.6807 131.75 61.6807C128.556 61.6807 125.638 60.9256 122.996 59.4156ZM142.55 54.2755C143.712 52.0104 144.292 48.5837 144.292 43.9954C144.292 41.2076 143.77 38.5069 142.724 35.8933C141.679 33.2797 140.228 31.1598 138.369 29.5336C136.511 27.9074 134.392 27.0943 132.011 27.0943C130.327 27.0943 128.876 27.3556 127.656 27.8783C126.437 28.4011 125.334 29.3013 124.347 30.579C123.301 31.9149 122.576 33.5556 122.169 35.5013C121.763 37.447 121.559 39.6685 121.559 42.1659C121.559 45.0699 122.082 47.8142 123.127 50.3987C124.172 52.9833 125.609 55.0741 127.439 56.6713C129.268 58.2685 131.314 59.0671 133.579 59.0671C137.934 59.0671 140.924 57.4699 142.55 54.2755Z" fill="#F9F7F1"/>
<path d="M157.009 59.7639C157.009 59.3574 157.154 59.0815 157.444 58.9363C157.734 58.7911 158.257 58.6023 159.012 58.37C161.218 57.8473 162.322 56.7438 162.322 55.0595V36.3288C162.322 34.5864 162.06 33.178 161.538 32.1035C161.015 31.029 160.086 30.3466 158.751 30.0562C158.518 29.9981 158.315 29.8529 158.141 29.6206C157.967 29.3883 157.88 29.156 157.88 28.9236C157.88 28.6913 157.967 28.4735 158.141 28.2702C158.315 28.067 158.489 27.9363 158.663 27.8782C160.986 27.1232 163.86 25.7002 167.286 23.6093C167.925 23.2028 168.36 22.9995 168.593 22.9995C168.883 22.9995 169.028 23.2028 169.028 23.6093C169.028 25.1775 168.941 27.3555 168.767 30.1433C168.767 30.2595 168.825 30.3175 168.941 30.3175C170.393 28.5752 172.019 27.1522 173.819 26.0487C175.619 24.9452 177.332 24.3934 178.958 24.3934C180.177 24.3934 181.179 24.6548 181.962 25.1775C182.746 25.7002 183.138 26.3681 183.138 27.1812C183.138 28.1105 182.775 29.0979 182.05 30.1433C181.324 31.1887 180.554 31.7115 179.741 31.7115C179.161 31.7115 178.348 31.4501 177.303 30.9274C177.128 30.8693 176.736 30.7241 176.127 30.4918C175.517 30.2595 174.98 30.1433 174.515 30.1433C172.832 30.1433 171.409 30.6951 170.248 31.7986C169.086 32.9021 168.506 34.7897 168.506 37.4613V55.0595C168.506 55.8145 168.883 56.4389 169.638 56.9325C170.393 57.4262 171.554 57.9054 173.122 58.37C173.819 58.6023 174.327 58.8056 174.646 58.9798C174.965 59.1541 175.125 59.4154 175.125 59.7639C175.125 60.4028 174.544 60.7222 173.383 60.7222C171.815 60.7222 170.451 60.6351 169.29 60.4609C167.896 60.3447 166.735 60.2866 165.806 60.2866C164.876 60.2866 163.773 60.3447 162.496 60.4609C161.567 60.6351 160.318 60.7222 158.751 60.7222C157.589 60.7222 157.009 60.4028 157.009 59.7639Z" fill="#F9F7F1"/>
<path d="M193.808 59.4156C191.398 57.8474 189.526 55.6259 188.19 52.7509C186.855 49.876 186.187 46.5509 186.187 42.7758C186.187 39.5233 186.956 36.4741 188.495 33.6282C190.034 30.7823 192.08 28.5317 194.635 26.8765C197.19 25.2212 199.977 24.3936 202.997 24.3936C206.481 24.3936 209.341 25.4245 211.576 27.4863C213.812 29.5481 214.929 32.1762 214.929 35.3706C214.929 37.1711 214.058 38.0713 212.316 38.0713H193.939C193.126 38.0713 192.56 38.2891 192.24 38.7247C191.921 39.1603 191.761 40.017 191.761 41.2947C191.761 44.0245 192.356 46.5509 193.547 48.8741C194.737 51.1973 196.363 53.0413 198.424 54.4062C200.486 55.7711 202.736 56.4535 205.174 56.4535C208.6 56.4535 211.445 55.1467 213.71 52.5331C214.058 52.0685 214.378 51.8362 214.668 51.8362C215.133 51.8362 215.365 52.1266 215.365 52.7074C215.365 53.8109 214.842 55.0306 213.797 56.3664C212.52 58.0507 210.836 59.372 208.745 60.3303C206.655 61.2886 204.449 61.7678 202.126 61.7678C198.99 61.7678 196.218 60.9837 193.808 59.4156ZM202.039 35.3706C204.768 35.3706 206.916 35.2254 208.484 34.935C208.949 34.8769 209.181 34.2381 209.181 33.0184C209.181 31.3341 208.441 29.8966 206.96 28.706C205.479 27.5153 203.723 26.92 201.69 26.92C200.413 26.92 199.092 27.3121 197.727 28.0961C196.363 28.8802 195.245 29.853 194.374 31.0146C193.503 32.1762 193.068 33.3378 193.068 34.4994C193.068 35.0802 193.416 35.3706 194.113 35.3706H202.039Z" fill="#F9F7F1"/>
<path d="M225.033 60.853C223.465 60.3013 222.13 59.5317 221.026 58.5444C220.562 57.6151 220.243 55.2919 220.068 51.5748C220.068 51.0521 220.446 50.7907 221.201 50.7907C221.839 50.7907 222.188 50.994 222.246 51.4006C222.943 54.0722 224.089 56.0615 225.686 57.3683C227.283 58.6751 229.011 59.3285 230.869 59.3285C232.553 59.3285 233.99 58.7622 235.18 57.6296C236.37 56.4971 236.966 55.0886 236.966 53.4043C236.966 51.8943 236.457 50.5729 235.441 49.4404C234.425 48.3078 232.582 46.8994 229.911 45.2151C226.891 43.3566 224.757 41.6287 223.509 40.0315C222.26 38.4343 221.636 36.5612 221.636 34.4123C221.636 31.5083 222.652 29.1125 224.685 27.2249C226.717 25.3373 229.62 24.3936 233.395 24.3936C235.02 24.3936 236.428 24.5533 237.619 24.8727C238.809 25.1921 239.724 25.5842 240.362 26.0488C240.827 26.6877 241.219 27.6896 241.538 29.0544C241.858 30.4193 242.017 31.7116 242.017 32.9313C242.017 33.3378 241.727 33.5411 241.146 33.5411C240.798 33.5411 240.45 33.4685 240.101 33.3233C239.753 33.1781 239.55 32.9893 239.491 32.757C238.679 30.7823 237.706 29.3013 236.574 28.3139C235.441 27.3266 234.062 26.8329 232.436 26.8329C230.927 26.8329 229.62 27.2975 228.517 28.2268C227.414 29.1561 226.862 30.4048 226.862 31.9729C226.862 33.3669 227.283 34.572 228.125 35.5884C228.967 36.6048 230.549 37.7809 232.872 39.1167C236.53 41.2076 239.114 43.0807 240.624 44.7359C242.133 46.3912 242.888 48.4966 242.888 51.0521C242.888 54.1884 241.698 56.7439 239.317 58.7186C236.937 60.6933 233.859 61.6807 230.085 61.6807C228.285 61.6807 226.601 61.4048 225.033 60.853Z" fill="#F9F7F1"/>
<path d="M255.431 59.0234C253.863 57.2519 253.079 54.6819 253.079 51.3133V31.1016C253.079 30.5789 252.89 30.2304 252.513 30.0562C252.135 29.8819 251.395 29.7948 250.292 29.7948H249.769C249.479 29.7948 249.232 29.6206 249.029 29.2721C248.825 28.9236 248.724 28.517 248.724 28.0524C248.724 27.9362 248.796 27.7765 248.942 27.5732C249.087 27.37 249.217 27.2102 249.334 27.0941C252.469 24.8871 255.053 22.5639 257.085 20.1245C257.318 19.8341 257.55 19.5873 257.782 19.384C258.014 19.1807 258.276 19.0791 258.566 19.0791C259.379 19.0791 259.756 19.3985 259.698 20.0374L259.263 23.9578V24.3063C259.263 24.829 259.437 25.1775 259.785 25.3517C260.134 25.5259 260.656 25.6131 261.353 25.6131H271.283C271.515 25.6131 271.718 25.8018 271.892 26.1793C272.066 26.5569 272.154 27.007 272.154 27.5297C272.154 28.0524 272.066 28.5606 271.892 29.0543C271.718 29.548 271.515 29.7948 271.283 29.7948H262.66C261.092 29.7948 260.119 29.911 259.742 30.1433C259.364 30.3756 259.176 31.0725 259.176 32.2341V49.3967C259.176 51.7779 259.669 53.622 260.656 54.9288C261.644 56.2355 263.066 56.8889 264.924 56.8889C266.55 56.8889 267.842 56.7728 268.8 56.5405C269.758 56.3081 270.615 55.9016 271.37 55.3208L271.718 55.1465C272.124 55.1465 272.328 55.5531 272.328 56.3662C272.328 56.7147 271.805 57.3391 270.76 58.2393C269.715 59.1395 268.423 59.9381 266.884 60.6351C265.345 61.332 263.763 61.6805 262.137 61.6805C259.234 61.6805 256.998 60.7948 255.431 59.0234Z" fill="#F9F7F1"/>
<path d="M289.138 59.9382C289.138 59.5316 289.37 59.2122 289.835 58.9799C290.299 58.7475 291.025 58.5443 292.012 58.37C294.277 57.9635 295.975 57.2375 297.107 56.192C298.24 55.1466 298.806 53.6075 298.806 51.5747V17.7724C298.806 13.881 298.675 11.2529 298.414 9.88806C298.153 8.52318 297.674 7.78267 296.977 7.66651C296.222 7.49227 295.336 7.39063 294.32 7.36159C293.304 7.33255 292.128 7.31803 290.793 7.31803H286.699C285.189 7.31803 283.767 7.60843 282.431 8.18923C281.096 8.77002 280.138 9.61218 279.557 10.7157C279.209 11.4126 278.671 12.1386 277.946 12.8937C277.22 13.6487 276.567 14.0262 275.986 14.0262C275.579 14.0262 275.376 13.6487 275.376 12.8937C275.376 12.3129 275.521 11.7321 275.812 11.1513C276.625 9.58314 277.205 8.14567 277.554 6.83888C277.902 5.53208 278.221 3.92037 278.512 2.00375C278.686 0.667916 279.18 0 279.992 0C280.167 0 280.501 0.319438 280.994 0.958314C281.488 1.59719 281.88 2.20703 282.17 2.78782C282.518 3.36862 283.288 3.80422 284.478 4.09461C285.668 4.38501 286.931 4.53021 288.267 4.53021H318.926C322.526 4.53021 325.284 4.09461 327.2 3.22342C327.549 3.04918 328.057 2.71522 328.724 2.22155C329.392 1.72787 330.016 1.48103 330.597 1.48103C330.771 1.48103 330.916 1.69883 331.033 2.13443C331.149 2.57002 331.207 3.02014 331.207 3.48478C331.207 3.7171 331.091 4.53021 330.858 5.92412L330.336 8.5377C330.103 9.23466 329.987 10.0768 329.987 11.0642V12.1096C329.987 12.6904 329.857 13.3002 329.595 13.9391C329.334 14.578 329 14.8974 328.594 14.8974C328.187 14.8974 327.868 14.6215 327.636 14.0698C327.403 13.518 327.171 12.6033 326.939 11.3255C326.707 10.0478 325.981 9.06042 324.761 8.36347C323.542 7.66651 321.597 7.31803 318.926 7.31803H310.129C308.677 7.31803 307.675 7.49227 307.124 7.84075C306.572 8.18923 306.209 9.01686 306.035 10.3237C305.861 11.6304 305.774 13.9681 305.774 17.3368V51.5747C305.774 53.6075 306.354 55.1466 307.516 56.192C308.677 57.2375 310.39 57.9635 312.655 58.37C313.642 58.5443 314.368 58.7475 314.832 58.9799C315.297 59.2122 315.529 59.5316 315.529 59.9382C315.529 60.577 314.687 60.8965 313.003 60.8965C310.855 60.8965 308.996 60.8094 307.429 60.6351C305.571 60.519 304.032 60.4609 302.812 60.4609C301.361 60.4609 299.59 60.519 297.499 60.6351C295.757 60.8094 293.812 60.8965 291.664 60.8965C289.98 60.8965 289.138 60.577 289.138 59.9382Z" fill="#F9F7F1"/>
<path d="M368.311 59.7639C368.311 59.3574 368.456 59.0815 368.746 58.9363C369.037 58.7911 369.559 58.6023 370.314 58.37C371.534 58.0796 372.463 57.7166 373.101 57.281C373.74 56.8454 374.059 56.1049 374.059 55.0595V36.3288C374.059 34.4702 373.856 33.0473 373.45 32.0599C373.043 31.0726 372.172 30.4047 370.837 30.0562C370.256 29.8819 369.966 29.5044 369.966 28.9236C369.966 28.2848 370.227 27.9363 370.75 27.8782C372.55 27.4136 374.074 26.8328 375.322 26.1358C376.571 25.4389 377.95 24.5386 379.46 23.4351C379.866 23.1447 380.185 22.9995 380.418 22.9995C380.708 22.9995 380.853 23.2028 380.853 23.6093L380.679 25.4389C380.621 25.9035 380.563 26.4698 380.505 27.1377C380.447 27.8056 380.418 28.488 380.418 29.185C380.418 29.7658 380.476 30.1143 380.592 30.2304C382.682 28.2557 384.86 26.7892 387.124 25.8309C389.389 24.8726 391.886 24.3934 394.615 24.3934C397.344 24.3934 399.739 25.555 401.626 27.8782C403.513 30.2014 404.457 33.0763 404.457 36.503V55.0595C404.457 56.1049 404.762 56.8164 405.372 57.1939C405.981 57.5714 406.925 57.9634 408.202 58.37C408.899 58.6023 409.407 58.8201 409.727 59.0234C410.046 59.2267 410.206 59.5316 410.206 59.9381C410.206 60.4609 409.625 60.7222 408.464 60.7222C406.896 60.7222 405.647 60.6351 404.718 60.4609C403.557 60.3447 402.483 60.2866 401.496 60.2866C400.567 60.2866 399.463 60.3447 398.186 60.4609C397.257 60.6351 395.979 60.7222 394.354 60.7222C393.192 60.7222 392.612 60.4609 392.612 59.9381C392.612 59.5316 392.771 59.2267 393.091 59.0234C393.41 58.8201 393.918 58.6023 394.615 58.37C395.892 57.9634 396.836 57.5714 397.446 57.1939C398.055 56.8164 398.36 56.1049 398.36 55.0595V36.7644C398.36 34.267 397.649 32.2923 396.226 30.8403C394.804 29.3883 392.902 28.6332 390.521 28.5752C386.921 28.5752 383.698 29.7367 380.853 32.0599C380.389 32.5246 380.156 33.1925 380.156 34.0637V55.0595C380.156 56.1049 380.476 56.8454 381.114 57.281C381.753 57.7166 382.682 58.0796 383.902 58.37C384.598 58.5442 385.107 58.733 385.426 58.9363C385.745 59.1396 385.905 59.4154 385.905 59.7639C385.905 60.4028 385.324 60.7222 384.163 60.7222C382.653 60.7222 381.405 60.6351 380.418 60.4609C379.14 60.3447 378.037 60.2866 377.108 60.2866C376.179 60.2866 375.076 60.3447 373.798 60.4609C372.869 60.6351 371.621 60.7222 370.053 60.7222C368.892 60.7222 368.311 60.4028 368.311 59.7639Z" fill="#F9F7F1"/>
<path d="M422.443 59.4156C420.033 57.8474 418.161 55.6259 416.825 52.7509C415.49 49.876 414.822 46.5509 414.822 42.7758C414.822 39.5233 415.591 36.4741 417.13 33.6282C418.669 30.7823 420.715 28.5317 423.27 26.8765C425.825 25.2212 428.612 24.3936 431.632 24.3936C435.116 24.3936 437.976 25.4245 440.211 27.4863C442.447 29.5481 443.564 32.1762 443.564 35.3706C443.564 37.1711 442.693 38.0713 440.951 38.0713H422.574C421.761 38.0713 421.195 38.2891 420.875 38.7247C420.556 39.1603 420.396 40.017 420.396 41.2947C420.396 44.0245 420.991 46.5509 422.182 48.8741C423.372 51.1973 424.998 53.0413 427.059 54.4062C429.121 55.7711 431.371 56.4535 433.809 56.4535C437.235 56.4535 440.08 55.1467 442.345 52.5331C442.693 52.0685 443.013 51.8362 443.303 51.8362C443.768 51.8362 444 52.1266 444 52.7074C444 53.8109 443.477 55.0306 442.432 56.3664C441.155 58.0507 439.471 59.372 437.38 60.3303C435.29 61.2886 433.084 61.7678 430.761 61.7678C427.625 61.7678 424.853 60.9837 422.443 59.4156ZM430.674 35.3706C433.403 35.3706 435.551 35.2254 437.119 34.935C437.584 34.8769 437.816 34.2381 437.816 33.0184C437.816 31.3341 437.076 29.8966 435.595 28.706C434.114 27.5153 432.358 26.92 430.325 26.92C429.048 26.92 427.727 27.3121 426.362 28.0961C424.998 28.8802 423.88 29.853 423.009 31.0146C422.138 32.1762 421.703 33.3378 421.703 34.4994C421.703 35.0802 422.051 35.3706 422.748 35.3706H430.674Z" fill="#F9F7F1"/>
<path d="M358.57 33.2942C364.159 32.7134 366.119 39.5232 362.083 42.8193C362.562 43.4146 363.085 43.8357 363.477 44.5326C366.177 49.3242 361.357 54.2755 356.582 51.7345C353.794 49.3242 350.557 47.001 347.901 44.4455C346.914 43.5017 346.696 42.616 347.596 41.4834C350.412 39.3345 352.996 36.6193 355.812 34.4848C356.64 33.846 357.511 33.3958 358.57 33.2942ZM358.57 34.2816C357.786 34.3832 357.032 34.7752 356.422 35.2544C353.983 37.5776 351.051 39.5958 348.626 41.9045C347.93 42.5724 347.712 43.008 348.554 43.734C351.327 45.7523 353.91 48.7143 356.698 50.6455C358.091 51.6183 359.775 51.7345 361.27 50.9069C364.116 49.3242 363.738 45.1424 361.198 43.4872C359.775 44.097 358.512 45.6216 356.843 44.8811C355.057 44.097 355.115 41.3963 356.944 40.7284C358.527 40.1476 359.528 41.3237 360.82 41.9771C360.922 42.0207 361.096 42.1368 361.169 42.1659C361.59 42.2675 362.606 40.801 362.78 40.4235C364.29 37.2727 362.083 33.8895 358.57 34.3106V34.2816ZM360.341 42.8483C359.572 42.3546 358.744 41.7157 357.844 41.4979C356.509 41.4544 356.015 43.1968 357.075 43.8647C358.193 44.5762 359.34 43.2113 360.341 42.8338V42.8483Z" fill="#F9F7F1"/>
<path d="M359.253 52.7801C358.309 52.7801 357.351 52.5333 356.422 52.0541C355.275 51.0813 354.099 50.1375 352.967 49.2227C351.167 47.7708 349.294 46.2752 347.654 44.7071C346.463 43.56 346.347 42.471 347.32 41.2513C348.772 40.1333 350.122 38.9136 351.428 37.7375C352.778 36.5323 354.157 35.2836 355.594 34.1946C356.611 33.4251 357.525 33.0331 358.541 32.9314C361.067 32.6701 363.216 33.8897 364.145 36.1113C364.957 38.0715 364.783 40.8738 362.606 42.863C362.707 42.9647 362.795 43.0808 362.896 43.1825C363.216 43.5309 363.549 43.8794 363.811 44.3586C365.132 46.6963 364.841 49.3679 363.099 51.1684C362.054 52.2429 360.69 52.7946 359.253 52.7946V52.7801ZM358.614 33.6574C357.743 33.7445 356.944 34.093 356.044 34.7754C354.636 35.8354 353.257 37.0841 351.922 38.2747C350.601 39.4654 349.236 40.685 347.828 41.7595C347.175 42.6017 347.247 43.2986 348.162 44.1698C349.773 45.7089 351.631 47.2045 353.417 48.642C354.564 49.5567 355.74 50.5005 356.828 51.4443C358.788 52.4752 361.067 52.1703 362.562 50.6312C364.087 49.063 364.319 46.7398 363.172 44.6925C362.94 44.286 362.664 43.9811 362.359 43.6616C362.17 43.4583 361.996 43.2696 361.807 43.0373L361.59 42.7614L361.865 42.5291C364.014 40.7722 364.217 38.1731 363.477 36.3726C362.664 34.427 360.864 33.4106 358.614 33.6284V33.6574ZM359.194 51.8218C358.265 51.8218 357.336 51.5314 356.494 50.9361C355.028 49.9197 353.591 48.5984 352.212 47.3206C350.964 46.159 349.657 44.9684 348.351 44.0101C347.886 43.6035 347.668 43.2551 347.654 42.8921C347.654 42.4274 347.93 42.0499 348.38 41.6288C349.599 40.4527 350.978 39.3492 352.299 38.2893C353.606 37.2293 354.97 36.1403 356.175 34.9787C356.93 34.3689 357.757 34.0059 358.527 33.9188C360.24 33.7155 361.851 34.3689 362.795 35.6902C363.782 37.0696 363.912 38.8991 363.114 40.5544C363.114 40.5834 361.924 42.6888 361.096 42.4855C360.994 42.4565 360.893 42.4129 360.762 42.3258L360.661 42.2677C360.327 42.108 360.022 41.9047 359.703 41.7014C358.832 41.1497 358.091 40.6705 357.075 41.048C356.248 41.353 355.928 42.1225 355.914 42.7323C355.899 43.3567 356.175 44.1698 357.002 44.5328C358.019 44.9829 358.846 44.4457 359.819 43.8359C360.225 43.589 360.632 43.3131 361.067 43.1389L361.241 43.0663L361.401 43.1679C362.809 44.0972 363.68 45.8251 363.622 47.5675C363.564 49.1356 362.78 50.4715 361.459 51.1975C360.733 51.604 359.964 51.8073 359.209 51.8073L359.194 51.8218ZM359.165 34.6157C358.991 34.6157 358.802 34.6157 358.614 34.6448C357.975 34.7174 357.278 35.0368 356.654 35.545C355.449 36.6921 354.085 37.7956 352.764 38.8701C351.457 39.93 350.093 41.0335 348.888 42.1806C348.655 42.4129 348.38 42.6888 348.38 42.8921C348.38 43.0373 348.525 43.226 348.801 43.4583C350.122 44.4167 351.443 45.6363 352.706 46.7979C354.07 48.0612 355.478 49.3534 356.915 50.3408C358.222 51.241 359.761 51.3281 361.111 50.5876C362.199 49.9778 362.853 48.8743 362.911 47.5675C362.969 46.13 362.286 44.7216 361.183 43.9085C360.864 44.0682 360.544 44.2715 360.211 44.4747C359.209 45.0991 358.077 45.8251 356.712 45.2153C355.754 44.7942 355.159 43.8213 355.188 42.7178C355.217 41.6288 355.856 40.7286 356.828 40.3801C358.178 39.8864 359.165 40.5108 360.109 41.1061C360.399 41.2949 360.69 41.4836 360.994 41.6288L361.125 41.7014C361.125 41.7014 361.241 41.774 361.285 41.7886C361.474 41.7014 362.257 40.685 362.475 40.2349C363.157 38.8265 363.056 37.2729 362.228 36.1113C361.532 35.1384 360.443 34.6012 359.194 34.6012L359.165 34.6157ZM357.743 44.4457C357.452 44.4457 357.177 44.3731 356.886 44.1843C356.262 43.7923 356.001 43.0373 356.233 42.3113C356.451 41.5853 357.075 41.1352 357.815 41.1352C357.83 41.1352 357.859 41.1352 357.873 41.1352C358.744 41.3384 359.456 41.8176 360.138 42.2677L361.154 42.9356L360.472 43.1825C360.211 43.2841 359.906 43.4729 359.586 43.6761C359.049 44.0246 358.411 44.4312 357.743 44.4312V44.4457ZM357.743 41.8612C357.293 41.8612 357.017 42.2096 356.901 42.5291C356.799 42.8485 356.843 43.2986 357.249 43.5745C357.786 43.9085 358.367 43.6035 359.18 43.0808C359.325 42.9937 359.456 42.9066 359.601 42.8195C359.006 42.4129 358.382 42.0209 357.743 41.8757H357.728L357.743 41.8612Z" fill="#F9F7F1"/>
<path d="M340.25 24.1031C342.341 23.8853 344.141 24.7129 345.476 26.2811C347.654 23.4497 352.357 23.1593 354.288 26.4408C355.507 28.5172 355.202 31.0291 353.577 32.786C351.254 35.1528 349.265 38.2745 346.928 40.5832C346.173 41.3237 345.302 41.527 344.388 40.9172C342.079 38.1584 339.437 35.4722 337.245 32.6263C336.607 31.7987 336.157 31.0872 335.968 30.0272C335.474 27.2394 337.376 24.3935 340.265 24.1031H340.25ZM340.178 25.0905C336.897 25.5406 336.012 29.4755 337.913 31.9439C339.96 34.601 342.515 37.0549 344.562 39.741C345.012 40.2783 345.578 40.5106 346.159 39.9734L353.373 31.4502C354.52 29.6497 354.172 27.2104 352.502 25.8745C350.601 24.3354 347.393 25.0905 346.115 27.0942C346.507 28.2848 347.726 29.3012 347.668 30.6371C347.552 33.1345 344.097 33.5991 343.284 31.2905C342.747 29.7223 344.141 28.4446 344.78 27.1378V27.0071C343.676 25.5841 341.963 24.8581 340.163 25.105L340.178 25.0905ZM345.36 27.9509C345.026 29.0108 343.546 30.1579 344.402 31.305C345.317 32.5101 347.233 31.4647 346.536 29.853C346.275 29.2432 345.723 28.5172 345.36 27.9509Z" fill="#F9F7F1"/>
<path d="M345.462 41.6287C345.041 41.6287 344.605 41.4835 344.184 41.2076L344.112 41.135C343.183 40.017 342.181 38.899 341.208 37.81C339.771 36.1983 338.276 34.5285 336.955 32.8442C336.273 31.9584 335.808 31.1889 335.605 30.0854C335.344 28.5753 335.721 27.0072 336.65 25.773C337.536 24.6114 338.799 23.8854 340.221 23.7402C342.21 23.5224 344.054 24.2339 345.476 25.7294C346.696 24.3645 348.525 23.6095 350.397 23.7111C352.183 23.8273 353.722 24.7421 354.607 26.2521C355.899 28.4301 355.594 31.1599 353.838 33.0184C352.706 34.1655 351.646 35.5158 350.615 36.8081C349.526 38.1875 348.394 39.625 347.175 40.8156C346.638 41.3528 346.057 41.6142 345.462 41.6142V41.6287ZM344.62 40.6414C345.331 41.0915 345.999 40.9898 346.667 40.3219C347.843 39.1458 348.96 37.7374 350.049 36.3725C351.094 35.0512 352.168 33.7008 353.315 32.5247C354.854 30.8695 355.115 28.5608 353.983 26.6296C353.214 25.3229 351.922 24.5388 350.354 24.4517C348.568 24.3355 346.841 25.1341 345.781 26.5135L345.505 26.8765L345.215 26.528C343.909 24.9889 342.225 24.2774 340.308 24.4807C339.089 24.6114 338 25.2212 337.245 26.2376C336.433 27.3121 336.099 28.6769 336.331 29.9837C336.505 30.9421 336.897 31.61 337.536 32.4231C338.842 34.0929 340.323 35.7481 341.746 37.3599C342.704 38.4343 343.705 39.5524 344.634 40.6559L344.62 40.6414ZM345.491 40.6414C345.491 40.6414 345.447 40.6414 345.418 40.6414C345.026 40.6123 344.634 40.38 344.286 39.9734C343.255 38.6231 342.079 37.3163 340.947 36.0531C339.815 34.7898 338.654 33.4976 337.623 32.1617C336.534 30.7388 336.244 28.7931 336.912 27.1959C337.478 25.831 338.639 24.9308 340.12 24.7275C342.021 24.4662 343.88 25.2357 345.055 26.7748L345.113 26.862L345.157 27.1959L345.113 27.283C344.939 27.6606 344.692 28.0236 344.46 28.3866C343.865 29.3158 343.299 30.187 343.633 31.1744C344.01 32.2488 344.968 32.5102 345.68 32.4086C346.391 32.3069 347.247 31.7842 347.305 30.6226C347.334 29.9257 346.942 29.2868 346.522 28.6189C346.231 28.1688 345.941 27.7041 345.781 27.2104L345.723 27.0507L345.81 26.9055C346.507 25.802 347.784 25.0034 349.207 24.7711C350.514 24.5533 351.806 24.8582 352.72 25.5987C354.506 27.0362 354.927 29.6933 353.664 31.668L346.42 40.2348C346.101 40.5397 345.796 40.6704 345.462 40.6704L345.491 40.6414ZM340.221 25.439C338.987 25.6133 338.044 26.3247 337.579 27.4573C337.013 28.8221 337.26 30.4919 338.204 31.7116C339.22 33.0184 340.367 34.3107 341.484 35.5594C342.631 36.8371 343.807 38.1439 344.852 39.5088C344.997 39.6685 345.215 39.8863 345.462 39.9008C345.622 39.9008 345.767 39.8428 345.926 39.6976L353.112 31.2034C354.143 29.5917 353.794 27.3411 352.299 26.136C351.53 25.5261 350.455 25.2793 349.352 25.4535C348.191 25.6423 347.16 26.2666 346.551 27.1233C346.696 27.4863 346.928 27.8348 347.16 28.2123C347.625 28.9383 348.104 29.7079 348.06 30.6371C347.988 32.1327 346.884 32.9603 345.81 33.1055C344.736 33.2652 343.459 32.7861 342.965 31.3922C342.515 30.0709 343.226 28.9673 343.865 27.98C344.068 27.6751 344.257 27.3847 344.402 27.0943C343.386 25.8456 341.847 25.2212 340.236 25.439H340.221ZM345.418 32.1908C344.925 32.1908 344.46 31.9584 344.126 31.5228C343.386 30.55 344.01 29.5772 344.504 28.7931C344.721 28.4592 344.925 28.1397 345.012 27.8493L345.244 27.1233L345.665 27.7622C345.767 27.9074 345.868 28.0671 345.984 28.2268C346.304 28.6915 346.667 29.2287 346.884 29.7079C347.334 30.7388 346.884 31.5809 346.246 31.9584C345.984 32.1182 345.694 32.1908 345.418 32.1908ZM345.418 28.6915C345.317 28.8657 345.215 29.0254 345.113 29.1851C344.591 30.0128 344.286 30.55 344.692 31.0873C345.026 31.5374 345.52 31.5374 345.868 31.3341C346.202 31.1308 346.492 30.6662 346.202 29.9983C346.028 29.5917 345.709 29.1271 345.418 28.6915Z" fill="#F9F7F1"/>
<path d="M331.134 33.2945C332.194 33.1784 333.341 33.4107 334.27 33.9189C337.1 36.3437 340.41 38.7104 343.081 41.295C343.909 42.0936 344.126 42.8922 343.517 43.9376C340.802 46.2172 338.146 48.7873 335.358 50.9798C333.645 52.3301 331.889 52.8819 329.755 52.0252C325.865 50.4571 325.778 45.3025 328.87 42.8777L328.841 42.7615C325.836 40.3948 325.879 35.2983 329.653 33.7011C330.089 33.5123 330.67 33.3381 331.134 33.28V33.2945ZM328.739 50.2102C330.582 52.0833 332.949 51.6622 334.836 50.1521C337.478 48.0322 339.931 45.651 342.588 43.5456C343.11 42.9793 342.951 42.4421 342.399 41.9919C339.931 40.0172 337.623 37.8247 335.184 35.8355C333.733 34.6594 332.687 33.9189 330.699 34.398C326.924 35.2837 326.779 40.3076 329.755 42.2388C331.25 41.5563 332.571 39.9882 334.328 40.961C335.678 41.7015 335.779 43.7779 334.546 44.7072C332.818 45.9994 331.265 44.2861 329.755 43.5601C329.566 43.5456 329.116 43.9667 328.957 44.1264C327.447 45.7381 327.128 48.584 328.753 50.2247L328.739 50.2102ZM333.108 41.5854C332.412 41.5854 331.265 42.5437 330.626 42.8922C331.541 43.3568 332.716 44.562 333.791 44.0102C334.937 43.4149 334.458 41.5563 333.108 41.5854Z" fill="#F9F7F1"/>
<path d="M331.744 52.809C331.047 52.809 330.35 52.6638 329.624 52.3734C327.839 51.6474 326.648 50.1374 326.387 48.2207C326.111 46.246 326.881 44.1697 328.361 42.8484C326.895 41.5416 326.111 39.4798 326.387 37.5051C326.648 35.6175 327.781 34.1074 329.523 33.3814C330.074 33.1491 330.655 32.9894 331.105 32.9313C332.237 32.8006 333.457 33.0474 334.458 33.5992C335.562 34.5285 336.708 35.4432 337.812 36.3289C339.699 37.839 341.659 39.4072 343.357 41.0334C344.359 41.9917 344.518 42.9791 343.865 44.1261L343.778 44.2278C342.675 45.157 341.557 46.1589 340.468 47.1172C338.886 48.5257 337.26 49.9777 335.605 51.2844C334.299 52.3154 333.036 52.8236 331.758 52.8236L331.744 52.809ZM331.686 33.6282C331.511 33.6282 331.337 33.6282 331.178 33.6573C330.728 33.7008 330.176 33.8896 329.799 34.0493C328.303 34.6737 327.316 35.9805 327.098 37.6067C326.852 39.4362 327.621 41.3528 329.058 42.4999L329.145 42.5725L329.29 43.0371L329.087 43.1969C327.621 44.3439 326.837 46.2896 327.098 48.1481C327.331 49.8034 328.347 51.0957 329.9 51.72C331.729 52.4606 333.341 52.1411 335.141 50.7182C336.781 49.4259 338.407 47.9739 339.975 46.58C341.049 45.6362 342.152 44.6489 343.241 43.7196C343.691 42.8919 343.575 42.2821 342.834 41.5706C341.165 39.9589 339.22 38.4053 337.333 36.9097C336.229 36.024 335.083 35.1093 334.023 34.209C333.355 33.846 332.499 33.6428 331.671 33.6428L331.686 33.6282ZM331.57 51.8072C330.437 51.8072 329.363 51.357 328.478 50.4568C326.648 48.5983 327.098 45.5491 328.666 43.8648C328.913 43.5889 329.392 43.1533 329.755 43.1823L329.886 43.2114C330.263 43.3856 330.64 43.6325 331.003 43.8503C332.179 44.5908 333.181 45.2151 334.313 44.3875C334.807 44.0245 335.083 43.4001 335.024 42.7322C334.981 42.0933 334.647 41.5416 334.139 41.2512C333.021 40.6414 332.121 41.2076 331.076 41.861C330.699 42.1079 330.307 42.3547 329.886 42.5435L329.697 42.6306L329.523 42.5144C327.882 41.44 327.011 39.4072 327.36 37.4325C327.665 35.6901 328.869 34.4123 330.582 34.0058C332.702 33.5121 333.863 34.2816 335.387 35.5158C336.563 36.4741 337.725 37.4905 338.842 38.4779C340.062 39.5524 341.325 40.6559 342.602 41.6723C342.994 41.9917 343.212 42.3547 343.241 42.7322C343.27 43.0807 343.125 43.4292 342.834 43.7631C341.441 44.8812 340.12 46.0428 338.842 47.1753C337.608 48.2643 336.345 49.3823 335.039 50.4133C333.892 51.328 332.687 51.7781 331.555 51.7781L331.57 51.8072ZM329.682 43.9229C329.61 43.9809 329.378 44.1842 329.203 44.3584C327.882 45.7669 327.476 48.424 329 49.9486C330.524 51.4877 332.615 51.4587 334.603 49.8615C335.895 48.8306 337.158 47.7125 338.378 46.6381C339.67 45.5055 340.991 44.3294 342.37 43.2404C342.486 43.1097 342.559 42.95 342.544 42.8048C342.53 42.587 342.326 42.3837 342.167 42.2531C340.875 41.2222 339.612 40.1041 338.392 39.0296C337.275 38.0568 336.113 37.0404 334.952 36.0821C333.558 34.9496 332.615 34.2816 330.771 34.7172C329.319 35.0512 328.347 36.0966 328.1 37.5631C327.81 39.1894 328.492 40.8592 329.784 41.7884C330.089 41.6287 330.394 41.4399 330.699 41.2512C331.787 40.5688 333.007 39.7847 334.502 40.6123C335.228 41.0189 335.707 41.7884 335.765 42.6741C335.823 43.5889 335.445 44.4456 334.763 44.9683C333.239 46.1008 331.86 45.2296 330.64 44.4601C330.321 44.2568 330.002 44.0681 329.697 43.9083L329.682 43.9229ZM333.195 44.5182C332.47 44.5182 331.758 44.0535 331.149 43.647C330.902 43.4873 330.67 43.3275 330.452 43.2114L329.828 42.8919L330.437 42.558C330.611 42.4563 330.844 42.3111 331.091 42.1514C331.744 41.7158 332.484 41.2221 333.094 41.2076C333.994 41.2076 334.574 41.832 334.749 42.4854C334.937 43.2404 334.618 43.9664 333.965 44.3149C333.718 44.4456 333.457 44.5036 333.21 44.5036L333.195 44.5182ZM331.323 42.8919C331.395 42.9355 331.482 42.9936 331.555 43.0517C332.266 43.5308 333.007 44.01 333.616 43.6905C334.052 43.4582 334.11 43.0081 334.037 42.6887C333.95 42.3547 333.66 41.9627 333.123 41.9627H333.094C332.702 41.9627 332.005 42.4418 331.482 42.7758C331.424 42.8193 331.366 42.8484 331.308 42.8919H331.323Z" fill="#F9F7F1"/>
<path d="M345.041 44.4746C345.592 44.3875 346.187 44.4746 346.623 44.8376C348.888 47.5964 351.544 50.268 353.736 53.0849C355.057 54.7837 355.478 56.6713 354.593 58.7186C352.967 62.4648 347.842 62.4357 345.491 59.4301C344.097 61.0563 342.036 61.942 339.887 61.5355C336.316 60.8676 334.807 56.5406 336.795 53.6221L344.126 44.9828C344.387 44.765 344.707 44.5182 345.055 44.4601L345.041 44.4746ZM345.186 45.4619C344.968 45.5055 344.649 45.883 344.489 46.0573C342.457 48.1772 340.163 51.0086 338.291 53.3172C337.231 54.624 336.592 55.6114 336.94 57.3973C337.71 61.3612 342.82 61.6516 344.823 58.5589C344.155 57.0924 342.602 55.7711 343.516 54.0577C344.315 52.5767 346.478 52.5477 347.392 53.9271C348.438 55.5242 346.884 57.1795 346.144 58.5153V58.6605C348.742 62.247 354.491 60.7659 354.012 55.9598C353.925 55.0596 353.417 54.29 352.865 53.6076C350.804 50.9795 348.365 48.5256 346.289 45.883C345.984 45.5055 345.679 45.3313 345.157 45.4474L345.186 45.4619ZM345.592 57.6877C345.955 56.5842 347.45 55.4662 346.434 54.3046C345.505 53.2591 343.836 54.2755 344.3 55.684C344.358 55.8727 345.287 57.4844 345.404 57.6151C345.462 57.6877 345.476 57.7167 345.592 57.6877Z" fill="#F9F7F1"/>
<path d="M340.904 62.0003C340.541 62.0003 340.178 61.9713 339.8 61.8987C338.058 61.5647 336.665 60.4177 335.968 58.7188C335.242 56.9474 335.431 54.9582 336.491 53.4191L343.836 44.7507C344.184 44.4458 344.547 44.1844 344.968 44.1118C345.665 43.9956 346.347 44.1554 346.841 44.5474C347.886 45.8106 348.96 47.0158 350.005 48.1774C351.355 49.6875 352.764 51.2556 353.998 52.8528C355.493 54.7694 355.783 56.7877 354.898 58.864C354.157 60.5774 352.647 61.6954 350.76 61.9277C348.815 62.1746 346.768 61.4195 345.447 59.9821C344.199 61.2889 342.558 62.0003 340.889 62.0003H340.904ZM345.433 44.8088C345.331 44.8088 345.215 44.8088 345.099 44.8378C344.852 44.8814 344.591 45.0846 344.344 45.2879L337.057 53.8837C336.157 55.1905 335.997 56.9184 336.636 58.4575C337.245 59.9095 338.436 60.9113 339.931 61.2017C341.847 61.5647 343.821 60.8242 345.186 59.2125L345.476 58.8785L345.752 59.227C346.884 60.679 348.815 61.4631 350.673 61.2308C352.299 61.0275 353.591 60.0692 354.23 58.5882C355.014 56.7586 354.752 55.0308 353.431 53.3174C352.212 51.7493 350.818 50.1811 349.468 48.6856C348.423 47.5095 347.334 46.2898 346.333 45.0846C346.13 44.9249 345.796 44.8233 345.433 44.8233V44.8088ZM349.976 61.013C348.409 61.013 346.855 60.2434 345.868 58.8785L345.796 58.7769L345.854 58.3413C345.999 58.08 346.173 57.8041 346.362 57.5137C347.088 56.3811 347.828 55.205 347.117 54.116C346.754 53.5497 346.115 53.2448 345.404 53.2593C344.736 53.2884 344.155 53.6369 343.865 54.2031C343.284 55.2776 343.865 56.1633 344.504 57.1942C344.75 57.5718 344.997 57.9638 345.186 58.3849L345.273 58.5591L345.171 58.7188C344.083 60.4031 342.036 61.2743 340.047 60.8823C338.262 60.5338 336.984 59.2415 336.636 57.4266C336.258 55.4664 336.984 54.3774 338.058 53.0561C340.004 50.6458 342.254 47.887 344.271 45.7671L344.344 45.6945C344.62 45.3896 344.881 45.1427 345.157 45.0701C345.912 44.8959 346.362 45.2734 346.638 45.6364C347.683 46.9722 348.83 48.2645 349.933 49.5132C351.036 50.7619 352.183 52.0397 353.214 53.361C353.794 54.087 354.331 54.9001 354.433 55.902C354.651 58.109 353.606 59.953 351.689 60.679C351.138 60.8823 350.572 60.9839 350.02 60.9839L349.976 61.013ZM345.273 45.8106C345.171 45.8542 344.91 46.1156 344.823 46.2172L344.75 46.2898C342.747 48.3952 340.512 51.1249 338.581 53.5352C337.579 54.7839 336.984 55.6551 337.304 57.3249C337.608 58.864 338.639 59.924 340.149 60.2144C341.775 60.5338 343.459 59.8514 344.417 58.5301C344.257 58.2252 344.068 57.9348 343.879 57.6153C343.197 56.5554 342.442 55.3357 343.212 53.8982C343.633 53.1141 344.446 52.606 345.36 52.5624C346.318 52.5188 347.204 52.9544 347.712 53.7385C348.684 55.2195 347.726 56.7151 346.957 57.9202C346.812 58.1526 346.667 58.3704 346.536 58.5882C347.901 60.3305 349.991 60.5629 351.385 60.0401C352.996 59.4158 353.852 57.9202 353.664 56.0181C353.591 55.205 353.112 54.4935 352.604 53.8547C351.588 52.5624 350.455 51.2846 349.352 50.0505C348.234 48.7872 347.073 47.4804 346.028 46.1446C345.781 45.8397 345.607 45.7671 345.273 45.8397V45.8106ZM345.534 58.0509C345.317 58.0509 345.215 57.9202 345.157 57.8622C344.983 57.6734 344.025 56.0181 343.952 55.7858C343.633 54.842 344.097 54.0725 344.707 53.724C345.389 53.3319 346.188 53.4626 346.71 54.0579C347.61 55.0743 346.972 56.0617 346.449 56.8603C346.231 57.1942 346.042 57.4992 345.941 57.8041L345.883 57.9928L345.68 58.0364C345.68 58.0364 345.578 58.0509 345.549 58.0509H345.534ZM345.52 54.2322C345.36 54.2322 345.201 54.2757 345.07 54.3629C344.75 54.5516 344.446 54.9727 344.649 55.568C344.707 55.7132 345.2 56.5699 345.491 57.0636C345.607 56.8603 345.723 56.6715 345.854 56.4828C346.391 55.6551 346.681 55.1179 346.173 54.5516C345.97 54.3193 345.752 54.2467 345.534 54.2467L345.52 54.2322Z" fill="#F9F7F1"/>
</g>
<defs>
<clipPath id="clip0_698_5449">
<rect width="62" height="62" fill="white"/>
</clipPath>
<clipPath id="clip1_698_5449">
<rect width="372" height="62" fill="white" transform="translate(72)"/>
</clipPath>
</defs>
</svg>
