<svg width="20" height="20" viewBox="0 0 20 20" fill="none" xmlns="http://www.w3.org/2000/svg">
<path d="M13.9996 7.89961C13.7996 8.19961 13.4996 8.19961 13.2996 8.09961L13.1996 7.99961V12.2996H11.1996V10.4996C11.1996 9.79961 10.6996 9.29961 9.99964 9.29961C9.29964 9.29961 8.79964 9.79961 8.79964 10.4996V12.2996H6.79964V7.99961L6.69964 8.09961C6.49964 8.19961 6.19964 8.19961 5.99964 7.99961V7.89961C5.79964 7.69961 5.89964 7.39961 6.09964 7.29961L9.59964 4.99961C9.89964 4.79961 10.1996 4.79961 10.4996 4.99961L13.9996 7.29961C14.0996 7.39961 14.1996 7.69961 13.9996 7.89961Z" fill="#444444"/>
<path d="M17.3996 8.49961C17.3996 14.1996 9.99961 18.2996 9.99961 18.2996C9.99961 18.2996 2.59961 14.1996 2.59961 8.49961C2.59961 4.39961 5.89961 1.09961 9.99961 1.09961C14.0996 1.09961 17.3996 4.39961 17.3996 8.49961Z" stroke="#444444" stroke-width="1.5" stroke-miterlimit="10" stroke-linecap="round" stroke-linejoin="round"/>
</svg>
