<svg width="20" height="20" viewBox="0 0 20 20" fill="none" xmlns="http://www.w3.org/2000/svg">
<path d="M6.66634 2.5C7.08301 2.5 8.74967 6.25 8.74967 6.66667C8.74967 7.5 7.49967 8.33333 7.08301 9.16667C6.66634 10 7.49967 10.8333 8.33301 11.6667C8.65801 11.9917 9.99967 13.3333 10.833 12.9167C11.6663 12.5 12.4997 11.25 13.333 11.25C13.7497 11.25 17.4997 12.9167 17.4997 13.3333C17.4997 15 16.2497 16.25 14.9997 16.6667C13.7497 17.0833 12.9163 17.0833 11.2497 16.6667C9.58301 16.25 8.33301 15.8333 6.24967 13.75C4.16634 11.6667 3.74967 10.4167 3.33301 8.75C2.91634 7.08333 2.91634 6.25 3.33301 5C3.74967 3.75 4.99967 2.5 6.66634 2.5Z" stroke="#444444" stroke-width="1.5" stroke-linecap="round" stroke-linejoin="round"/>
</svg>
