<?xml version="1.0" encoding="UTF-8"?> <svg xmlns="http://www.w3.org/2000/svg" width="783" height="1511" viewBox="0 0 783 1511" fill="none"> <g clip-path="url(#clip0_522_36)"> <path d="M539.442 1243.64C560.589 1262.72 582.09 1281.74 603.751 1300.61C607.252 1303.62 613.274 1307.83 619.61 1307.85C625.04 1307.86 629.508 1304.9 631.153 1301.16C636.229 1289.68 629.34 1275.47 619.851 1267.2C598.19 1248.33 576.706 1229.43 555.542 1210.23C552.219 1207.2 546.019 1203.01 539.683 1203C534.253 1202.98 529.785 1205.95 528.14 1209.68C522.905 1221.32 530.113 1235.23 539.442 1243.64V1243.64Z" fill="#FF99C2"></path> <path d="M403.241 1113.12C422.721 1133.21 442.715 1153.09 463.206 1172.65C466.352 1175.71 472.906 1179.85 479.064 1179.89C484.495 1179.9 488.962 1176.93 490.607 1173.2C495.825 1161.44 488.316 1147.96 479.305 1139.24C458.992 1119.66 438.998 1099.78 419.34 1079.71C416.372 1076.63 409.445 1072.41 403.482 1072.48C398.052 1072.46 393.584 1075.43 391.939 1079.16C386.58 1091.21 394.531 1103.97 403.241 1113.12V1113.12Z" fill="#FF99C2"></path> <path d="M227.685 904.983C257.758 947.581 290.544 988.887 325.529 1029.11C330.293 1034.66 344.225 1047.49 354.877 1038.33C364.714 1029.81 357.253 1012.83 350.995 1005.66C316.011 965.446 283.047 924.164 253.152 881.542C249.062 875.632 233.959 863.489 223.803 872.316C213.648 881.144 222.243 897.188 227.685 904.983Z" fill="#FF99C2"></path> <path d="M80.9251 608.454C101.12 679.819 131.676 748.946 169.787 815.191C173.844 822.144 185.029 837.304 199.042 832.733C213.055 828.163 206.479 809.758 203.098 803.747C167.175 741.476 138.703 676.856 119.668 609.868C117.188 601.265 107.297 585.015 92.4789 585.158C76.7737 585.426 78.9099 601.861 80.7476 608.479L80.9251 608.454Z" fill="#FF99C2"></path> <path d="M62.6414 308.082C52.0064 376.399 51.3273 444.739 60.602 511.806C62.1444 522.746 69.2467 537.185 83.8054 541.619C98.3641 546.054 103.279 533.424 102.149 525.41C93.1989 461.93 93.9018 397.608 104.134 332.851C105.909 321.054 98.31 306.945 86.2853 299.948C75.4506 293.691 64.3823 297.327 62.6414 308.082Z" fill="#FF99C2"></path> <path d="M180.625 59.0785C144.083 105.359 114.945 154.099 94.1676 204.384C89.4643 215.946 95.4303 230.025 105.469 238.34C111.813 243.544 127.866 250.881 132.871 238.888C152.587 191.347 179.315 144.764 213.856 100.971C221.986 90.6131 217.565 77.2242 209.974 68.3042C206.507 64.252 188.915 48.5683 180.625 59.0785V59.0785Z" fill="#FF99C2"></path> <path d="M637.335 1210.25C672.147 1277.48 706.959 1344.71 741.594 1411.96L750.794 1380.95C702.263 1384.55 662.945 1366.22 623.666 1350.74C584.388 1335.26 540.728 1320.79 490.997 1328.71C478.08 1330.79 483.522 1350.13 485.605 1354.64C488.525 1361.23 498.47 1377.86 511.44 1376.16C559.08 1370.1 598.538 1386.85 636.716 1402.22C674.893 1417.6 718.416 1434.95 766.734 1431.12C786.767 1429.46 780.115 1407.96 775.933 1400.11C740.944 1332.91 706.132 1265.68 671.142 1198.48C667.405 1191.22 655.279 1175.8 640.911 1180.42C626.543 1185.04 633.546 1203.91 636.785 1210.2L637.335 1210.25Z" fill="#FF99C2"></path> </g> <defs> <clipPath id="clip0_522_36"> <rect width="1443" height="587" fill="white" transform="translate(581.25) rotate(81.9749)"></rect> </clipPath> </defs> </svg> 