<?xml version="1.0" encoding="UTF-8"?> <svg xmlns="http://www.w3.org/2000/svg" width="215" height="230" viewBox="0 0 215 230" fill="none"> <path d="M208.522 34.0865C176.43 6.8097 142.18 -5.6151 132.024 6.3346C121.867 18.2843 139.649 50.0835 171.741 77.3602C189.726 92.6468 207.792 100.938 212.091 95.88C216.391 90.8215 205.296 74.3285 187.311 59.0419C155.219 31.7651 120.97 19.3403 110.813 31.29C100.656 43.2398 118.438 75.0392 150.53 102.316C168.515 117.603 186.581 125.894 190.88 120.835C195.18 115.777 184.085 99.2839 166.1 83.9973C134.008 56.7205 99.7081 44.3552 89.4892 56.3781C79.2703 68.401 97.0013 100.26 129.093 127.537C147.079 142.823 165.144 151.115 169.444 146.056C173.743 140.998 162.648 124.505 144.663 109.218C112.571 81.9417 78.3221 69.5165 68.1654 81.4663C58.0086 93.4161 75.7909 125.215 107.883 152.492C125.868 167.778 143.933 176.07 148.233 171.012C152.532 165.953 141.438 149.46 123.453 134.173C91.3605 106.897 57.111 94.4722 46.9543 106.422C36.7976 118.372 54.5798 150.17 86.6719 177.447C104.657 192.734 122.723 201.025 127.022 195.967C131.321 190.909 120.227 174.416 102.242 159.129C70.1494 131.852 35.8999 119.428 25.7439 131.377C15.5871 143.327 33.3687 175.126 65.4608 202.403C83.446 217.689 101.512 225.981 105.811 220.922C110.11 215.864 99.0157 199.371 81.0304 184.085C48.9383 156.808 14.639 144.442 4.42008 156.465C-5.79884 168.488 11.9322 200.347 44.0243 227.624" stroke="#84C3EB" stroke-width="3" stroke-linecap="round"></path> </svg> 