<?xml version="1.0" encoding="UTF-8"?> <svg xmlns="http://www.w3.org/2000/svg" width="54" height="44" viewBox="0 0 54 44" fill="none"> <g clip-path="url(#clip0_435_28)"> <path d="M50.3223 28.1738C43.4587 18.8656 36.2054 9.85628 28.6624 1.07621C28.0829 0.398525 29.1619 0.029782 29.6615 -0.000116046C30.5507 -0.0499462 31.4998 0.338729 32.0792 0.996486C39.7421 9.69683 46.9655 18.7759 53.8491 28.0941C54.3886 28.8216 53.3895 29.1704 52.82 29.2003C51.9708 29.2402 50.8419 28.8814 50.3223 28.1738V28.1738Z" fill="#FF99C2"></path> <path d="M40.0732 34.1037C35.9171 31.3929 31.7609 28.6822 27.6148 25.9614C27.1252 25.6425 26.5258 24.9349 27.2951 24.5463C28.0643 24.1576 29.2233 24.4665 29.8827 24.8851C34.0588 27.5859 38.2249 30.2867 42.4011 32.9974C42.9006 33.3263 43.52 34.0538 42.7308 34.4525C41.9415 34.8511 40.7526 34.5422 40.0832 34.1037H40.0732Z" fill="#FF99C2"></path> <path d="M30.3923 43.8704C20.8012 40.7212 11.2001 37.5918 1.60897 34.4127C1.07946 34.2433 -0.189366 33.7848 0.0204396 33.0075C0.220255 32.27 1.60897 32.4195 2.09851 32.5789C11.6996 35.6983 21.2907 38.8476 30.8919 41.9968C31.4314 42.1762 32.7302 42.6347 32.5104 43.4319C32.3105 44.1794 30.8919 44.0299 30.3823 43.8605L30.3923 43.8704Z" fill="#FF99C2"></path> </g> <defs> <clipPath id="clip0_435_28"> <rect width="54" height="44" fill="white" transform="matrix(-1 0 0 1 54 0)"></rect> </clipPath> </defs> </svg> 