<?xml version="1.0" encoding="UTF-8"?> <svg xmlns="http://www.w3.org/2000/svg" width="1345" height="656" viewBox="0 0 1345 656" fill="none"> <path d="M1337.86 597.793C1328.17 621.661 1301.03 637.905 1258.6 646.08C1216.32 654.227 1159.74 654.173 1092.72 646.258C958.72 630.434 783.687 583.278 599.441 508.481C415.194 433.685 256.82 345.492 149.708 263.435C96.1345 222.392 55.526 182.992 30.8911 147.682C6.16785 112.245 -1.9724 81.6781 7.71699 57.8101C17.4064 33.9422 44.5498 17.6988 86.9778 9.52291C129.254 1.37625 185.836 1.43051 252.858 9.34507C386.857 25.169 561.89 72.3258 746.137 147.122C930.384 221.919 1088.76 310.112 1195.87 392.169C1249.44 433.211 1290.05 472.612 1314.69 507.922C1339.41 543.358 1347.55 573.925 1337.86 597.793Z" stroke="#84C3EB" stroke-width="6"></path> </svg> 