<?xml version="1.0" encoding="UTF-8"?>
<svg id="Layer_2" data-name="Layer 2" xmlns="http://www.w3.org/2000/svg" viewBox="0 0 38.75 21.85" width="266" height="150">
  <defs>
    <style>
      .cls-1 {
        fill: #f4f2bb;
      }

      .cls-2 {
        fill: #84c3eb;
      }
    </style>
  </defs>
  <g id="Layer_1-2" data-name="Layer 1">
    <g>
      <g>
        <path d="M5,10.18c-.21,.25-.39,.52-.53,.82-.14,.29-.22,.58-.24,.88-.02,.15,.02,.22,.11,.22,.09,0,.15-.07,.19-.21,.17-.75,.45-1.32,.83-1.69,.38-.37,.87-.6,1.46-.68,.27-.04,.49-.01,.67,.07,.18,.09,.33,.21,.44,.36s.18,.33,.23,.52c.05,.19,.07,.37,.07,.54s-.02,.35-.04,.56c-.03,.21-.09,.42-.19,.63-.09,.21-.23,.41-.42,.59-.19,.18-.44,.33-.74,.44-.21,.07-.42,.1-.65,.07-.23-.03-.44-.1-.63-.21-.09-.06-.17-.06-.22,0-.05,.07-.08,.15-.08,.26-.02,.44-.04,.87-.06,1.31s-.06,.88-.1,1.32c-.03,.23-.08,.45-.16,.66-.08,.21-.19,.41-.33,.58-.14,.17-.31,.32-.51,.44-.2,.13-.43,.22-.7,.27s-.51,.06-.72,.02c-.21-.04-.38-.12-.52-.23-.14-.12-.25-.26-.33-.44-.08-.18-.12-.38-.14-.6-.07-.87-.1-1.73-.09-2.6,0-.87,.02-1.75,.04-2.63,0-.2,.06-.38,.16-.55,.1-.16,.23-.28,.4-.33,.14-.05,.29-.1,.47-.15,.18-.05,.37-.09,.56-.13,.38-.08,.73-.13,1.07-.15,.34-.02,.57,0,.69,.06Z"/>
        <path d="M13.66,14.83c-.29,.47-.65,.82-1.07,1.07s-.89,.42-1.39,.52c-.37,.08-.71,.1-1.03,.08-.32-.02-.59-.1-.83-.22-.24-.12-.42-.3-.56-.53-.14-.23-.21-.51-.21-.83,0-.3,.06-.58,.17-.85s.28-.52,.48-.75c.21-.23,.45-.43,.73-.61,.28-.18,.59-.33,.91-.46,.6-.23,1.1-.51,1.51-.83,.41-.32,.72-.65,.94-1,.04-.06,.06-.12,.04-.18-.02-.05-.05-.09-.1-.11-.05-.02-.1-.03-.16,0-.06,.02-.11,.06-.15,.12-.13,.19-.28,.38-.47,.57-.18,.19-.39,.35-.61,.5-.22,.15-.46,.28-.72,.39-.26,.11-.53,.2-.8,.25-.5,.1-.88,.07-1.14-.1-.26-.17-.39-.42-.39-.76,0-.3,.1-.6,.3-.88,.2-.28,.46-.55,.79-.79s.72-.46,1.17-.64c.44-.18,.91-.32,1.41-.43,1.03-.21,1.84-.21,2.44,0,.6,.21,1.03,.65,1.3,1.3,.11,.27,.19,.59,.25,.95s.09,.74,.09,1.14c0,.4-.02,.81-.06,1.22-.05,.42-.11,.82-.2,1.2-.17,.75-.62,1.21-1.33,1.35s-1.15-.09-1.31-.72Zm-2.18-.41c.31-.1,.6-.26,.88-.49,.28-.22,.54-.45,.78-.68,.06-.06,.09-.12,.09-.17s-.02-.1-.05-.13c-.03-.03-.08-.05-.13-.06-.05,0-.1,.01-.14,.05-.25,.24-.5,.45-.74,.63-.25,.18-.54,.34-.88,.49-.05,.03-.08,.06-.1,.11-.01,.05-.01,.09,0,.14,.02,.05,.05,.08,.1,.11,.05,.03,.11,.03,.19,0Z"/>
        <path d="M25.04,11.26c0,.11-.01,.22-.02,.33,0,.11-.01,.21-.03,.32-.05,.47-.23,.86-.53,1.19-.3,.33-.73,.55-1.29,.67s-.99,.07-1.29-.14c-.29-.21-.47-.53-.53-.98-.02-.1-.03-.2-.04-.3,0-.1-.02-.21-.03-.32,0-.07-.02-.13-.05-.16s-.07-.06-.12-.05-.09,.02-.13,.06-.08,.09-.1,.15c-.02,.13-.03,.26-.03,.38s-.01,.24-.03,.37c-.05,.47-.21,.86-.48,1.19-.27,.32-.67,.54-1.21,.65s-.96,.06-1.25-.15c-.29-.21-.46-.54-.51-.98-.04-.39-.08-.8-.1-1.23-.02-.43-.04-.85-.06-1.24v-2.15c0-.43,.14-.81,.42-1.13s.65-.53,1.12-.62c.37-.08,.72-.09,1.05-.05,.33,.04,.56,.18,.7,.43-.33,.45-.58,.91-.74,1.37-.16,.46-.21,.92-.16,1.38,0,.07,.03,.12,.08,.15s.09,.04,.13,.03,.08-.03,.12-.07,.05-.09,.05-.15c-.03-.3,0-.61,.06-.93s.17-.63,.31-.92c.14-.29,.3-.56,.49-.81s.39-.45,.59-.61c.18-.15,.37-.27,.58-.38,.21-.1,.41-.17,.63-.22,.36-.07,.72-.09,1.08-.06,.36,.03,.66,.15,.91,.36-.28,.39-.49,.8-.61,1.23-.12,.42-.17,.85-.15,1.28,.03,.14,.1,.19,.21,.14,.1-.04,.15-.12,.15-.23-.02-.29,.01-.59,.09-.89,.08-.3,.18-.58,.31-.84,.13-.26,.27-.5,.44-.72,.16-.22,.32-.39,.47-.52,.16-.14,.36-.26,.6-.37,.23-.11,.49-.19,.75-.24,.41-.08,.78-.09,1.11-.01,.33,.08,.62,.25,.87,.53,.09,.12,.17,.24,.23,.37,.06,.13,.11,.29,.14,.49s.06,.44,.06,.74,.01,.67,.01,1.12c0,.24,0,.45-.01,.64,0,.19-.02,.38-.04,.56-.02,.18-.04,.37-.06,.56-.02,.19-.05,.4-.08,.63-.07,.47-.24,.87-.53,1.19-.28,.32-.71,.55-1.27,.66s-.99,.07-1.28-.14c-.29-.21-.46-.54-.52-.98-.02-.1-.03-.2-.04-.3,0-.1-.02-.2-.03-.31,0-.09-.02-.15-.06-.18s-.09-.05-.13-.04-.09,.04-.13,.09-.06,.12-.06,.2h-.01Z"/>
        <path d="M30.35,11.29c-.12-.69-.18-1.41-.18-2.17s.06-1.5,.18-2.24c.04-.29,.2-.56,.48-.81,.28-.25,.69-.44,1.24-.55s.93-.09,1.2,.05c.27,.14,.43,.35,.48,.62,.13,.69,.19,1.41,.19,2.16s-.06,1.5-.19,2.24c-.05,.29-.21,.56-.48,.81s-.67,.43-1.2,.54-.96,.1-1.24-.04-.44-.34-.48-.62Zm1.72-6.39c-.22,.05-.43,.05-.63,.02-.2-.03-.38-.1-.53-.22-.15-.11-.28-.26-.37-.45-.09-.19-.14-.42-.14-.68,0-.25,.05-.48,.14-.71,.09-.22,.22-.42,.38-.61,.16-.18,.34-.33,.54-.45,.2-.12,.41-.2,.62-.25,.23-.05,.45-.04,.65,.01,.2,.05,.38,.15,.54,.27,.15,.13,.27,.29,.36,.47s.13,.39,.13,.6-.04,.44-.13,.66-.2,.41-.35,.59c-.15,.18-.32,.33-.53,.46s-.43,.22-.67,.27Z"/>
      </g>
      <g>
        <g>
          <path class="cls-2" d="M6.61,21.76c-.5,.1-.96,.11-1.37,.02-.4-.08-.76-.24-1.05-.48-.28-.23-.5-.53-.65-.87-.13-.3-.21-.64-.24-.99-.07-.9-.1-1.82-.09-2.72,0-.87,.02-1.75,.04-2.64,.02-.51,.16-.96,.41-1.38,.34-.58,.89-1.02,1.52-1.24,.12-.05,.34-.12,.59-.19,.6-.17,1.35-.3,1.99-.34,.24-.01,.46-.01,.66,0,.52-.3,1.1-.5,1.72-.59,.55-.08,1.06-.02,1.49,.18,.37,.17,.67,.42,.89,.74,.18,.27,.32,.57,.4,.9,.07,.3,.11,.58,.11,.86,0,.22-.02,.47-.06,.76-.05,.36-.16,.73-.32,1.08-.2,.44-.49,.85-.86,1.21-.41,.4-.91,.7-1.5,.91-.11,.04-.22,.07-.33,.1-.02,.34-.05,.69-.09,1.03-.04,.38-.13,.74-.26,1.09-.15,.39-.36,.76-.62,1.09-.29,.37-.65,.68-1.06,.94-.4,.25-.85,.43-1.35,.53Zm-.19-6.01c0,.11,0,.22,0,.33,0,.82,.02,1.66,.09,2.48,0,.08,.02,.15,.05,.21l.13-.04c0-.09,.02-.17,.03-.27,.04-.4,.07-.82,.1-1.24,.03-.43,.05-.86,.06-1.28v-.02c-.16-.03-.31-.09-.45-.18Zm1.32,1.03s.05,.03,.08,.04c-.03-.01-.05-.03-.08-.04Zm2.33-1.43s0,.04,0,.07c0-.02,0-.04,0-.07Zm-.29-1.22h0s0,0,0,0h0Zm-.39-.25c.13,.03,.27,.09,.41,.17,0-.01,0-.03,0-.04,.02-.13,.03-.25,.03-.35,0-.03,0-.11-.03-.23,0-.02,0-.03-.01-.05-.09,.02-.17,.05-.21,.09h0s-.09,.1-.19,.4Zm-1.93,.09h.01s-.01,0-.01,0Zm-1.71,.3s-.03,0-.04,.01c.01,0,.03,0,.04-.01Z"/>
          <path class="cls-2" d="M14.4,20.27c-.52,.11-1.02,.14-1.48,.11-.51-.04-.97-.16-1.36-.37-.43-.23-.76-.55-1-.95-.25-.41-.37-.91-.37-1.47,0-.5,.1-1,.31-1.48,.13-.3,.29-.59,.49-.86-.36-.37-.55-.87-.55-1.47,0-.63,.21-1.27,.62-1.85,.33-.47,.76-.91,1.29-1.3,.47-.34,1.01-.64,1.6-.89,.56-.23,1.15-.41,1.76-.53,1.33-.27,2.4-.26,3.26,.05,.92,.33,1.59,.98,1.98,1.94,.15,.36,.26,.77,.32,1.23,.06,.42,.1,.87,.11,1.33,0,.46-.02,.93-.07,1.4-.05,.47-.13,.93-.23,1.37-.34,1.49-1.42,2.55-2.9,2.85-.57,.12-1.09,.1-1.52-.04-.08,.06-.17,.11-.26,.16-.61,.36-1.28,.61-1.99,.76Zm4.04-3.7h.01s-.01,0-.01,0Zm-3.6-.75c.01,.25,.12,.48,.29,.65,.1,.1,.22,.17,.35,.22,.02-.02,.03-.05,.05-.08,.12-.19,.28-.37,.45-.51-.01-.08-.03-.16-.06-.23-.06-.17-.18-.32-.34-.43-.23,.13-.48,.26-.75,.38Zm-.16,.95h.01s-.01,0-.01,0Zm3.2-.96c.06,.03,.11,.07,.16,.11,.02-.14,.04-.28,.06-.43,.04-.35,.06-.71,.05-1.05,0-.33-.03-.65-.07-.95-.02-.16-.05-.3-.09-.43-.05,.1-.1,.2-.17,.3-.11,.18-.25,.37-.4,.55,.08,.05,.15,.1,.21,.16,.27,.27,.4,.61,.4,1,0,.24-.05,.48-.16,.71Z"/>
          <path class="cls-2" d="M30.52,16.76c-.96,.2-1.62,.06-2.06-.15-.45,.39-1.12,.8-2.08,.99s-1.61,.07-2.05-.13c-.44,.39-1.08,.77-1.99,.96-1.23,.25-1.97-.05-2.38-.35-.55-.41-.88-1.01-.97-1.79-.05-.42-.08-.86-.1-1.32l-.06-1.25v-2.21c0-.83,.31-1.62,.89-2.29s1.36-1.11,2.25-1.3c.55-.11,1.08-.14,1.58-.08,.17,.02,.32,.05,.47,.1,.2-.15,.45-.3,.71-.43,.89-.44,1.8-.56,2.68-.47,.22,.02,.43,.06,.63,.12,.26-.19,.55-.36,.87-.51,.94-.43,2.07-.6,2.96-.39,.58,.13,1.08,.44,1.49,.89,.19,.23,.32,.44,.41,.64,.1,.22,.18,.48,.23,.79,.04,.25,.07,.56,.08,.93,0,.31,.01,.69,.01,1.16,0,.26,0,.5-.01,.71,0,.21-.03,.42-.04,.63l-.06,.59c-.02,.21-.05,.43-.09,.68-.12,.8-.44,1.52-.97,2.13-.41,.47-1.16,1.09-2.41,1.34Zm-.17-2.98c.07,0,.25-.04,.33-.07,.02-.04,.04-.11,.05-.2,.03-.21,.06-.41,.08-.58l.06-.53c.01-.15,.03-.32,.03-.48,0-.17,.01-.36,.01-.58,0-.43,0-.79-.01-1.08,0-.22-.02-.4-.05-.55-.02-.13-.05-.18-.05-.18-.02-.05-.05-.09-.09-.14-.04-.05-.13-.11-.2-.12-.2-.05-.52,0-.76,.12-.09,.04-.12,.06-.12,.06,0,0-.06,.05-.14,.16-.09,.12-.17,.26-.25,.41-.07,.15-.13,.32-.18,.51-.04,.14-.05,.28-.04,.42,0,.29-.06,.57-.17,.82,.35,0,.66,.12,.92,.33,.21,.17,.46,.49,.48,1.04l.02,.27c0,.07,.01,.13,.03,.19,.01,.1,.03,.16,.04,.19Zm-4.15,.85c.07-.01,.33-.07,.39-.09-.01,0,0-.06,0-.13,.02-.13,.02-.17,.03-.22,0-.12,.01-.25,.02-.38,0-.11,.03-.21,.06-.31,.03-.13,.07-.25,.12-.37-.64-.02-1.16-.4-1.32-1.05-.02-.08-.03-.15-.04-.24-.03-.54,.02-1.09,.17-1.64-.04,.02-.08,.05-.11,.08-.09,.07-.15,.12-.25,.25-.11,.14-.2,.3-.28,.47-.08,.17-.14,.35-.18,.55-.04,.17-.05,.34-.03,.5,0,.04,0,.08,0,.12,0,.15-.02,.3-.06,.44,.4,.01,.75,.17,1,.44,.22,.24,.34,.55,.36,.91l.02,.27c0,.08,.02,.15,.03,.21,.01,.11,.03,.17,.05,.2h.01Zm-4,.81s.14-.02,.21-.04c0-.04,.02-.08,.03-.15,.02-.11,.02-.18,.02-.26,0-.16,.02-.34,.04-.51,.01-.08,.03-.16,.05-.24-.16,0-.32-.04-.47-.1h0c.02,.41,.05,.8,.09,1.16,0,.06,.02,.1,.03,.13Zm4.85-1.6h0s0,0,0,0Z"/>
          <path class="cls-2" d="M35.28,15.79c-.9,.18-1.64,.14-2.2-.15-.61-.31-.99-.81-1.1-1.46-.13-.75-.2-1.56-.2-2.39s.07-1.67,.2-2.48c.07-.46,.27-.93,.6-1.36-.12-.14-.22-.3-.31-.48-.18-.35-.27-.77-.27-1.24s.09-.9,.28-1.33c.17-.41,.41-.79,.71-1.14,.31-.35,.66-.64,1.04-.87,.85-.51,1.81-.69,2.63-.47,.38,.1,.72,.27,1.01,.51,.29,.24,.51,.53,.66,.87,.16,.35,.24,.73,.24,1.13s-.08,.84-.25,1.25c-.1,.24-.22,.47-.36,.69,.3,.29,.5,.65,.58,1.07,.14,.76,.21,1.57,.21,2.41s-.07,1.68-.21,2.5c-.12,.68-.49,1.32-1.08,1.87-.56,.52-1.29,.87-2.18,1.06Zm-.13-2.69h.01s-.01,0-.01,0Zm-.04-.28c.08-.01,.23-.04,.32-.06,.09-.57,.13-1.15,.13-1.73s-.04-1.15-.13-1.68c-.08,.01-.23,.04-.32,.07-.08,.58-.12,1.15-.12,1.73s.04,1.15,.12,1.68Zm.04-3.71s0,.01,0,.02c0,0,0-.01,0-.02Zm.13-3.67l-.08,.15c0,.09,.01,.12,.01,.12l.06,.04s.02,0,.02,0l.06-.14c-.03-.11-.05-.14-.08-.16Z"/>
        </g>
        <g>
          <path class="cls-2" d="M5.54,20.98c-.5,.1-.96,.11-1.37,.02-.4-.08-.76-.24-1.05-.48-.28-.23-.5-.53-.65-.87-.13-.3-.21-.64-.24-.99-.07-.9-.1-1.82-.09-2.72,0-.87,.02-1.75,.04-2.64,.02-.51,.16-.96,.41-1.38,.34-.58,.89-1.02,1.52-1.24,.12-.05,.34-.12,.59-.19,.6-.17,1.35-.3,1.99-.34,.24-.01,.46-.01,.66,0,.52-.3,1.1-.5,1.72-.59,.55-.08,1.06-.02,1.49,.18,.37,.17,.67,.42,.89,.74,.18,.27,.32,.57,.4,.9,.07,.3,.11,.58,.11,.86,0,.22-.02,.47-.06,.76-.05,.36-.16,.73-.32,1.08-.2,.44-.49,.85-.86,1.21-.41,.4-.91,.7-1.5,.91-.11,.04-.22,.07-.33,.1-.02,.34-.05,.69-.09,1.03-.04,.38-.13,.74-.26,1.09-.15,.39-.36,.76-.62,1.09-.29,.37-.65,.68-1.06,.94-.4,.25-.85,.43-1.35,.53Zm-.19-6.01c0,.11,0,.22,0,.33,0,.82,.02,1.66,.09,2.48,0,.08,.02,.15,.05,.21l.13-.04c0-.09,.02-.17,.03-.27,.04-.4,.07-.82,.1-1.24,.03-.43,.05-.86,.06-1.28v-.02c-.16-.03-.31-.09-.45-.18Zm1.32,1.03s.05,.03,.08,.04c-.03-.01-.05-.03-.08-.04Zm2.33-1.43s0,.04,0,.07c0-.02,0-.04,0-.07Zm-.29-1.22h0s0,0,0,0h0Zm-.39-.25c.13,.03,.27,.09,.41,.17,0-.01,0-.03,0-.04,.02-.13,.03-.25,.03-.35,0-.03,0-.11-.03-.23,0-.02,0-.03-.01-.05-.09,.02-.17,.05-.21,.09h0s-.09,.1-.19,.4Zm-1.93,.09h.01s-.01,0-.01,0Zm-1.71,.3s-.03,0-.04,.01c.01,0,.03,0,.04-.01Z"/>
          <path class="cls-2" d="M13.33,19.48c-.52,.11-1.02,.14-1.48,.11-.51-.04-.97-.16-1.36-.37-.43-.23-.76-.55-1-.95-.25-.41-.37-.91-.37-1.47,0-.5,.1-1,.31-1.48,.13-.3,.29-.59,.49-.86-.36-.37-.55-.87-.55-1.47,0-.63,.21-1.27,.62-1.85,.33-.47,.76-.91,1.29-1.3,.47-.34,1.01-.64,1.6-.89,.56-.23,1.15-.41,1.76-.53,1.33-.27,2.4-.26,3.26,.05,.92,.33,1.59,.98,1.98,1.94,.15,.36,.26,.77,.32,1.23,.06,.42,.1,.87,.11,1.33,0,.46-.02,.93-.07,1.4-.05,.47-.13,.93-.23,1.37-.34,1.49-1.42,2.55-2.9,2.85-.57,.12-1.09,.1-1.52-.04-.08,.06-.17,.11-.26,.16-.61,.36-1.28,.61-1.99,.76Zm4.04-3.7h.01s-.01,0-.01,0Zm-3.6-.75c.01,.25,.12,.48,.29,.65,.1,.1,.22,.17,.35,.22,.02-.02,.03-.05,.05-.08,.12-.19,.28-.37,.45-.51-.01-.08-.03-.16-.06-.23-.06-.17-.18-.32-.34-.43-.24,.14-.48,.26-.75,.38Zm-.16,.95h.01s-.01,0-.01,0Zm3.2-.96c.06,.03,.11,.07,.16,.11,.02-.14,.04-.28,.06-.43,.04-.35,.06-.71,.05-1.05,0-.33-.03-.65-.07-.95-.02-.16-.05-.3-.09-.43-.05,.1-.1,.2-.17,.3-.11,.18-.25,.37-.4,.55,.08,.05,.15,.1,.21,.16,.27,.27,.4,.61,.4,1,0,.24-.05,.48-.16,.71Z"/>
          <path class="cls-2" d="M29.45,15.98c-.96,.2-1.62,.06-2.06-.15-.45,.39-1.12,.8-2.08,.99s-1.61,.07-2.05-.13c-.44,.39-1.08,.77-1.99,.96-1.23,.25-1.97-.05-2.38-.35-.55-.41-.88-1.01-.97-1.79-.05-.42-.08-.86-.1-1.32l-.06-1.25v-2.21c0-.83,.31-1.62,.89-2.29s1.36-1.11,2.25-1.3c.55-.11,1.08-.14,1.58-.08,.17,.02,.32,.05,.47,.1,.2-.15,.45-.3,.71-.43,.89-.44,1.8-.56,2.68-.47,.22,.02,.43,.06,.63,.12,.26-.19,.55-.36,.87-.51,.94-.43,2.07-.6,2.96-.39,.58,.13,1.08,.44,1.49,.89,.19,.23,.32,.44,.41,.64,.1,.22,.18,.48,.23,.79,.04,.25,.07,.56,.08,.93,0,.31,.01,.69,.01,1.16,0,.26,0,.5-.01,.71,0,.21-.03,.42-.04,.63l-.06,.59c-.02,.21-.05,.43-.09,.68-.12,.8-.44,1.52-.97,2.13-.41,.47-1.16,1.09-2.41,1.34Zm-.17-2.98c.07,0,.25-.04,.33-.07,.02-.04,.04-.11,.05-.2,.03-.21,.06-.41,.08-.58l.06-.53c.01-.15,.03-.32,.03-.48,0-.17,.01-.36,.01-.58,0-.43,0-.79-.01-1.08,0-.22-.02-.4-.05-.55-.02-.13-.05-.18-.05-.18-.02-.05-.05-.09-.09-.14-.04-.05-.13-.11-.2-.12-.2-.05-.52,0-.76,.12-.09,.04-.12,.06-.12,.06,0,0-.06,.05-.14,.16-.09,.12-.17,.26-.25,.41-.07,.15-.13,.32-.18,.51-.04,.14-.05,.28-.04,.42,0,.29-.06,.57-.17,.82,.35,0,.66,.12,.92,.33,.21,.17,.46,.49,.48,1.04l.02,.27c0,.07,.01,.13,.03,.19,.01,.1,.03,.16,.04,.19Zm-4.15,.85c.07-.01,.33-.07,.39-.09-.01,0,0-.06,0-.13,.02-.13,.02-.17,.03-.22,0-.12,.01-.25,.02-.38,0-.11,.03-.21,.06-.31,.03-.13,.07-.25,.12-.37-.64-.02-1.16-.4-1.32-1.05-.02-.08-.03-.15-.04-.24-.03-.54,.02-1.09,.17-1.64-.04,.02-.08,.05-.11,.08-.09,.07-.15,.12-.25,.25-.11,.14-.2,.3-.28,.47-.08,.17-.14,.35-.18,.55-.04,.17-.05,.34-.03,.5,0,.04,0,.08,0,.12,0,.15-.02,.3-.06,.44,.4,.01,.75,.17,1,.44,.22,.24,.34,.55,.36,.91l.02,.27c0,.08,.02,.15,.03,.21,.01,.11,.03,.17,.05,.2h.01Zm-4,.81s.14-.02,.21-.04c0-.04,.02-.08,.03-.15,.02-.11,.02-.18,.02-.26,0-.16,.02-.34,.04-.51,.01-.08,.03-.16,.05-.24-.16,0-.32-.04-.47-.1h0c.02,.41,.05,.8,.09,1.16,0,.06,.02,.1,.03,.13Zm4.85-1.6h0s0,0,0,0Z"/>
          <path class="cls-2" d="M34.21,15.01c-.9,.18-1.64,.14-2.2-.15-.61-.31-.99-.81-1.1-1.46-.13-.75-.2-1.56-.2-2.39s.07-1.67,.2-2.48c.07-.46,.27-.93,.6-1.36-.12-.14-.22-.3-.31-.48-.18-.35-.27-.77-.27-1.24s.09-.9,.28-1.33c.17-.41,.41-.79,.71-1.14,.31-.35,.66-.64,1.04-.87,.85-.51,1.81-.69,2.63-.47,.38,.1,.72,.27,1.01,.51,.29,.24,.51,.53,.66,.87,.16,.35,.24,.73,.24,1.13s-.08,.84-.25,1.25c-.1,.24-.22,.47-.36,.69,.3,.29,.5,.65,.58,1.07,.14,.76,.21,1.57,.21,2.41s-.07,1.68-.21,2.5c-.12,.68-.49,1.32-1.08,1.87-.56,.52-1.29,.87-2.18,1.06Zm-.13-2.69h.01s-.01,0-.01,0Zm-.04-.28c.08-.01,.23-.04,.32-.06,.09-.57,.13-1.15,.13-1.73s-.04-1.15-.13-1.68c-.08,.01-.23,.04-.32,.07-.08,.58-.12,1.15-.12,1.73s.04,1.15,.12,1.68Zm.04-3.71s0,.01,0,.02c0,0,0-.01,0-.02Zm.13-3.67l-.08,.15c0,.09,.01,.12,.01,.12l.06,.04s.02,0,.02,0l.06-.14c-.03-.11-.05-.14-.08-.16Z"/>
        </g>
        <g>
          <path class="cls-2" d="M4.47,20.2c-.5,.1-.96,.11-1.37,.02-.4-.08-.76-.24-1.05-.48-.28-.23-.5-.53-.65-.87-.13-.3-.21-.64-.24-.99-.07-.9-.1-1.82-.09-2.72,0-.87,.02-1.75,.04-2.64,.02-.51,.16-.96,.41-1.38,.34-.58,.89-1.02,1.52-1.24,.12-.05,.34-.12,.59-.19,.6-.17,1.35-.3,1.99-.34,.24-.01,.46-.01,.66,0,.52-.3,1.1-.5,1.72-.59,.55-.08,1.06-.02,1.49,.18,.37,.17,.67,.42,.89,.74,.18,.27,.32,.57,.4,.9,.07,.3,.11,.58,.11,.86,0,.22-.02,.47-.06,.76-.05,.36-.16,.73-.32,1.08-.2,.44-.49,.85-.86,1.21-.41,.4-.91,.7-1.5,.91-.11,.04-.22,.07-.33,.1-.02,.34-.05,.69-.09,1.03-.04,.38-.13,.74-.26,1.09-.15,.39-.36,.76-.62,1.09-.29,.37-.65,.68-1.06,.94-.4,.25-.85,.43-1.35,.53Zm-.19-6.01c0,.11,0,.22,0,.33,0,.82,.02,1.66,.09,2.48,0,.08,.02,.15,.05,.21l.13-.04c0-.09,.02-.17,.03-.27,.04-.4,.07-.82,.1-1.24,.03-.43,.05-.86,.06-1.28v-.02c-.16-.03-.31-.09-.45-.18Zm1.32,1.03s.05,.03,.08,.04c-.03-.01-.05-.03-.08-.04Zm2.33-1.43s0,.04,0,.07c0-.02,0-.04,0-.07Zm-.29-1.22h0s0,0,0,0h0Zm-.39-.25c.13,.03,.27,.09,.41,.17,0-.01,0-.03,0-.04,.02-.13,.03-.25,.03-.35,0-.03,0-.11-.03-.23,0-.02,0-.03-.01-.05-.09,.02-.17,.05-.21,.09h0s-.09,.1-.19,.4Zm-1.93,.09h.01s-.01,0-.01,0Zm-1.71,.3s-.03,0-.04,.01c.01,0,.03,0,.04-.01Z"/>
          <path class="cls-2" d="M12.26,18.7c-.52,.11-1.02,.14-1.48,.11-.51-.04-.97-.16-1.36-.37-.43-.23-.76-.55-1-.95-.25-.41-.37-.91-.37-1.47,0-.5,.1-1,.31-1.48,.13-.3,.29-.59,.49-.86-.36-.37-.55-.87-.55-1.47,0-.63,.21-1.27,.62-1.85,.33-.47,.76-.91,1.29-1.3,.47-.34,1.01-.64,1.6-.89,.56-.23,1.15-.41,1.76-.53,1.33-.27,2.4-.26,3.26,.05,.92,.33,1.59,.98,1.98,1.94,.15,.36,.26,.77,.32,1.23,.06,.42,.1,.87,.11,1.33,0,.46-.02,.93-.07,1.4-.05,.47-.13,.93-.23,1.37-.34,1.49-1.42,2.55-2.9,2.85-.57,.12-1.09,.1-1.52-.04-.08,.06-.17,.11-.26,.16-.61,.36-1.28,.61-1.99,.76Zm4.04-3.7h.01s-.01,0-.01,0Zm-3.6-.75c.02,.26,.12,.49,.29,.66,.1,.09,.21,.17,.34,.22,.02-.03,.03-.05,.05-.08,.12-.19,.28-.37,.45-.51-.01-.08-.03-.16-.06-.23-.06-.17-.18-.32-.34-.43-.24,.14-.48,.26-.75,.38Zm-.16,.95h.01s-.01,0-.01,0Zm3.2-.96c.06,.03,.11,.07,.16,.11,.02-.14,.04-.28,.06-.43,.04-.35,.06-.71,.05-1.05,0-.33-.03-.65-.07-.95-.02-.16-.05-.3-.09-.43-.05,.1-.1,.2-.17,.3-.11,.18-.25,.37-.4,.55,.08,.05,.15,.1,.21,.16,.27,.26,.4,.61,.4,1,0,.24-.05,.48-.16,.71Z"/>
          <path class="cls-2" d="M28.38,15.2c-.96,.2-1.62,.06-2.06-.15-.45,.39-1.12,.8-2.08,.99s-1.61,.07-2.05-.13c-.44,.39-1.08,.77-1.99,.96-1.23,.25-1.97-.05-2.38-.35-.55-.41-.88-1.01-.97-1.79-.05-.42-.08-.86-.1-1.32l-.06-1.25v-2.21c0-.83,.31-1.62,.89-2.29s1.36-1.11,2.25-1.3c.55-.11,1.08-.14,1.58-.08,.17,.02,.32,.05,.47,.1,.2-.15,.45-.3,.71-.43,.89-.44,1.8-.56,2.68-.47,.22,.02,.43,.06,.63,.12,.26-.19,.55-.36,.87-.51,.94-.43,2.07-.6,2.96-.39,.58,.13,1.08,.44,1.49,.89,.19,.23,.32,.44,.41,.64,.1,.22,.18,.48,.23,.79,.04,.25,.07,.56,.08,.93,0,.31,.01,.69,.01,1.16,0,.26,0,.5-.01,.71,0,.21-.03,.42-.04,.63l-.06,.59c-.02,.21-.05,.43-.09,.68-.12,.8-.44,1.52-.97,2.13-.41,.47-1.16,1.09-2.41,1.34Zm-.17-2.98c.07,0,.25-.04,.33-.07,.02-.04,.04-.11,.05-.2,.03-.21,.06-.41,.08-.58l.06-.53c.01-.15,.03-.32,.03-.48,0-.17,.01-.36,.01-.58,0-.43,0-.79-.01-1.08,0-.22-.02-.4-.05-.55-.02-.13-.05-.18-.05-.18-.02-.05-.05-.09-.09-.14-.04-.05-.13-.11-.2-.12-.2-.05-.52,0-.76,.12-.09,.04-.12,.06-.12,.06,0,0-.06,.05-.14,.16-.09,.12-.17,.26-.25,.41-.07,.15-.13,.32-.18,.51-.04,.14-.05,.28-.04,.42,0,.29-.06,.57-.17,.82,.35,0,.66,.12,.92,.33,.21,.17,.46,.49,.48,1.04l.02,.27c0,.07,.01,.13,.03,.19,.01,.1,.03,.16,.04,.19Zm-4.15,.85c.07-.01,.33-.07,.39-.09-.01,0,0-.06,0-.13,.02-.13,.02-.17,.03-.22,0-.12,.01-.25,.02-.38,0-.11,.03-.21,.06-.31,.03-.13,.07-.25,.12-.37-.64-.02-1.16-.4-1.32-1.05-.02-.08-.03-.15-.04-.24-.03-.54,.02-1.09,.17-1.64-.04,.02-.08,.05-.11,.08-.09,.07-.15,.12-.25,.25-.11,.14-.2,.3-.28,.47-.08,.17-.14,.35-.18,.55-.04,.17-.05,.34-.03,.5,0,.04,0,.08,0,.12,0,.15-.02,.3-.06,.44,.4,.01,.75,.17,1,.44,.22,.24,.34,.55,.36,.91l.02,.27c0,.08,.02,.15,.03,.21,.01,.11,.03,.17,.05,.2h.01Zm-4,.81s.14-.02,.21-.04c0-.04,.02-.08,.03-.15,.02-.11,.02-.18,.02-.26,0-.16,.02-.34,.04-.51,.01-.08,.03-.16,.05-.24-.16,0-.32-.04-.47-.1h0c.02,.41,.05,.8,.09,1.16,0,.06,.02,.1,.03,.13Zm4.85-1.6h0s0,0,0,0Z"/>
          <path class="cls-2" d="M33.14,14.23c-.9,.18-1.64,.14-2.2-.15-.61-.31-.99-.81-1.1-1.46-.13-.75-.2-1.56-.2-2.39s.07-1.67,.2-2.48c.07-.46,.27-.93,.6-1.36-.12-.14-.22-.3-.31-.48-.18-.35-.27-.77-.27-1.24s.09-.9,.28-1.33c.17-.41,.41-.79,.71-1.14,.31-.35,.66-.64,1.04-.87,.85-.51,1.81-.69,2.63-.47,.38,.1,.72,.27,1.01,.51,.29,.24,.51,.53,.66,.87,.16,.35,.24,.73,.24,1.13s-.08,.84-.25,1.25c-.1,.24-.22,.47-.36,.69,.3,.29,.5,.65,.58,1.07,.14,.76,.21,1.57,.21,2.41s-.07,1.68-.21,2.5c-.12,.68-.49,1.32-1.08,1.87-.56,.52-1.29,.87-2.18,1.06Zm-.13-2.69h.01s-.01,0-.01,0Zm-.04-.28c.08-.01,.23-.04,.32-.06,.09-.57,.13-1.15,.13-1.73s-.04-1.15-.13-1.68c-.08,.01-.23,.04-.32,.07-.08,.58-.12,1.15-.12,1.73s.04,1.15,.12,1.68Zm.04-3.71s0,.01,0,.02c0,0,0-.01,0-.02Zm.13-3.67l-.08,.15c0,.09,.01,.12,.01,.12l.06,.04s.02,0,.02,0l.06-.14c-.03-.11-.05-.14-.08-.16Z"/>
        </g>
        <g>
          <path class="cls-2" d="M3.4,19.42c-.5,.1-.96,.11-1.37,.02-.4-.08-.76-.24-1.05-.48-.28-.23-.5-.53-.65-.87-.13-.3-.21-.64-.24-.99C.02,16.19,0,15.27,0,14.37c0-.87,.02-1.75,.04-2.64,.02-.51,.16-.96,.41-1.38,.34-.58,.89-1.02,1.52-1.24,.12-.05,.34-.12,.59-.19,.6-.17,1.35-.3,1.99-.34,.24-.01,.46-.01,.66,0,.52-.3,1.1-.5,1.72-.59,.55-.08,1.06-.02,1.49,.18,.37,.17,.67,.42,.89,.74,.18,.27,.32,.57,.4,.9,.07,.3,.11,.58,.11,.86,0,.22-.02,.47-.06,.76-.05,.36-.16,.73-.32,1.08-.2,.44-.49,.85-.86,1.21-.41,.4-.91,.7-1.5,.91-.11,.04-.22,.07-.33,.1-.02,.34-.05,.69-.09,1.03-.04,.38-.13,.74-.26,1.09-.15,.39-.36,.76-.62,1.09-.29,.37-.65,.68-1.06,.94-.4,.25-.85,.43-1.35,.53Zm-.19-6.01c0,.11,0,.22,0,.33,0,.82,.02,1.66,.09,2.48,0,.08,.02,.15,.05,.21l.13-.04c0-.09,.02-.17,.03-.27,.04-.4,.07-.82,.1-1.24,.03-.43,.05-.86,.06-1.28v-.02c-.16-.03-.31-.09-.45-.18Zm1.32,1.03s.05,.03,.08,.04c-.03-.01-.05-.03-.08-.04Zm2.33-1.43s0,.04,0,.07c0-.02,0-.04,0-.07Zm-.29-1.22h0s0,0,0,0h0Zm-.39-.25c.13,.03,.27,.09,.41,.17,0-.01,0-.03,0-.04,.02-.13,.03-.25,.03-.35,0-.03,0-.11-.03-.23,0-.02,0-.03-.01-.05-.09,.02-.17,.05-.21,.09h0s-.09,.1-.19,.4Zm-1.93,.09h.01s-.01,0-.01,0Zm-1.71,.3s-.03,0-.04,.01c.01,0,.03,0,.04-.01Z"/>
          <path class="cls-2" d="M11.2,17.92c-.52,.11-1.02,.14-1.48,.11-.51-.04-.97-.16-1.36-.37-.43-.23-.76-.55-1-.95-.25-.41-.37-.91-.37-1.47,0-.5,.1-1,.31-1.48,.13-.3,.29-.59,.49-.86-.36-.37-.55-.87-.55-1.47,0-.63,.21-1.27,.62-1.85,.33-.47,.76-.91,1.29-1.3,.47-.34,1.01-.64,1.6-.89,.56-.23,1.15-.41,1.76-.53,1.33-.27,2.4-.26,3.26,.05,.92,.33,1.59,.98,1.98,1.94,.15,.36,.26,.77,.32,1.23,.06,.42,.1,.87,.11,1.33,0,.46-.02,.93-.07,1.4-.05,.47-.13,.93-.23,1.37-.34,1.49-1.42,2.55-2.9,2.85-.57,.12-1.09,.1-1.52-.04-.08,.06-.17,.11-.26,.16-.61,.36-1.28,.61-1.99,.76Zm4.04-3.7h.01s-.01,0-.01,0Zm-3.6-.75c.02,.26,.12,.49,.29,.66,.1,.09,.21,.17,.34,.22,.02-.03,.03-.05,.05-.08,.12-.19,.28-.37,.45-.51-.01-.08-.03-.16-.06-.23-.06-.17-.18-.32-.34-.43-.24,.14-.48,.26-.75,.38Zm-.16,.95h.01s-.01,0-.01,0Zm3.2-.96c.06,.03,.11,.07,.16,.11,.02-.14,.04-.28,.06-.43,.04-.35,.06-.71,.05-1.05,0-.33-.03-.65-.07-.95-.02-.16-.05-.3-.09-.43-.05,.1-.1,.2-.17,.3-.11,.18-.25,.37-.4,.55,.08,.05,.15,.1,.21,.16,.27,.26,.41,.61,.41,1,0,.24-.05,.48-.15,.71Z"/>
          <path class="cls-2" d="M27.31,14.42c-.96,.2-1.62,.06-2.06-.15-.45,.39-1.12,.8-2.08,.99s-1.61,.07-2.05-.13c-.44,.39-1.08,.77-1.99,.96-1.23,.25-1.97-.05-2.38-.35-.55-.41-.88-1.01-.97-1.79-.05-.42-.08-.86-.1-1.32l-.06-1.25v-2.21c0-.83,.31-1.62,.89-2.29s1.36-1.11,2.25-1.3c.55-.11,1.08-.14,1.58-.08,.17,.02,.32,.05,.47,.1,.2-.15,.45-.3,.71-.43,.89-.44,1.8-.56,2.68-.47,.22,.02,.43,.06,.63,.12,.26-.19,.55-.36,.87-.51,.94-.43,2.07-.6,2.96-.39,.58,.13,1.08,.44,1.49,.89,.19,.23,.32,.44,.41,.64,.1,.22,.18,.48,.23,.79,.04,.25,.07,.56,.08,.93,0,.31,.01,.69,.01,1.16,0,.26,0,.5-.01,.71,0,.21-.03,.42-.04,.63l-.06,.59c-.02,.21-.05,.43-.09,.68-.12,.8-.44,1.52-.97,2.13-.41,.47-1.16,1.09-2.41,1.34Zm-.17-2.98c.07,0,.25-.04,.33-.07,.02-.04,.04-.11,.05-.2,.03-.21,.06-.41,.08-.58l.06-.53c.01-.15,.03-.32,.03-.48,0-.17,.01-.36,.01-.58,0-.43,0-.79-.01-1.08,0-.22-.02-.4-.05-.55-.02-.13-.05-.18-.05-.18-.02-.05-.05-.09-.09-.14-.04-.05-.13-.11-.2-.12-.2-.05-.52,0-.76,.12-.09,.04-.12,.06-.12,.06,0,0-.06,.05-.14,.16-.09,.12-.17,.26-.25,.41-.07,.15-.13,.32-.18,.51-.04,.14-.05,.28-.04,.42,0,.29-.06,.57-.17,.82,.35,0,.66,.12,.92,.33,.21,.17,.46,.49,.48,1.04l.02,.27c0,.07,.01,.13,.03,.19,.01,.1,.03,.16,.04,.19Zm-4.15,.85c.07-.01,.33-.07,.39-.09-.01,0,0-.06,0-.13,.02-.13,.02-.17,.03-.22,0-.12,.01-.25,.02-.38,0-.11,.03-.21,.06-.31,.03-.13,.07-.25,.12-.37-.64-.02-1.16-.4-1.32-1.05-.02-.08-.03-.15-.04-.24-.03-.54,.02-1.09,.17-1.64-.04,.02-.08,.05-.11,.08-.09,.07-.15,.12-.25,.25-.11,.14-.2,.3-.28,.47-.08,.17-.14,.35-.18,.55-.04,.17-.05,.34-.03,.5,0,.04,0,.08,0,.12,0,.15-.02,.3-.06,.44,.4,.01,.75,.17,1,.44,.22,.24,.34,.55,.36,.91l.02,.27c0,.08,.02,.15,.03,.21,.01,.11,.03,.17,.05,.2h.01Zm-4,.81s.14-.02,.21-.04c0-.04,.02-.08,.03-.15,.02-.11,.02-.18,.02-.26,0-.16,.02-.34,.04-.51,.01-.08,.03-.16,.05-.24-.16,0-.32-.04-.47-.1h0c.02,.41,.05,.8,.09,1.16,0,.06,.02,.1,.03,.13Zm4.85-1.6h0s0,0,0,0Z"/>
          <path class="cls-2" d="M32.07,13.45c-.9,.18-1.64,.14-2.2-.15-.61-.31-.99-.81-1.1-1.46-.13-.75-.2-1.56-.2-2.39s.07-1.67,.2-2.48c.07-.46,.27-.93,.6-1.36-.12-.14-.22-.3-.31-.48-.18-.35-.27-.77-.27-1.24s.09-.9,.28-1.33c.17-.41,.41-.79,.71-1.14,.31-.35,.66-.64,1.04-.87,.85-.51,1.81-.69,2.63-.47,.38,.1,.72,.27,1.01,.51,.29,.24,.51,.53,.66,.87,.16,.35,.24,.73,.24,1.13s-.08,.84-.25,1.25c-.1,.24-.22,.47-.36,.69,.3,.29,.5,.65,.58,1.07,.14,.76,.21,1.57,.21,2.41s-.07,1.68-.21,2.5c-.12,.68-.49,1.32-1.08,1.87-.56,.52-1.29,.87-2.18,1.06Zm-.13-2.69h.01s-.01,0-.01,0Zm-.04-.28c.08-.01,.23-.04,.32-.06,.09-.57,.13-1.15,.13-1.73s-.04-1.15-.13-1.68c-.08,.01-.23,.04-.32,.07-.08,.58-.12,1.15-.12,1.73s.04,1.15,.12,1.68Zm.04-3.71s0,.01,0,.02c0,0,0-.01,0-.02Zm.13-3.67l-.08,.15c0,.09,.01,.12,.01,.12l.06,.04s.02,0,.02,0l.06-.14c-.03-.11-.05-.14-.08-.16Z"/>
        </g>
      </g>
      <g>
        <path class="cls-1" d="M5,10.18c-.21,.25-.39,.52-.53,.82-.14,.29-.22,.58-.24,.88-.02,.15,.02,.22,.11,.22,.09,0,.15-.07,.19-.21,.17-.75,.45-1.32,.83-1.69,.38-.37,.87-.6,1.46-.68,.27-.04,.49-.01,.67,.07,.18,.09,.33,.21,.44,.36s.18,.33,.23,.52c.05,.19,.07,.37,.07,.54s-.02,.35-.04,.56c-.03,.21-.09,.42-.19,.63-.09,.21-.23,.41-.42,.59-.19,.18-.44,.33-.74,.44-.21,.07-.42,.1-.65,.07-.23-.03-.44-.1-.63-.21-.09-.06-.17-.06-.22,0-.05,.07-.08,.15-.08,.26-.02,.44-.04,.87-.06,1.31s-.06,.88-.1,1.32c-.03,.23-.08,.45-.16,.66-.08,.21-.19,.41-.33,.58-.14,.17-.31,.32-.51,.44-.2,.13-.43,.22-.7,.27s-.51,.06-.72,.02c-.21-.04-.38-.12-.52-.23-.14-.12-.25-.26-.33-.44-.08-.18-.12-.38-.14-.6-.07-.87-.1-1.73-.09-2.6,0-.87,.02-1.75,.04-2.63,0-.2,.06-.38,.16-.55,.1-.16,.23-.28,.4-.33,.14-.05,.29-.1,.47-.15,.18-.05,.37-.09,.56-.13,.38-.08,.73-.13,1.07-.15,.34-.02,.57,0,.69,.06Z"/>
        <path class="cls-1" d="M13.66,14.83c-.29,.47-.65,.82-1.07,1.07s-.89,.42-1.39,.52c-.37,.08-.71,.1-1.03,.08-.32-.02-.59-.1-.83-.22-.24-.12-.42-.3-.56-.53-.14-.23-.21-.51-.21-.83,0-.3,.06-.58,.17-.85s.28-.52,.48-.75c.21-.23,.45-.43,.73-.61,.28-.18,.59-.33,.91-.46,.6-.23,1.1-.51,1.51-.83,.41-.32,.72-.65,.94-1,.04-.06,.06-.12,.04-.18-.02-.05-.05-.09-.1-.11-.05-.02-.1-.03-.16,0-.06,.02-.11,.06-.15,.12-.13,.19-.28,.38-.47,.57-.18,.19-.39,.35-.61,.5-.22,.15-.46,.28-.72,.39-.26,.11-.53,.2-.8,.25-.5,.1-.88,.07-1.14-.1-.26-.17-.39-.42-.39-.76,0-.3,.1-.6,.3-.88,.2-.28,.46-.55,.79-.79s.72-.46,1.17-.64c.44-.18,.91-.32,1.41-.43,1.03-.21,1.84-.21,2.44,0,.6,.21,1.03,.65,1.3,1.3,.11,.27,.19,.59,.25,.95s.09,.74,.09,1.14c0,.4-.02,.81-.06,1.22-.05,.42-.11,.82-.2,1.2-.17,.75-.62,1.21-1.33,1.35s-1.15-.09-1.31-.72Zm-2.18-.41c.31-.1,.6-.26,.88-.49,.28-.22,.54-.45,.78-.68,.06-.06,.09-.12,.09-.17s-.02-.1-.05-.13c-.03-.03-.08-.05-.13-.06-.05,0-.1,.01-.14,.05-.25,.24-.5,.45-.74,.63-.25,.18-.54,.34-.88,.49-.05,.03-.08,.06-.1,.11-.01,.05-.01,.09,0,.14,.02,.05,.05,.08,.1,.11,.05,.03,.11,.03,.19,0Z"/>
        <path class="cls-1" d="M25.04,11.26c0,.11-.01,.22-.02,.33,0,.11-.01,.21-.03,.32-.05,.47-.23,.86-.53,1.19-.3,.33-.73,.55-1.29,.67s-.99,.07-1.29-.14c-.29-.21-.47-.53-.53-.98-.02-.1-.03-.2-.04-.3,0-.1-.02-.21-.03-.32,0-.07-.02-.13-.05-.16s-.07-.06-.12-.05-.09,.02-.13,.06-.08,.09-.1,.15c-.02,.13-.03,.26-.03,.38s-.01,.24-.03,.37c-.05,.47-.21,.86-.48,1.19-.27,.32-.67,.54-1.21,.65s-.96,.06-1.25-.15c-.29-.21-.46-.54-.51-.98-.04-.39-.08-.8-.1-1.23-.02-.43-.04-.85-.06-1.24v-2.15c0-.43,.14-.81,.42-1.13s.65-.53,1.12-.62c.37-.08,.72-.09,1.05-.05,.33,.04,.56,.18,.7,.43-.33,.45-.58,.91-.74,1.37-.16,.46-.21,.92-.16,1.38,0,.07,.03,.12,.08,.15s.09,.04,.13,.03,.08-.03,.12-.07,.05-.09,.05-.15c-.03-.3,0-.61,.06-.93s.17-.63,.31-.92c.14-.29,.3-.56,.49-.81s.39-.45,.59-.61c.18-.15,.37-.27,.58-.38,.21-.1,.41-.17,.63-.22,.36-.07,.72-.09,1.08-.06,.36,.03,.66,.15,.91,.36-.28,.39-.49,.8-.61,1.23-.12,.42-.17,.85-.15,1.28,.03,.14,.1,.19,.21,.14,.1-.04,.15-.12,.15-.23-.02-.29,.01-.59,.09-.89,.08-.3,.18-.58,.31-.84,.13-.26,.27-.5,.44-.72,.16-.22,.32-.39,.47-.52,.16-.14,.36-.26,.6-.37,.23-.11,.49-.19,.75-.24,.41-.08,.78-.09,1.11-.01,.33,.08,.62,.25,.87,.53,.09,.12,.17,.24,.23,.37,.06,.13,.11,.29,.14,.49s.06,.44,.06,.74,.01,.67,.01,1.12c0,.24,0,.45-.01,.64,0,.19-.02,.38-.04,.56-.02,.18-.04,.37-.06,.56-.02,.19-.05,.4-.08,.63-.07,.47-.24,.87-.53,1.19-.28,.32-.71,.55-1.27,.66s-.99,.07-1.28-.14c-.29-.21-.46-.54-.52-.98-.02-.1-.03-.2-.04-.3,0-.1-.02-.2-.03-.31,0-.09-.02-.15-.06-.18s-.09-.05-.13-.04-.09,.04-.13,.09-.06,.12-.06,.2h-.01Z"/>
        <path class="cls-1" d="M30.35,11.29c-.12-.69-.18-1.41-.18-2.17s.06-1.5,.18-2.24c.04-.29,.2-.56,.48-.81,.28-.25,.69-.44,1.24-.55s.93-.09,1.2,.05c.27,.14,.43,.35,.48,.62,.13,.69,.19,1.41,.19,2.16s-.06,1.5-.19,2.24c-.05,.29-.21,.56-.48,.81s-.67,.43-1.2,.54-.96,.1-1.24-.04-.44-.34-.48-.62Zm1.72-6.39c-.22,.05-.43,.05-.63,.02-.2-.03-.38-.1-.53-.22-.15-.11-.28-.26-.37-.45-.09-.19-.14-.42-.14-.68,0-.25,.05-.48,.14-.71,.09-.22,.22-.42,.38-.61,.16-.18,.34-.33,.54-.45,.2-.12,.41-.2,.62-.25,.23-.05,.45-.04,.65,.01,.2,.05,.38,.15,.54,.27,.15,.13,.27,.29,.36,.47s.13,.39,.13,.6-.04,.44-.13,.66-.2,.41-.35,.59c-.15,.18-.32,.33-.53,.46s-.43,.22-.67,.27Z"/>
      </g>
    </g>
  </g>
</svg>