<?xml version="1.0" encoding="UTF-8"?> <svg xmlns="http://www.w3.org/2000/svg" width="783" height="1513" viewBox="0 0 783 1513" fill="none"> <g clip-path="url(#clip0_522_28)"> <path d="M384.226 1266.68C369.179 1290.87 353.776 1315.11 338.178 1339.24C335.646 1343.11 331.023 1348.82 324.939 1350.59C319.723 1352.1 314.61 1350.48 311.996 1347.35C303.942 1337.71 306.633 1322.14 313.467 1311.58C329.065 1287.44 344.486 1263.33 359.515 1239.02C361.87 1235.18 366.67 1229.44 372.755 1227.67C377.97 1226.16 383.084 1227.78 385.697 1230.91C393.947 1240.65 390.865 1256.01 384.226 1266.68V1266.68Z" fill="#84C3EB"></path> <path d="M479.029 1103.53C465.863 1128.23 452.147 1152.88 437.863 1177.35C435.686 1181.16 430.531 1186.95 424.624 1188.69C419.409 1190.2 414.295 1188.59 411.681 1185.45C403.414 1175.59 406.904 1160.56 413.152 1149.68C427.259 1125.24 440.975 1100.59 454.318 1075.86C456.317 1072.08 461.81 1066.11 467.557 1064.52C472.773 1063.01 477.886 1064.62 480.5 1067.76C488.981 1077.85 484.868 1092.32 479.029 1103.53V1103.53Z" fill="#84C3EB"></path> <path d="M590.185 854.868C573.065 904.139 552.979 952.92 530.48 1001.26C527.437 1007.92 517.595 1024.11 504.826 1018.25C493.016 1012.77 495.49 994.384 499.523 985.768C522.022 937.426 542.285 888.62 559.228 839.373C561.525 832.56 572.681 816.709 584.882 822.387C597.083 828.066 593.26 845.868 590.185 854.868Z" fill="#84C3EB"></path> <path d="M649.226 529.185C649.553 603.384 639.305 678.295 620.998 752.526C619.022 760.333 612.465 778.001 597.734 777.482C583.004 776.963 584.233 757.449 585.82 750.736C603.122 680.931 612.616 610.928 612.384 541.259C612.388 532.302 617.4 513.943 631.68 509.982C646.847 505.897 649.339 522.29 649.403 529.16L649.226 529.185Z" fill="#84C3EB"></path> <path d="M583.729 235.338C612.843 298.08 632.395 363.598 642.028 430.644C643.571 441.589 640.739 457.435 627.973 465.724C615.208 474.014 606.993 463.231 605.862 455.213C596.908 391.705 578.445 330.058 550.703 270.627C545.735 259.775 549.136 244.109 558.757 234.056C567.439 225.044 579.082 225.48 583.729 235.338Z" fill="#84C3EB"></path> <path d="M401.483 28.5618C449.4 62.9525 490.881 101.755 524.755 144.356C532.472 154.171 530.632 169.357 523.284 180.128C518.627 186.886 505.228 198.38 497.102 188.233C465.006 147.977 426.438 110.581 381.132 78.0289C370.455 70.3186 371.001 56.2233 375.829 45.548C378.04 40.6933 390.61 20.7493 401.483 28.5618V28.5618Z" fill="#84C3EB"></path> <path d="M280.916 1261.65C266.052 1335.91 251.188 1410.18 236.502 1484.42L219.086 1457.15C266.721 1447.19 299.438 1418.69 332.905 1392.95C366.371 1367.2 404.328 1341.21 454.312 1335.07C467.3 1333.5 467.42 1353.6 466.664 1358.51C465.681 1365.66 460.723 1384.4 447.789 1386.35C400.327 1393.69 367.04 1420.71 334.602 1446.05C302.164 1471.4 265.134 1500.11 217.641 1509.79C197.93 1513.74 198.374 1491.22 200.224 1482.52C215.265 1408.23 230.129 1333.97 245.171 1259.68C246.755 1251.67 254.146 1233.49 269.231 1233.96C284.317 1234.43 282.804 1254.5 281.43 1261.45L280.916 1261.65Z" fill="#84C3EB"></path> </g> <defs> <clipPath id="clip0_522_28"> <rect width="1443.63" height="587.015" fill="white" transform="matrix(0.139608 0.990207 0.990207 -0.139608 0.128906 82.5522)"></rect> </clipPath> </defs> </svg> 