<svg width="41" height="40" viewBox="0 0 41 40" fill="none" xmlns="http://www.w3.org/2000/svg">
<g clip-path="url(#clip0_566_2572)">
<path d="M29.9655 14.9286C27.0254 15.4994 23.563 16.0136 20.9504 17.5308C16.5915 20.0612 15.9503 25.299 15.0235 29.7799C13.9696 25.3614 13.438 20.0508 9.07673 17.5504C6.42686 16.031 2.98309 15.4821 0.000976562 14.9286C0.0289557 14.7761 0.168852 14.7958 0.278437 14.7657C3.25356 13.9453 6.05148 13.8344 8.88553 12.278C13.5487 9.71864 13.7341 4.82755 14.9022 0.279623C14.9302 0.168698 14.9022 0.0311976 15.0631 0C15.9106 4.3642 16.6241 9.65625 20.8385 12.1197C23.7635 13.8298 26.6045 13.8899 29.6869 14.7657C29.7965 14.7969 29.9364 14.775 29.9644 14.9286H29.9655Z" fill="#F4F2BB"/>
<path d="M40.9998 30.4982L37.7612 31.2389C34.4061 32.1702 33.0712 33.529 32.1467 36.851C31.8588 37.8863 31.7061 38.9562 31.4554 39.9985C30.9658 38.0908 30.749 36.0086 29.737 34.2754C28.1399 31.5405 24.7451 31.1499 21.9087 30.5363C24.1097 29.9517 26.657 29.7633 28.4768 28.2624C30.5904 26.5188 30.8049 23.5377 31.4554 21.0742C32.0745 23.8855 32.4673 27.2502 35.228 28.8332C36.9172 29.8015 39.1136 30.1042 41.001 30.4971L40.9998 30.4982Z" fill="#F4F2BB"/>
</g>
<defs>
<clipPath id="clip0_566_2572">
<rect width="41" height="40" fill="white"/>
</clipPath>
</defs>
</svg>
