<?xml version="1.0" encoding="utf-8"?>
<!-- Generator: Adobe Illustrator 27.0.0, SVG Export Plug-In . SVG Version: 6.00 Build 0)  -->
<svg version="1.1" id="Layer_1" xmlns="http://www.w3.org/2000/svg" xmlns:xlink="http://www.w3.org/1999/xlink" x="0px" y="0px"
	 viewBox="0 0 283.46 52.65" style="enable-background:new 0 0 283.46 52.65;" xml:space="preserve">
<style type="text/css">
	.st0{fill:#2D2E2D;}
</style>
<g>
	<path class="st0" d="M91.66,47.42c-3.82,0-7.25-0.95-10.28-2.86s-5.43-4.5-7.18-7.77s-2.63-6.97-2.63-11.1s0.95-7.85,2.86-11.14
		s4.5-5.9,7.77-7.81s6.94-2.86,11.02-2.86c4.08,0,7.74,0.96,10.99,2.86c3.24,1.91,5.82,4.51,7.73,7.81s2.86,7.01,2.86,11.14h-3.06
		c0,4.13-0.88,7.83-2.63,11.1s-4.15,5.86-7.18,7.77C98.9,46.46,95.48,47.42,91.66,47.42z M93.23,40.36c2.67,0,5.05-0.64,7.14-1.92
		s3.74-3.03,4.94-5.26c1.2-2.22,1.8-4.72,1.8-7.49c0-2.82-0.6-5.35-1.8-7.57c-1.2-2.22-2.85-3.97-4.94-5.26
		c-2.09-1.28-4.47-1.92-7.14-1.92c-2.62,0-4.98,0.64-7.1,1.92c-2.12,1.28-3.79,3.03-5.02,5.26c-1.23,2.22-1.84,4.75-1.84,7.57
		c0,2.77,0.61,5.27,1.84,7.49c1.23,2.22,2.9,3.98,5.02,5.26C88.25,39.71,90.61,40.36,93.23,40.36z M110.81,47.18
		c-1.15,0-2.11-0.38-2.86-1.14c-0.76-0.76-1.14-1.71-1.14-2.86v-12l1.49-8.32l6.51,2.82v17.5c0,1.15-0.38,2.11-1.14,2.86
		C112.91,46.8,111.96,47.18,110.81,47.18z"/>
	<path class="st0" d="M142.15,47.42c-4.19,0-7.91-0.95-11.18-2.86c-3.27-1.91-5.83-4.5-7.69-7.77s-2.79-6.97-2.79-11.1
		c0-4.24,0.92-8,2.75-11.3s4.34-5.87,7.53-7.73s6.85-2.79,10.99-2.79c3.09,0,5.91,0.59,8.47,1.77c2.56,1.18,4.87,2.94,6.91,5.3
		c0.73,0.84,0.99,1.7,0.79,2.59c-0.21,0.89-0.79,1.67-1.73,2.35c-0.73,0.52-1.54,0.69-2.43,0.51c-0.89-0.18-1.7-0.64-2.43-1.37
		c-2.56-2.72-5.75-4.08-9.57-4.08c-2.67,0-5.02,0.62-7.06,1.84c-2.04,1.23-3.64,2.94-4.79,5.14s-1.73,4.79-1.73,7.77
		c0,2.83,0.59,5.34,1.77,7.53s2.81,3.94,4.9,5.22s4.52,1.92,7.3,1.92c1.83,0,3.44-0.22,4.83-0.67c1.39-0.44,2.65-1.14,3.81-2.08
		c0.84-0.68,1.7-1.06,2.59-1.14s1.67,0.17,2.35,0.75c0.89,0.73,1.39,1.56,1.49,2.47c0.1,0.92-0.21,1.74-0.94,2.47
		C152.51,45.66,147.8,47.42,142.15,47.42z"/>
	<path class="st0" d="M183.43,47.42c-4.24,0-7.98-0.93-11.22-2.79s-5.79-4.42-7.65-7.69s-2.79-7.02-2.79-11.26
		c0-4.29,0.93-8.07,2.79-11.34c1.86-3.27,4.41-5.83,7.65-7.69c3.24-1.86,6.98-2.79,11.22-2.79c4.18,0,7.9,0.93,11.14,2.79
		s5.79,4.42,7.65,7.69s2.79,7.05,2.79,11.34c0,4.24-0.92,7.99-2.75,11.26c-1.83,3.27-4.37,5.83-7.61,7.69
		C191.41,46.49,187.67,47.42,183.43,47.42z M183.43,40.36c2.72,0,5.13-0.63,7.22-1.88s3.73-2.98,4.9-5.18s1.77-4.73,1.77-7.61
		s-0.59-5.43-1.77-7.65c-1.18-2.22-2.81-3.96-4.9-5.22s-4.5-1.88-7.22-1.88s-5.13,0.63-7.22,1.88s-3.74,3-4.94,5.22
		s-1.8,4.77-1.8,7.65c0,2.88,0.6,5.41,1.8,7.61s2.85,3.92,4.94,5.18C178.31,39.73,180.71,40.36,183.43,40.36z"/>
	<path class="st0" d="M215.8,47.34c-1.15,0-2.11-0.38-2.86-1.14c-0.76-0.76-1.14-1.71-1.14-2.86V8.42c0-1.2,0.38-2.17,1.14-2.9
		s1.71-1.1,2.86-1.1c1.2,0,2.17,0.37,2.9,1.1c0.73,0.73,1.1,1.7,1.1,2.9v34.92c0,1.15-0.37,2.11-1.1,2.86
		C217.97,46.96,217,47.34,215.8,47.34z M242.01,47.34c-1.15,0-2.11-0.38-2.86-1.14c-0.76-0.76-1.14-1.71-1.14-2.86V20.9
		c0-3.3-0.81-5.74-2.43-7.34c-1.62-1.59-3.74-2.39-6.36-2.39c-2.72,0-4.97,0.94-6.75,2.82s-2.67,4.29-2.67,7.22h-4.94
		c0-3.4,0.68-6.4,2.04-8.99c1.36-2.59,3.24-4.62,5.65-6.08c2.41-1.46,5.15-2.2,8.24-2.2c2.98,0,5.62,0.66,7.93,1.96
		c2.3,1.31,4.09,3.23,5.38,5.77c1.28,2.54,1.92,5.61,1.92,9.22v22.44c0,1.15-0.37,2.11-1.1,2.86
		C244.18,46.96,243.21,47.34,242.01,47.34z M268.13,47.34c-1.15,0-2.11-0.38-2.86-1.14c-0.76-0.76-1.14-1.71-1.14-2.86V20.9
		c0-3.3-0.81-5.74-2.43-7.34c-1.62-1.59-3.74-2.39-6.36-2.39c-2.72,0-4.96,0.94-6.71,2.82S246,18.28,246,21.21h-6.51
		c0-3.4,0.73-6.4,2.2-8.99c1.46-2.59,3.52-4.62,6.16-6.08s5.66-2.2,9.06-2.2c2.98,0,5.62,0.66,7.93,1.96
		c2.3,1.31,4.09,3.23,5.38,5.77c1.28,2.54,1.92,5.61,1.92,9.22v22.44c0,1.15-0.37,2.11-1.1,2.86
		C270.31,46.96,269.34,47.34,268.13,47.34z"/>
	<g>
		<path class="st0" d="M274.09,7.75c-0.59,0-1.14-0.11-1.64-0.32c-0.51-0.21-0.95-0.51-1.34-0.9c-0.38-0.38-0.68-0.83-0.9-1.34
			c-0.21-0.51-0.32-1.06-0.32-1.65c0-0.57,0.11-1.11,0.33-1.62c0.22-0.5,0.52-0.95,0.9-1.34s0.83-0.69,1.34-0.91
			s1.05-0.33,1.63-0.33c0.57,0,1.11,0.11,1.62,0.33s0.95,0.52,1.34,0.9c0.38,0.38,0.69,0.83,0.91,1.34s0.33,1.05,0.33,1.62
			c0,0.59-0.11,1.15-0.33,1.65c-0.22,0.51-0.52,0.95-0.9,1.34c-0.38,0.38-0.83,0.68-1.34,0.9C275.21,7.64,274.67,7.75,274.09,7.75z
			 M274.08,7.03c0.49,0,0.94-0.09,1.36-0.27c0.42-0.18,0.79-0.44,1.11-0.76c0.32-0.32,0.57-0.69,0.75-1.11s0.27-0.87,0.27-1.35
			s-0.09-0.93-0.27-1.35c-0.18-0.42-0.44-0.79-0.76-1.11s-0.7-0.58-1.12-0.76c-0.42-0.18-0.87-0.27-1.35-0.27
			c-0.47,0-0.92,0.09-1.34,0.27c-0.42,0.18-0.8,0.43-1.12,0.75s-0.58,0.69-0.76,1.11c-0.18,0.42-0.27,0.87-0.27,1.35
			s0.09,0.93,0.27,1.35c0.18,0.42,0.43,0.8,0.75,1.12c0.32,0.32,0.69,0.57,1.11,0.75C273.15,6.94,273.6,7.03,274.08,7.03z
			 M272.86,6.08c-0.11,0-0.2-0.03-0.26-0.1c-0.07-0.07-0.1-0.15-0.1-0.25V1.17c0-0.11,0.04-0.19,0.11-0.26
			c0.07-0.06,0.16-0.1,0.27-0.1h1.21c0.34,0,0.65,0.07,0.92,0.21c0.27,0.14,0.48,0.33,0.63,0.58c0.15,0.24,0.23,0.53,0.23,0.85
			c0,0.31-0.08,0.6-0.24,0.84s-0.38,0.44-0.65,0.58c-0.27,0.14-0.57,0.21-0.89,0.21h-0.87v1.64c0,0.1-0.03,0.18-0.1,0.25
			C273.06,6.05,272.97,6.08,272.86,6.08z M273.22,3.43h0.89c0.31,0,0.56-0.08,0.76-0.25s0.3-0.41,0.3-0.73c0-0.32-0.1-0.56-0.3-0.73
			c-0.2-0.17-0.45-0.26-0.76-0.26h-0.89V3.43z M275.61,6.08c-0.14,0-0.24-0.06-0.31-0.17l-1.31-2.11l0.69-0.2l1.2,1.93
			c0.09,0.14,0.1,0.27,0.05,0.38C275.89,6.03,275.78,6.08,275.61,6.08z"/>
	</g>
	<g>
		<path class="st0" d="M9.79,3.95c1.15,0,2.11,0.38,2.86,1.14c0.76,0.76,1.14,1.71,1.14,2.86v22.44c0,3.3,0.81,5.74,2.43,7.34
			c1.62,1.59,3.74,2.39,6.36,2.39c2.72,0,4.96-0.94,6.71-2.82s2.63-4.29,2.63-7.22h6.51c0,3.4-0.73,6.4-2.2,8.99
			c-1.46,2.59-3.52,4.62-6.16,6.08s-5.66,2.2-9.06,2.2c-2.98,0-5.62-0.66-7.93-1.96c-2.3-1.31-4.09-3.23-5.38-5.77
			c-1.28-2.54-1.92-5.61-1.92-9.22V7.96c0-1.15,0.37-2.11,1.1-2.86C7.62,4.32,8.59,3.95,9.79,3.95z M35.92,3.95
			c1.15,0,2.11,0.38,2.86,1.14c0.76,0.76,1.14,1.71,1.14,2.86v22.44c0,3.3,0.81,5.74,2.43,7.34c1.62,1.59,3.74,2.39,6.36,2.39
			c2.72,0,4.97-0.94,6.75-2.82s2.67-4.29,2.67-7.22h4.94c0,3.4-0.68,6.4-2.04,8.99c-1.36,2.59-3.24,4.62-5.65,6.08
			s-5.15,2.2-8.24,2.2c-2.98,0-5.62-0.66-7.93-1.96c-2.3-1.31-4.09-3.23-5.38-5.77c-1.28-2.54-1.92-5.61-1.92-9.22V7.96
			c0-1.15,0.37-2.11,1.1-2.86C33.75,4.32,34.72,3.95,35.92,3.95z M62.13,3.95c1.15,0,2.11,0.38,2.86,1.14
			c0.76,0.76,1.14,1.71,1.14,2.86v34.92c0,1.2-0.38,2.17-1.14,2.9s-1.71,1.1-2.86,1.1c-1.2,0-2.17-0.37-2.9-1.1
			c-0.73-0.73-1.1-1.7-1.1-2.9V7.95c0-1.15,0.37-2.11,1.1-2.86C59.96,4.32,60.93,3.95,62.13,3.95z"/>
	</g>
</g>
</svg>
